<?xml version="1.0" standalone="no"?>
<!DOCTYPE svg PUBLIC "-//W3C//DTD SVG 1.1//EN" "http://www.w3.org/Graphics/SVG/1.1/DTD/svg11.dtd" >
<svg xmlns="http://www.w3.org/2000/svg" xmlns:xlink="http://www.w3.org/1999/xlink" version="1.1">
<metadata>
Created by FontForge 20160405 at Fri Jan  4 12:31:04 2019
 By www-data
(c) 2007-2016 Typodermic Fonts Inc.
</metadata>
<defs>
<font id="MelocheBk-Regular" horiz-adv-x="583" >
  <font-face 
    font-family="Meloche Bk"
    font-weight="400"
    font-stretch="normal"
    units-per-em="1000"
    panose-1="2 11 5 6 5 0 0 2 0 4"
    ascent="800"
    descent="-200"
    x-height="487"
    cap-height="701"
    bbox="-448 -254 1091 1145"
    underline-thickness="50"
    underline-position="-150"
    unicode-range="U+000D-E014"
  />
<missing-glyph horiz-adv-x="624" 
d="M576 900v-1095h-530v1095h530zM212 545q18 60 40.5 90.5t54.5 30.5q35 0 54 -17t19 -46q0 -42 -12.5 -70.5t-32.5 -51t-45 -43t-49 -46t-44.5 -59.5t-32.5 -84q-3 -10 -5 -21t-4 -32l107 -31q0 11 1 21t3 19q11 43 35 72t53.5 53t61 47t57.5 53.5t42.5 72t16.5 102.5
q0 44 -21.5 79t-57 59.5t-80 37.5t-89.5 13q-39 0 -68 -15t-50 -41t-35.5 -62t-26.5 -78zM127 79q-18 -17 -18 -44q0 -12 4 -24t13 -23q21 -24 47 -24q20 0 34 14q18 18 18 47q0 25 -16 45q-20 23 -47 23q-9 0 -18 -3t-17 -11z" />
    <glyph glyph-name="uniE000" unicode="[fleur&#x31;]" horiz-adv-x="359" 
d="M179 709q34 -37 34 -89q0 -22 -4 -39.5t-8.5 -34.5t-8.5 -35t-4 -40h13q0 19 5.5 36t14.5 30.5t22 21.5t29 8q21 0 33.5 -14t12.5 -39t-12.5 -37.5t-26.5 -12.5q-8 0 -15 4t-9 12q6 -6 13 -6q13 0 19 10t6 24q0 15 -6.5 24.5t-19.5 9.5q-25 0 -37 -22t-14 -49h15
q3 0 3 -4v-7q0 -3 -3 -3h-14q2 -15 6.5 -24.5t13.5 -9.5t12.5 8t0.5 17q5 -3 7 -8t2 -10q0 -10 -6.5 -16.5t-15.5 -6.5q-17 0 -25 16t-10 34h-14q0 -60 2 -99.5t6 -64t11 -36t18 -14.5q-10 -5 -17 -16.5t-12.5 -38.5t-9.5 -72t-7 -116q-3 71 -7.5 116t-9.5 72t-12.5 38.5
t-16.5 16.5q10 3 17 14.5t11.5 36t6.5 64t2 99.5h-15q-2 -18 -10 -34t-25 -16q-10 0 -16 6.5t-6 16.5q0 5 1.5 10t6.5 8q-3 -9 1 -17t13 -8t13.5 9.5t6.5 24.5h-13q-4 0 -4 3v7q0 4 4 4h14q-2 27 -14.5 49t-36.5 22q-12 0 -18.5 -9.5t-6.5 -24.5q0 -14 5 -24t18 -10
q8 0 13 6q-2 -8 -8.5 -12t-13.5 -4q-14 0 -27 12.5t-13 37.5t13 39t33 14q16 0 29 -8t22 -21.5t14 -30.5t5 -36h15q0 22 -4 40t-9 35t-9 34.5t-4 39.5q0 27 8.5 48t26.5 41z" />
    <glyph glyph-name="uniE001" unicode="[fleur&#x32;]" horiz-adv-x="759" 
d="M380 710q20 -51 31 -106.5t11 -111.5q0 -18 -1.5 -38.5t-4.5 -42t-7 -42t-8 -37.5q13 32 30 62.5t38.5 54t48.5 38t60 14.5q34 0 59.5 -13t42.5 -33.5t26 -46.5t9 -52q0 -32 -13.5 -59.5t-42.5 -43.5q11 14 16 27t5 34q0 31 -9.5 53.5t-25 37.5t-35.5 22.5t-40 7.5
q-50 0 -93 -39t-64 -117q8 -8 12 -18.5t4 -21.5q0 -14 -6 -26.5t-18 -18.5q1 -57 18.5 -82.5t43.5 -25.5q21 0 37.5 16.5t12.5 50.5q9 -6 13 -17.5t4 -24.5q0 -25 -16 -44t-46 -19t-45 21t-26 45q2 -11 2 -20.5v-18.5q0 -28 -6 -59t-17 -51q-11 20 -17.5 51t-6.5 59v17.5
t2 19.5q-6 -12 -12.5 -23.5t-14.5 -20.5t-18.5 -14.5t-25.5 -5.5q-30 0 -46 19t-16 44q0 13 4 24.5t14 17.5q-5 -34 11.5 -50.5t38.5 -16.5q25 0 42.5 25.5t18.5 82.5q-12 6 -18 18.5t-6 26.5q0 11 4 21.5t12 18.5q-21 78 -64 117t-93 39q-20 0 -39.5 -7.5t-35.5 -22.5
t-25.5 -37.5t-9.5 -53.5q0 -21 5 -34t16 -27q-29 16 -42.5 43.5t-13.5 59.5q0 26 8.5 52t26 46.5t43 33.5t59.5 13q33 0 60 -14.5t48.5 -38t38 -54t30.5 -62.5q-5 17 -8.5 37.5t-6.5 42t-4.5 42t-1.5 38.5q0 56 11 111.5t32 106.5z" />
    <glyph glyph-name="uniE002" unicode="[fleur&#x33;]" horiz-adv-x="628" 
d="M314 719q18 -24 29 -44.5t17 -40t8 -39.5t2 -42q0 -46 -7 -90.5t-15.5 -85.5t-15.5 -77t-7 -65h-22q0 29 -7 65t-16 77t-16 85.5t-7 90.5q0 22 2.5 42t8.5 39.5t17 40t29 44.5zM271 235q-15 88 -44 141t-78 53q-32 0 -48.5 -19.5t-16.5 -46.5q0 -32 18.5 -50t40.5 -23
q21 -5 31.5 2.5t8.5 24.5q5 -3 7 -7.5t2 -9.5q0 -11 -11 -22.5t-34 -6.5q15 -11 21 -23.5t6 -26.5q0 -20 -11.5 -35.5t-34.5 -15.5q-14 0 -24.5 6.5t-13.5 23.5q11 -14 24 -14q14 0 22 9t8 25q0 17 -11 31t-33 28q2 -12 -3 -25t-17 -13q-3 0 -7 2q14 2 14 24q0 11 -3 16.5
t-8 10.5q-14 13 -25 31.5t-11 51.5q0 42 24.5 72.5t71.5 30.5q34 0 59.5 -18t44 -50.5t30.5 -77.5t18 -99h-17zM340 235q6 54 17.5 99t30 77.5t44.5 50.5t60 18q48 0 72 -30.5t24 -72.5q0 -33 -11 -51.5t-25 -31.5q-5 -5 -8 -10.5t-3 -16.5q0 -22 14 -24q-4 -2 -7 -2
q-12 0 -17 13t-3 25q-44 -28 -44 -59q0 -16 8 -25t22 -9q12 0 23 14q-3 -17 -13 -23.5t-24 -6.5q-23 0 -34.5 15.5t-11.5 35.5q0 28 26 50q-22 -5 -33.5 6.5t-11.5 22.5t10 17q-2 -17 8 -24.5t32 -2.5t40.5 23t18.5 50q0 27 -16.5 46.5t-48.5 19.5q-25 0 -44.5 -14
t-34.5 -39.5t-25.5 -61t-17.5 -79.5h-17zM323 193q1 -42 3.5 -71.5t7.5 -49t13 -30t22 -14.5q-14 -5 -23 -11t-15 -16t-9.5 -26t-7.5 -41q-4 25 -8 41t-10 26t-15 16t-23 11q14 4 22.5 14t13.5 29t7 48.5t4 73.5h18zM291 193q-3 -63 -22.5 -101t-61.5 -38q-27 0 -47 16
t-20 46q0 23 12 39.5t35 16.5q9 0 16 -5t7 -14q0 -3 -2 -9q-3 15 -19 15q-12 0 -20.5 -10t-8.5 -27q0 -24 14 -34.5t32 -10.5q30 0 46.5 29.5t20.5 86.5h18zM355 193q5 -57 20.5 -86.5t46.5 -29.5q18 0 32 10.5t14 34.5q0 17 -8.5 27t-20.5 10q-17 0 -18 -15q-3 4 -3 9
q0 9 6.5 14t16.5 5q24 0 35.5 -16.5t11.5 -39.5q0 -30 -20 -46t-48 -16q-41 0 -60.5 38.5t-21.5 100.5h17zM363 224q12 0 29 -10q-17 -10 -29 -10h-98q-12 0 -30 10q18 10 30 10h98z" />
    <glyph glyph-name="uniE003" unicode="[fleur&#x34;]" horiz-adv-x="648" 
d="M324 726q4 -80 11 -134.5t15.5 -89t18.5 -52t20 -24.5q-13 -11 -23.5 -30t-17.5 -49t-10.5 -72.5t-3.5 -99.5h17q8 103 46.5 159.5t101.5 56.5q24 0 43.5 -10.5t33 -28t21 -39.5t7.5 -46q0 -38 -17.5 -74t-61.5 -55q21 26 27.5 45.5t6.5 36.5q0 45 -22.5 71t-64.5 26
q-17 0 -33.5 -7t-30 -23.5t-23 -44t-12.5 -67.5q23 -1 33 -8t12 -26q-7 10 -16 13.5t-29 3.5q1 -17 4 -35t9.5 -33t15.5 -24.5t22 -9.5q25 0 25 28q0 9 -4 17t-15 8q-7 0 -11.5 -4t-2.5 -14q-5 5 -5 11q0 10 7 15t16 5q20 0 31 -12t11 -31q0 -20 -12 -34.5t-35 -14.5t-37 14
t-23 34t-13 42t-5 38h-17q0 -20 1.5 -34t3.5 -24.5t5.5 -18.5t7.5 -15q-11 -9 -17.5 -29.5t-10.5 -66.5q-4 46 -10.5 66.5t-17.5 29.5q4 7 7.5 15t5.5 18.5t3.5 24.5t1.5 34h-17q-1 -16 -5 -38t-12.5 -42t-23.5 -34t-37 -14q-23 0 -34.5 14.5t-11.5 34.5q0 19 10.5 31
t30.5 12q22 0 22 -20q0 -7 -5 -11q2 10 -2 14t-11 4q-11 0 -15 -8t-4 -17q0 -28 26 -28q12 0 21 9.5t15 24.5t9.5 33t4.5 35q-20 0 -29.5 -3.5t-15.5 -13.5q2 19 12 26t33 8q-3 40 -12.5 67.5t-23 44t-30.5 23.5t-33 7q-42 0 -64.5 -26t-22.5 -71q0 -17 6 -36.5t28 -45.5
q-44 19 -61.5 55t-17.5 74q0 24 7.5 46t21 39.5t33 28t43.5 10.5q63 0 101.5 -56.5t46.5 -159.5h17q0 57 -3.5 99.5t-10.5 72.5t-17.5 49t-23.5 30q10 7 19.5 24.5t18.5 52t16 89t11 134.5z" />
    <glyph glyph-name="uniE004" unicode="[fleur&#x35;]" horiz-adv-x="671" 
d="M335 722q11 -16 19.5 -37.5t14.5 -44.5t9 -47t3 -45q0 -51 -12 -95t-17 -79q-2 -17 -3.5 -45.5t-1.5 -75.5h24q1 48 10.5 89.5t28.5 72t46.5 48t63.5 17.5q21 0 40 -7t33.5 -21t23.5 -34t9 -46q0 -47 -22.5 -74.5t-62.5 -27.5q-18 0 -31 6.5t-20.5 17t-11 22t-3.5 22.5
q0 16 8.5 27t26.5 11q16 0 22.5 -6.5t6.5 -14.5q0 -6 -2 -7q-1 6 -4.5 10.5t-11.5 4.5q-20 0 -20 -23q0 -17 10 -26.5t27 -9.5q25 0 36.5 20t11.5 46q0 36 -20 57t-53 21q-30 0 -53.5 -15t-40 -41.5t-26 -62t-11.5 -76.5q41 3 55 22q-1 -18 -16 -26t-39 -9q1 -22 7 -45.5
t16.5 -43t25.5 -32.5t35 -13q14 0 26.5 8.5t12.5 29.5q0 10 -4.5 17t-14.5 7q-8 0 -12 -5t-4 -13q0 -9 6 -13q-15 1 -15 18t8 25.5t22 8.5q36 0 36 -42q0 -29 -15.5 -42.5t-40.5 -13.5t-43.5 14t-31 35.5t-18.5 47.5t-7 51h-24q0 -48 1 -78.5t4.5 -49t9 -27.5t14.5 -15
q-4 -35 -13 -58t-28 -42q-19 19 -28 42t-13 58q9 6 15 15t9 27.5t4 49t1 78.5h-23q-1 -25 -7.5 -51t-19 -47.5t-30.5 -35.5t-43 -14q-26 0 -41.5 13.5t-15.5 42.5q0 42 36 42q14 0 22.5 -8.5t8.5 -25.5t-16 -18q6 4 6 13q0 8 -3.5 13t-11.5 5q-11 0 -15 -7t-4 -17
q0 -21 12 -29.5t27 -8.5q19 0 34 13t25.5 32.5t16 43t6.5 45.5q-24 1 -38.5 9t-16.5 26q15 -19 55 -22q-2 41 -11.5 76.5t-26 62t-39.5 41.5t-53 15q-33 0 -53 -21t-20 -57q0 -26 11.5 -46t36.5 -20q17 0 27 9.5t10 26.5q0 23 -20 23q-9 0 -12.5 -4.5t-3.5 -10.5q-3 1 -3 7
q0 8 6.5 14.5t23.5 6.5q19 0 27 -11t8 -27q0 -11 -3.5 -22.5t-11.5 -22t-20.5 -17t-31.5 -6.5q-39 0 -61.5 27.5t-22.5 74.5q0 26 9 46t23.5 34t34 21t40.5 7q36 0 63 -17.5t46 -48t29 -72t11 -89.5h23q0 47 -1.5 75.5t-3.5 45.5q-5 35 -17 79t-12 95q0 21 3 45t9 47
t14.5 44.5t19.5 37.5z" />
    <glyph glyph-name="uniE005" unicode="[fleur&#x36;]" horiz-adv-x="652" 
d="M326 725q62 -67 62 -179q0 -42 -7.5 -77.5t-16 -70t-16 -71t-7.5 -80.5h19q-2 45 9.5 81.5t32.5 62t49 39.5t59 14q43 0 70.5 -32t27.5 -80q0 -24 -7 -42.5t-18 -31t-25 -19t-28 -6.5t-30 6.5t-19 23.5q9 -13 29 -13q23 0 36.5 21t13.5 48q0 29 -15.5 51t-48.5 22
q-45 0 -78 -37.5t-34 -107.5h44q9 0 9 -9v-11q0 -8 -9 -8h-42q10 -73 53 -73q21 0 30.5 14.5t1.5 37.5q9 -6 12.5 -16.5t3.5 -21.5q0 -17 -12.5 -31t-34.5 -14q-67 0 -78 104h-21q1 -63 13 -91t40 -32q-12 -3 -22.5 -10t-19.5 -22t-15.5 -39t-10.5 -61q-4 37 -10.5 61
t-15.5 39t-19.5 22t-22.5 10q27 4 40 32t13 91h-21q-5 -51 -25.5 -77.5t-52.5 -26.5q-22 0 -34.5 14t-12.5 31q0 11 3.5 21.5t12.5 16.5q-8 -23 2 -37.5t31 -14.5q42 0 52 73h-42q-9 0 -9 8v11q0 9 9 9h43q-1 70 -33.5 107.5t-77.5 37.5q-33 0 -49 -22t-16 -51q0 -27 14 -48
t37 -21q20 0 29 13q-3 -17 -19 -23.5t-30 -6.5t-28 6.5t-25 19t-18 31t-7 42.5q0 48 27.5 80t71.5 32q31 0 58.5 -14t48.5 -39.5t32.5 -62t9.5 -81.5h19q0 44 -7.5 80.5t-16 71t-16 70t-7.5 77.5q0 112 62 179zM418 232q4 0 4 4q0 3 -4 3h-185q-4 0 -4 -3q0 -4 4 -4h185z
" />
    <glyph glyph-name="uniE006" unicode="[fleur&#x37;]" horiz-adv-x="628" 
d="M314 719q18 -24 29 -44.5t17 -40t8.5 -39.5t2.5 -42q0 -46 -7 -86t-15.5 -78t-15.5 -76t-7 -79h-24q0 41 -7 79t-15.5 76t-15.5 78t-7 86q0 22 2.5 42t8.5 39.5t17 40t29 44.5zM268 234q-3 37 -13 70t-25 57.5t-35 38.5t-43 14q-26 0 -39 -16t-13 -44q0 -18 5 -30.5
t13 -20.5t17.5 -11.5t18.5 -3.5q17 0 23.5 8.5t5.5 20.5q5 -3 7 -8t2 -10q0 -13 -10.5 -22t-24.5 -8q19 -19 19 -46q0 -20 -12 -36.5t-36 -16.5q-14 0 -24.5 6.5t-13.5 23.5q11 -14 24 -14q14 0 23 9.5t9 26.5q0 21 -15.5 35t-36.5 28q5 -17 0.5 -31.5t-16.5 -14.5
q-4 0 -9 4q9 0 12 6t3 15q0 17 -10 28q-12 14 -21 33t-9 51q0 45 24.5 76t69.5 31q36 0 63 -20.5t45.5 -54.5t29 -79.5t12.5 -94.5h-20zM340 234q2 49 12.5 94.5t29 79.5t45.5 54.5t63 20.5q45 0 69.5 -31t24.5 -76q0 -32 -9 -51t-21 -33q-5 -6 -7.5 -12t-2.5 -16
q0 -9 3 -15t12 -6q-4 -4 -9 -4q-13 0 -17 14.5t1 31.5q-21 -14 -37 -28t-16 -35q0 -17 9 -26.5t23 -9.5q13 0 24 14q-3 -17 -13 -23.5t-24 -6.5q-24 0 -36 16.5t-12 36.5q0 27 19 46q-14 -1 -25 8t-11 22q0 5 2.5 10t7.5 8q-1 -12 5.5 -20.5t23.5 -8.5q9 0 18.5 3.5
t17.5 11.5t13.5 20.5t5.5 30.5q0 28 -14 44t-40 16q-23 0 -42.5 -14t-34.5 -38.5t-25 -57.5t-13 -70h-20zM315 307q4 30 10.5 59.5t13 59.5t11.5 61.5t5 65.5q0 37 -7.5 68.5t-32.5 67.5v-382zM292 195q0 -28 -5.5 -54t-16 -46t-26.5 -32t-38 -12q-26 0 -46 16.5t-20 48.5
q0 22 10 39t36 17q11 0 19 -8t3 -20q-3 13 -18 13q-14 0 -21 -10.5t-7 -21.5q0 -17 12 -28.5t31 -11.5q16 0 27.5 9t19.5 24t12.5 35t5.5 42h22zM323 195q1 -45 3.5 -75t7.5 -49t13.5 -29t22.5 -14q-15 -5 -24 -11t-14.5 -16t-9.5 -26t-8 -41q-4 25 -8 41t-10 26t-15 16
t-24 11q14 4 23 14t14 29t7.5 49t3.5 75h18zM357 195q1 -22 5.5 -42t12.5 -35t20 -24t28 -9q20 0 31.5 11.5t11.5 28.5q0 11 -7 21.5t-21 10.5q-16 0 -17 -13q-5 11 1.5 19.5t19.5 8.5q26 0 36 -17t10 -39q0 -32 -20 -48.5t-46 -16.5q-22 0 -38 12t-26.5 32t-15.5 46t-6 54
h21zM138 467q-38 0 -58 -26.5t-20 -64.5q0 -23 6.5 -42.5t23.5 -30.5q-10 19 -10 52q0 38 19 61t51 23q28 0 52 -19t41 -58q-15 50 -41 77.5t-64 27.5zM490 467q-39 0 -65 -27.5t-41 -78.5q17 40 41 59t53 19q32 0 51 -23t19 -61q0 -32 -11 -52q16 10 23 29.5t7 43.5
q0 38 -20 64.5t-57 26.5zM363 225q14 0 29 -12q-17 -10 -29 -10h-98q-12 0 -30 10q16 12 30 12h98zM205 74q-17 0 -31 6.5t-19 23.5q-2 -20 14.5 -30.5t35.5 -10.5q27 0 42.5 21t20.5 50q-7 -23 -24 -41.5t-39 -18.5zM423 74q-23 0 -40 18.5t-23 41.5q2 -12 6.5 -25t12 -23
t18.5 -16.5t26 -6.5q20 0 33.5 10t16.5 31q-5 -17 -19 -23.5t-31 -6.5zM338 30q-18 18 -23 56v-81q7 15 23 25zM379 213q-3 4 -10 4.5t-14 0.5h-82q-7 0 -14 -0.5t-11 -4.5h131z" />
    <glyph glyph-name="uniE007" unicode="[fleur&#x38;]" horiz-adv-x="648" 
d="M324 726q9 -130 32.5 -206.5t42.5 -93.5q-29 -30 -45.5 -97t-16.5 -151h14q3 43 14 82t30 68t46 46t61 17q24 0 42.5 -10.5t32 -28t20.5 -40t7 -46.5q0 -37 -17.5 -73t-61.5 -55q11 17 15 31.5t4 28.5q0 38 -21 61.5t-61 23.5q-31 0 -56.5 -25t-27.5 -81q20 -1 29.5 -8.5
t10.5 -27.5q-7 9 -15 12.5t-25 3.5q1 -13 3.5 -28.5t7.5 -29.5t13 -23.5t19 -9.5q20 0 20 20q0 7 -3 12.5t-10 5.5q-11 0 -11 -14q-6 3 -6 12q0 10 7 15t17 5q23 0 32 -13.5t9 -29.5q0 -20 -12.5 -34.5t-34.5 -14.5t-36.5 15t-23.5 35t-13 41.5t-5 35.5h-14q0 -28 5 -48.5
t13 -42.5q-24 -28 -31 -96q-7 68 -31 96q8 22 13 42.5t5 48.5h-14q-1 -14 -5 -35.5t-12.5 -41.5t-23.5 -35t-37 -15t-34 14.5t-12 34.5q0 16 10 29.5t31 13.5q9 0 15.5 -5t6.5 -16q0 -7 -5 -11q2 14 -11 14q-7 0 -10 -5.5t-3 -12.5q0 -11 6 -15.5t14 -4.5q11 0 19 9.5
t13 23.5t7.5 29.5t3.5 28.5q-17 0 -25.5 -3.5t-14.5 -12.5q1 20 10.5 27.5t29.5 8.5q-2 56 -27.5 81t-56.5 25q-40 0 -61 -23.5t-21 -61.5q0 -14 4 -28.5t15 -31.5q-44 19 -61.5 55t-17.5 73q0 24 7 46.5t20.5 40t32 28t42.5 10.5q34 0 61 -17t46 -46t30 -68t14 -82h14
q0 84 -17 151t-46 97q10 9 21.5 32.5t22 61.5t19 89.5t13.5 116.5zM502 372q-42 0 -70.5 -30.5t-44.5 -78.5q17 27 43 46t61 19q19 0 34 -8.5t25 -22.5t15.5 -32t5.5 -38q0 -7 -0.5 -14t-1.5 -13q8 15 12 32.5t4 33.5q0 20 -6 39t-16.5 34t-26 24t-34.5 9zM146 372
q-34 0 -55.5 -26t-26.5 -60q37 39 77 39q35 0 65.5 -16.5t53.5 -47.5q-16 48 -44 79.5t-70 31.5zM324 264q6 53 19 95t32 67q-13 20 -26.5 57.5t-24.5 91.5v-311zM334 68q-4 5 -6 11.5t-4 14.5v-43q2 5 4.5 8.5t5.5 8.5z" />
    <glyph glyph-name="uniE008" unicode="[fleur&#x39;]" horiz-adv-x="671" 
d="M335 722q13 -16 23 -37t16.5 -44.5t10 -46.5t3.5 -44q0 -51 -13 -97.5t-19 -81.5q-4 -23 -5 -54t-1 -63h22q1 44 10 84.5t27.5 72t45.5 50.5t64 19q21 0 40 -7t34 -21t24 -34.5t9 -46.5q0 -46 -22.5 -73.5t-61.5 -27.5q-19 0 -31.5 6.5t-20.5 16t-11.5 20.5t-3.5 20
q0 19 9.5 31.5t28.5 12.5q15 0 21 -6.5t6 -14.5q0 -7 -3 -8q-2 11 -11 11q-15 0 -15 -18q0 -11 7 -17.5t19 -6.5q19 0 27.5 16t8.5 36q0 28 -15.5 45.5t-46.5 17.5q-30 0 -52.5 -14.5t-38.5 -39t-25 -56.5t-10 -68q18 2 31 6.5t21 14.5q-1 -18 -15 -26t-37 -10
q1 -22 6.5 -45t15 -42t23.5 -31.5t33 -12.5q14 0 24 7.5t10 25.5t-13 18q-11 0 -11 -13q0 -6 3 -9q-15 0 -15 18q0 17 8 25.5t22 8.5q36 0 36 -43q0 -27 -15 -41t-41 -14q-25 0 -43.5 14t-30.5 35.5t-18 47.5t-7 50h-22q0 -42 1.5 -71t5 -48t10 -31t17.5 -19
q-4 -35 -15.5 -58t-33.5 -42q-22 19 -33.5 42t-16.5 58q11 7 18 19t11 31t5.5 48t1.5 71h-22q-2 -24 -8 -50t-18 -47.5t-30 -35.5t-43 -14q-26 0 -41.5 14t-15.5 41q0 43 36 43q14 0 22.5 -8.5t8.5 -25.5q0 -18 -16 -18q4 4 4 9q0 13 -11 13q-14 0 -14 -18t10 -25.5t24 -7.5
q18 0 32 12.5t24 31.5t15.5 42t6.5 45q-24 2 -37.5 10t-15.5 26q9 -10 22 -14.5t31 -6.5q-2 36 -10.5 68t-24.5 56.5t-38.5 39t-52.5 14.5q-32 0 -47 -17.5t-15 -45.5q0 -20 8 -36t28 -16q12 0 19 6.5t7 17.5q0 18 -15 18q-11 0 -11 -11q-4 2 -4 8q0 8 6 14.5t22 6.5
q19 0 28.5 -12t9.5 -29q0 -10 -3.5 -21.5t-11.5 -21.5t-21 -16.5t-32 -6.5q-38 0 -60.5 27.5t-22.5 73.5q0 26 9 46.5t24 34.5t34 21t40 7q37 0 64 -19t45.5 -50.5t28 -72t10.5 -84.5h22q0 32 -1 63t-5 54q-6 35 -19.5 81.5t-13.5 97.5q0 21 3.5 44t10 46.5t16.5 44.5t23 37
zM335 -5q12 13 18.5 29t10.5 37q-23 23 -29 68v-134zM607 371q0 44 -27 67t-61 23q-17 0 -31 -6.5t-27 -18.5q11 7 24 11t27 4q40 -1 60 -24t20 -58q0 -28 -13 -49.5t-42 -21.5q-14 0 -21 4.5t-12 15.5q0 -29 38 -29q31 0 48 22.5t17 59.5zM63 371q0 -37 17 -59.5t47 -22.5
q20 0 28.5 8t10.5 20q-10 -19 -33 -19q-29 0 -41.5 21.5t-12.5 49.5q0 35 19 58.5t61 23.5q26 0 49 -15q-25 25 -57 25q-35 0 -61.5 -23t-26.5 -67zM335 366q6 33 12 57t11 45t8 40.5t3 42.5q0 32 -7.5 68.5t-26.5 68.5v-322z" />
    <glyph glyph-name="uniE009" unicode="[fleur&#x31;&#x30;]" horiz-adv-x="652" 
d="M326 725q38 -33 58.5 -78.5t20.5 -100.5q0 -42 -9.5 -77.5t-20.5 -69.5t-20.5 -70.5t-9.5 -80.5h17q0 31 9.5 65.5t28 63.5t46.5 48t67 19q20 0 37.5 -8.5t30 -23.5t20 -35.5t7.5 -44.5q0 -25 -7 -43.5t-18.5 -31t-25.5 -18.5t-28 -6t-28.5 6.5t-19.5 21.5q6 -7 21 -7
q20 0 31 18t11 39q0 23 -11.5 41.5t-40.5 18.5q-43 0 -69 -35t-28 -88h33q9 0 9 -9v-16q0 -8 -9 -8h-32q5 -27 15 -42.5t29 -15.5q20 0 26.5 13.5t4.5 27.5q9 -6 12.5 -16.5t3.5 -21.5q0 -17 -13.5 -31t-33.5 -14q-33 0 -51.5 28t-23.5 72h-20q2 -54 17.5 -84.5t48.5 -34.5
q-14 -4 -27 -12.5t-24.5 -24t-20.5 -39t-13 -56.5q-4 33 -13 56.5t-20.5 39t-25 24t-26.5 12.5q32 4 48.5 34.5t16.5 84.5h-19q-5 -44 -24 -72t-52 -28q-20 0 -33 13.5t-13 31.5q0 11 3.5 21.5t12.5 16.5q-3 -13 3.5 -27t26.5 -14q19 0 29 15.5t15 42.5h-31q-9 0 -9 8v16
q0 9 9 9h32q-2 53 -28 88t-68 35q-29 0 -41 -18.5t-12 -41.5q0 -9 3 -19t8.5 -18.5t13.5 -14t17 -5.5q14 0 20 7q-3 -15 -18.5 -21.5t-28.5 -6.5q-14 0 -28 6t-25 18.5t-18 31t-7 43.5q0 24 7.5 44.5t20.5 35.5t30.5 23.5t37.5 8.5q36 0 64 -18t46.5 -46.5t28.5 -63
t11 -68.5h16q0 44 -9 80.5t-20.5 70.5t-20.5 69.5t-9 77.5q0 54 20.5 100.5t58.5 78.5zM326 275q4 36 12.5 68t19.5 63q11 33 19.5 67t8.5 73q0 94 -60 154v-425zM513 425q-36 0 -60 -17t-44 -48q22 20 42 28.5t44 8.5q35 0 55 -26t20 -63q0 -29 -14 -49q14 9 23.5 27
t9.5 46q0 40 -22 66.5t-54 26.5zM140 425q-29 0 -49 -21.5t-25 -53.5q14 30 30.5 38.5t38.5 8.5q20 0 39 -4.5t36 -16.5t31 -32.5t24 -52.5q-3 29 -14.5 53.5t-28 42.5t-38 28t-44.5 10zM326 42q8 19 18.5 31.5t23.5 21.5q-19 18 -28.5 42.5t-13.5 57.5v-153zM418 232
q4 0 4 3t-4 3h-185q-3 0 -3 -3t3 -3h185z" />
    <glyph glyph-name="uniE00A" unicode="[fleur&#x31;&#x31;]" horiz-adv-x="685" 
d="M342 722q17 -15 27.5 -36t16.5 -43.5t8.5 -44.5t2.5 -38q0 -43 -6.5 -82t-15 -78t-16 -80t-8.5 -87h17q4 51 19 106.5t39.5 102t57.5 76.5t75 30q39 0 60 -27.5t21 -66.5q0 -29 -9 -50t-23 -38t-30 -30.5t-30 -27.5t-23 -29.5t-9 -35.5q0 -18 8.5 -26.5t21.5 -8.5
q9 0 14 3t9 5q0 -9 -11 -16.5t-23 -7.5q-20 0 -34.5 17.5t-14.5 44.5q0 25 9.5 43.5t21.5 35t21.5 33t9.5 37.5q0 17 -7.5 28t-25.5 11q-21 0 -42.5 -18t-39.5 -47.5t-30.5 -67t-15.5 -76.5q8 0 13.5 -3.5t5.5 -8.5t-6 -9t-15 -4q0 -15 2.5 -34.5t7.5 -37.5t13.5 -30
t21.5 -12q10 0 20.5 11.5t9.5 46.5q11 -18 11 -36q0 -16 -10 -33.5t-31 -17.5q-18 0 -30 14.5t-19.5 36t-10.5 46.5t-3 46h-16q0 -38 2 -62t4.5 -41t4 -31t1.5 -32q0 -42 -21 -71q-11 14 -16 32.5t-5 38.5q0 18 1.5 32t4 31t4.5 41t2 62h-16q0 -21 -3.5 -46t-11 -46.5
t-19.5 -36t-30 -14.5q-20 0 -30 17.5t-10 33.5q0 18 11 36q-1 -35 9 -46.5t20 -11.5q13 0 21.5 12t14 30t7.5 37.5t2 34.5q-9 0 -14.5 4t-5.5 9t5.5 8.5t13.5 3.5q-4 39 -16.5 76.5t-30.5 67t-39 47.5t-42 18q-18 0 -25.5 -11t-7.5 -28q0 -21 9.5 -37.5t21 -33t21 -35
t9.5 -43.5q0 -27 -14.5 -44.5t-34.5 -17.5q-13 0 -23.5 7.5t-10.5 16.5q4 -2 9 -5t14 -3q14 0 22 8.5t8 26.5q0 30 -19 50.5t-42.5 42t-42.5 48.5t-19 70q0 39 20.5 66.5t59.5 27.5q42 0 75 -30t57.5 -76.5t39.5 -102t20 -106.5h17q-2 46 -9.5 87t-15.5 80t-15 78t-7 82
q0 16 2.5 38t8.5 44.5t17 43.5t28 36z" />
    <glyph glyph-name="uniE00B" unicode="[fleur&#x31;&#x32;]" horiz-adv-x="661" 
d="M330 741q13 -3 23.5 -19t17.5 -38t10.5 -46t3.5 -43q0 -33 -6 -73t-13 -81.5t-13 -81t-6 -72.5l18 2q1 34 11.5 78t30.5 82.5t49 65t68 26.5t66 -26t27 -68q0 -24 -7 -39.5t-16 -26.5t-16 -21.5t-7 -25.5q0 -18 13 -27q-16 -1 -22.5 15t-0.5 33q-26 -17 -35.5 -33.5
t-9.5 -34.5q0 -17 8.5 -23.5t16.5 -6.5q10 0 18.5 6t7.5 23q3 -2 4 -6.5t1 -7.5q0 -14 -9 -25.5t-28 -11.5q-23 0 -35 16t-12 41q0 27 19 46q-20 -2 -31 8.5t-11 24.5q0 17 12 24q-4 -20 5 -28.5t22 -8.5q9 0 19.5 4.5t20 13.5t15.5 22t6 30q0 29 -15 42t-37 13
q-30 0 -53.5 -21.5t-39.5 -52t-25 -63.5t-11 -56q21 -2 21 -13q0 -12 -21 -14q2 -44 20 -74.5t48 -30.5q15 0 24.5 10t9.5 27q0 32 -25 32q-6 0 -11 -2.5t-10 -10.5q0 16 9 22t20 6q20 0 33 -14t13 -39q0 -28 -16 -47.5t-49 -19.5q-24 0 -40 13.5t-25.5 34.5t-14 46t-5.5 48
l-18 2q0 -157 53 -176q-34 -6 -47.5 -32t-22.5 -82q-8 57 -21.5 82.5t-47.5 31.5q52 19 53 176l-18 -2q-1 -23 -5.5 -48t-14 -46t-25.5 -34.5t-40 -13.5q-33 0 -49 19.5t-16 47.5q0 25 13 39t33 14q11 0 20 -6t9 -22q-5 8 -10.5 10.5t-10.5 2.5q-25 0 -25 -32q0 -17 9.5 -27
t23.5 -10q30 0 48 30.5t20 74.5q-21 2 -21 14q0 11 21 13q-2 23 -11 56t-25 63.5t-39.5 52t-53.5 21.5q-22 0 -36.5 -13t-14.5 -42q0 -17 6 -30t15 -22t19.5 -13.5t19.5 -4.5q14 0 23 8.5t5 28.5q12 -8 12 -24q0 -14 -11 -24.5t-31 -8.5q19 -19 19 -46q0 -25 -12.5 -41
t-35.5 -16q-19 0 -27.5 11.5t-8.5 25.5q0 3 0.5 7.5t3.5 6.5q-1 -17 7 -23t19 -6q8 0 16.5 6.5t8.5 23.5q0 18 -10 34.5t-35 33.5q6 -17 -0.5 -33t-21.5 -15q13 10 13 27q0 15 -7 25.5t-16 21.5t-16 26.5t-7 39.5q0 42 27 68t65 26q39 0 68.5 -26.5t49 -65t30 -82.5
t12.5 -78l18 -2q0 33 -6 72.5t-13.5 81t-13.5 81.5t-6 73q0 19 4 43t11 46t17 38t23 19z" />
    <glyph glyph-name="uniE00C" unicode="[fleur&#x31;&#x33;]" horiz-adv-x="660" 
d="M329 720q27 0 49 -30t22 -98q0 -35 -6 -75t-14 -81.5t-16 -82.5t-12 -79q15 29 32 57t37.5 50.5t45 36.5t54.5 14q42 0 68 -23.5t26 -68.5q0 -24 -8 -41t-20 -28.5t-27 -16.5t-30 -5q-21 0 -36.5 7.5t-29.5 7.5q-11 0 -16 -6t-5 -13q0 -9 5 -14t12 -6t14 2.5t11 11.5
q5 -16 -7 -26.5t-32 -10.5t-32.5 11.5t-12.5 30.5q0 17 11.5 35t37.5 18q9 0 19.5 -2.5t23.5 -9.5q2 23 -8.5 34.5t-26.5 11.5q-13 0 -28.5 -7.5t-29.5 -21t-26 -34t-18 -45.5q8 -3 12.5 -9.5t4.5 -13t-4.5 -11.5t-14.5 -6q0 -26 12 -47t32 -35q7 -8 17 -12t21 -4t19.5 5.5
t8.5 17.5q0 14 -10 19.5t-22 -1.5q0 9 9.5 14t18.5 5q11 0 23 -9.5t12 -30.5q0 -24 -16.5 -38t-39.5 -14q-18 0 -37 9.5t-36 30.5q2 -17 3.5 -30t1.5 -24q0 -38 -12.5 -51.5t-29.5 -15.5q-17 2 -29 15t-12 51q0 11 1.5 24.5t3.5 30.5q-17 -21 -36 -30.5t-37 -9.5
q-23 0 -39.5 14t-16.5 38q0 21 12 30.5t23 9.5q9 0 18 -5t9 -14q-11 7 -21 1.5t-10 -19.5q0 -12 8.5 -17.5t19.5 -5.5t21 4t17 12q20 14 32 35t12 47q-10 1 -14.5 6t-4.5 11.5t4.5 13t12.5 9.5q-6 25 -18 45.5t-26.5 34t-29.5 21t-28 7.5q-16 0 -26.5 -11.5t-8.5 -34.5
q13 7 23.5 9.5t19.5 2.5q26 0 37.5 -18t11.5 -35q0 -19 -12.5 -30.5t-32.5 -11.5t-32 10.5t-7 26.5q4 -8 11 -11.5t14 -2.5t12 6t5 14q0 7 -5 13t-16 6q-14 0 -29.5 -7.5t-36.5 -7.5q-15 0 -30 5t-27 16.5t-20 28.5t-8 41q0 45 26 68.5t68 23.5q30 0 54.5 -14t45 -36.5
t37.5 -50.5t32 -57q-4 38 -12 79t-16 82.5t-14 81.5t-6 75q0 68 21.5 98t48.5 30z" />
    <glyph glyph-name="uniE00D" unicode="[fleur&#x31;&#x34;]" horiz-adv-x="759" 
d="M380 710q23 -47 37 -104.5t14 -114.5q0 -34 -7.5 -74t-15.5 -71q13 31 30 59t37.5 49.5t45.5 34.5t56 13q33 0 58.5 -13t43.5 -33.5t27 -47t9 -53.5q0 -32 -13.5 -59t-42.5 -43q6 10 9 19.5t3 23.5q0 28 -9 49.5t-24 36.5t-34 22.5t-38 7.5q-23 0 -47 -9.5t-44 -27
t-35 -42.5t-21 -55q8 -9 11.5 -20.5t3.5 -22.5q0 -15 -6 -28.5t-18 -22.5q1 -45 15.5 -65.5t39.5 -20.5t37 16t14 39q10 -6 14 -17.5t4 -24.5q0 -24 -15.5 -44t-47.5 -20q-15 0 -25.5 5t-18 13t-12.5 17.5t-9 17.5q1 -8 1 -15.5v-14.5q0 -28 -7.5 -57t-19.5 -48
q-14 19 -21.5 48t-7.5 57q0 7 0.5 14.5t2.5 15.5q-5 -9 -10.5 -18t-13 -17t-17.5 -13t-25 -5q-32 0 -47.5 20t-15.5 44q0 13 4 24.5t14 17.5q-2 -21 12.5 -38t38.5 -17t38.5 20.5t16.5 65.5q-12 9 -18 22.5t-6 28.5q0 11 3.5 22.5t11.5 20.5q-6 30 -21 55t-35 42.5t-44 27
t-48 9.5q-19 0 -37.5 -7.5t-33.5 -22.5t-24.5 -36.5t-9.5 -49.5q0 -14 3 -23.5t10 -19.5q-29 16 -42.5 43t-13.5 59q0 27 9 53.5t26.5 47t43 33.5t58.5 13q31 0 56.5 -13t46 -34.5t37 -49.5t30.5 -59q-8 31 -15.5 71t-7.5 74q0 57 13.5 114.5t38.5 104.5zM465 79
q-16 0 -29 6q5 -8 13 -13.5t22 -5.5q19 0 29.5 9t13.5 23q-9 -11 -22 -15t-27 -4zM294 79q-31 0 -49 17q4 -13 14.5 -21.5t28.5 -8.5q13 0 21 5.5t14 13.5q-12 -6 -29 -6zM380 9q4 14 6.5 30t2.5 31q0 6 -0.5 20.5t-2.5 25.5q6 -2 14 -5t16 -3q-11 14 -18.5 38.5t-8.5 53.5
q11 7 18.5 16.5t7.5 21.5q0 35 -35 38v-267zM380 333q13 45 22.5 86t9.5 72q0 45 -8.5 89.5t-23.5 83.5v-331zM181 483q-46 0 -75 -26.5t-38 -62.5q43 48 100 48q47 0 89 -26t73 -66q-13 27 -28 51t-33.5 42.5t-40 29t-47.5 10.5zM577 483q-26 0 -47 -10.5t-39 -28t-33 -41
t-28 -49.5q26 40 58.5 62.5t71.5 22.5q51 0 87 -31t41 -91q8 18 8 38q0 24 -8 47t-23 41t-37.5 29t-50.5 11z" />
    <glyph glyph-name="uniE00E" unicode="[fleur&#x31;&#x35;]" horiz-adv-x="621" 
d="M310 721q7 -11 13 -26t10 -32t6 -35t2 -34q0 -21 -3 -44t-7.5 -59t-8.5 -91.5t-5 -141.5h-14q-2 86 -5.5 141.5t-7.5 91.5t-7 59t-3 44q0 16 2 34t6 35t9.5 32t12.5 26zM242 258q-2 24 -10.5 56t-24 60t-38 47.5t-52.5 19.5q-34 0 -34 -28q0 -20 23 -26q-3 -1 -5.5 -1.5
t-6.5 -0.5q-21 0 -35.5 16.5t-14.5 39.5q0 15 6 24.5t15 15t20 7.5t20 2q33 0 60.5 -19t46.5 -51.5t29.5 -74.5t10.5 -87h-10zM368 258q0 45 10.5 87t29.5 74.5t46.5 51.5t60.5 19q9 0 19.5 -2t19.5 -7t15.5 -15t6.5 -25q0 -23 -14.5 -39.5t-36.5 -16.5q-5 0 -6.5 0.5
t-3.5 1.5q22 6 22 26q0 28 -34 28q-30 0 -52.5 -19.5t-38 -47.5t-24.5 -60t-10 -56h-10zM322 211q1 -45 3 -72.5t4 -45t3 -27.5t1 -20q0 -21 -6 -40.5t-17 -34.5q-11 15 -17 34.5t-6 40.5q0 10 1.5 20t3 27.5t3.5 45t3 72.5h24zM396 247q7 0 10 -4t3 -8.5t-3 -8t-10 -3.5
h-174q-6 0 -9.5 3.5t-3.5 8t3 8.5t10 4h174zM266 211q0 -15 -4 -34.5t-13 -33.5q5 -9 3.5 -19.5t-8 -18t-16.5 -10.5t-21 2q-10 -10 -26 -12t-26 12q38 4 61.5 35t25.5 79h24zM378 211q2 -48 25.5 -79t61.5 -35q-4 -7 -10.5 -9.5t-14 -2t-14.5 3.5t-12 8q-11 -6 -21 -3
t-16.5 11t-8.5 18.5t4 19.5q-9 14 -13 33.5t-4 34.5h23zM291 352q1 -5 1 -8.5v-7.5h-37v8t-2 8h38zM368 352q-3 -8 -3 -16h-37v7.5t1 8.5h39z" />
    <glyph glyph-name="uniE00F" unicode="[fleur&#x31;&#x36;]" horiz-adv-x="685" 
d="M342 722q20 -15 32.5 -36t19 -43.5t9 -44t2.5 -36.5q0 -48 -7.5 -87t-17 -76.5t-18 -76.5t-9.5 -87h15q4 48 19 102.5t40 101.5t58.5 78t75.5 31q39 0 59 -28t20 -66q0 -30 -9 -51t-22 -38t-29 -30.5t-29 -27t-22 -29t-9 -35.5q0 -18 8.5 -25.5t20.5 -7.5q11 0 20 5
q0 -9 -12 -16t-21 -7q-6 0 -14.5 4t-16 12t-13 19.5t-5.5 27.5q0 23 7 39.5t15.5 29.5t15.5 25t7 27q0 14 -6.5 25t-24.5 11q-21 0 -40 -16.5t-34 -42.5t-25.5 -57t-13.5 -61q8 0 13 -4.5t5 -9.5t-5 -10t-15 -5q0 -16 2 -35t7 -35t13 -26.5t21 -10.5q11 0 21 11t11 42
q11 -20 11 -36q0 -15 -10 -33t-32 -18q-18 0 -30.5 13t-20 33t-10.5 45.5t-3 49.5h-13q0 -39 2.5 -61.5t5 -38.5t4.5 -29.5t2 -34.5t-7 -39.5t-18 -31.5q-11 13 -18 31.5t-7 39.5t2 34.5t4.5 29.5t5 38.5t3.5 61.5h-14q0 -24 -3.5 -49.5t-11 -45.5t-20 -33t-30.5 -13
q-20 0 -30 18t-10 33q0 18 11 36q1 -31 10 -42t19 -11q13 0 21.5 10.5t13 26.5t6.5 35t2 35q-9 0 -13.5 5t-4.5 10t4.5 9.5t12.5 4.5q-3 30 -13.5 61t-25.5 57t-34 42.5t-39 16.5q-17 0 -23.5 -11t-6.5 -25q0 -15 7 -27t15 -25t15 -29t7 -40q0 -23 -14.5 -43t-35.5 -20
q-9 0 -21 7t-12 16q7 -6 20 -6q12 0 20.5 7.5t8.5 26.5q0 30 -18.5 50.5t-41 41.5t-41 48t-18.5 71q0 38 19.5 66t57.5 28q42 0 76.5 -31t59 -78t40 -101.5t20.5 -102.5h15q-2 48 -11 87t-18.5 76.5t-17.5 76.5t-8 87q0 15 2.5 36.5t10 44t20 43.5t32.5 36zM342 314
q5 32 13 61.5t15 59t12 61t5 66.5q0 13 -1.5 30.5t-6.5 36t-14 36.5t-23 32v-383zM561 529q-32 0 -58 -21.5t-46 -56.5q40 37 76 37q29 0 45 -21t16 -53q0 -12 -2.5 -23t-7.5 -22q15 14 25.5 35.5t10.5 48.5q0 30 -14.5 53t-44.5 23zM121 529q-26 0 -40.5 -19t-16.5 -46
q15 28 39 28q41 0 84.5 -36t78.5 -95q-11 33 -26 63.5t-33.5 54t-40 37t-45.5 13.5zM342 0q5 8 8.5 21t3.5 25q0 17 -3.5 36.5t-8.5 43.5v-126zM397 222q-3 5 -9 6t-11 1h-71q-5 0 -11 -1t-10 -6h112z" />
    <glyph glyph-name="uniE010" unicode="[fleur&#x31;&#x37;]" horiz-adv-x="661" 
d="M330 741q15 -3 26.5 -19t20 -38t13 -46t4.5 -43q0 -33 -7 -71t-15 -78t-15 -79.5t-7 -76.5l14 1q2 37 12.5 81t30 81.5t48.5 62.5t68 25q40 0 67 -27t27 -69q0 -25 -7 -39.5t-15 -25.5t-15 -21t-7 -25q0 -16 11 -27q-17 1 -21.5 15.5t-2.5 28.5q-18 -14 -27.5 -29
t-9.5 -33q0 -14 7 -20t15 -6q9 0 15 5.5t6 17.5q4 -3 5 -7.5t1 -7.5q0 -14 -10 -25t-27 -11q-23 0 -35 17.5t-12 41.5q0 11 3 22t11 21q-17 0 -27 10t-10 24q0 17 12 24q-3 -14 5 -23.5t22 -9.5q15 0 30.5 15.5t15.5 40.5q0 24 -12.5 37.5t-33.5 13.5q-27 0 -48.5 -19.5
t-36.5 -47t-23.5 -58t-10.5 -52.5q20 -2 20 -15t-20 -16q4 -42 21 -68t44 -26q13 0 21 8t8 22q0 27 -22 27q-9 0 -18 -10q0 16 9.5 22t20.5 6q20 0 32.5 -14.5t12.5 -39.5q0 -28 -16 -47t-49 -19q-25 0 -41 13.5t-25.5 34t-13.5 45t-5 46.5l-14 3q1 -80 16.5 -121t44.5 -53
q-38 -7 -54.5 -36t-26.5 -78q-9 49 -25.5 78t-56.5 36q29 12 45 53t18 121l-14 -3q-1 -22 -5 -46.5t-13.5 -45t-25.5 -34t-41 -13.5q-33 0 -49.5 19t-16.5 48q0 25 13 39t33 14q11 0 20 -6t9 -22q-8 10 -18 10q-21 0 -21 -27q0 -14 7.5 -22t20.5 -8q26 0 43 25t21 69
q-19 3 -19 16t19 15q-2 22 -10.5 52.5t-23.5 58t-35.5 47t-47.5 19.5q-23 0 -35.5 -13.5t-12.5 -36.5q0 -25 16 -41t32 -16q14 0 21.5 9t5.5 24q12 -8 12 -24q0 -13 -9.5 -23.5t-27.5 -10.5q14 -18 14 -44q0 -23 -13 -40.5t-36 -17.5q-17 0 -26 11.5t-9 25.5q0 4 0.5 8
t3.5 6q1 -9 5.5 -16t15.5 -7q5 0 13.5 5t8.5 21t-8.5 31t-28.5 31q2 -13 -1.5 -27.5t-20.5 -16.5q11 13 11 28q0 14 -7 24t-15 20.5t-15 25.5t-7 40q0 42 26.5 69t67.5 27q38 0 67 -25t49 -62.5t30.5 -81.5t12.5 -81l14 -1q0 37 -7 76.5t-16 79.5t-16 78t-7 71q0 19 4.5 43
t13 46t20.5 38t27 19zM330 46q13 35 43 51q-16 18 -27 49t-16 79v-179zM138 522q-28 0 -47 -16.5t-24 -45.5q11 18 26.5 25t35.5 7q75 0 119 -78q-17 45 -44.5 76.5t-65.5 31.5zM524 522q-21 0 -44.5 -12.5t-40.5 -43.5q13 15 28.5 20t29.5 5q34 0 54 -19t20 -49
q0 -18 -8 -31t-19 -26q-7 -8 -15 -17t-14 -20t-9 -23.5t2 -27.5q-2 26 11.5 45.5t30.5 36.5q18 18 33 37.5t15 48.5q0 32 -21.5 54t-52.5 22zM330 326q3 37 11 71.5t15.5 67.5t13.5 64.5t6 62.5q0 18 -3 39.5t-9 40t-14.5 32.5t-19.5 18v-396z" />
    <glyph glyph-name="uniE011" unicode="[fleur&#x31;&#x38;]" horiz-adv-x="660" 
d="M329 720q34 0 59.5 -39.5t25.5 -107.5q0 -35 -7.5 -68.5t-17 -66.5t-19.5 -67.5t-15 -72.5q18 28 36 52.5t37.5 42.5t41.5 28.5t49 10.5q44 0 70 -24t26 -68q0 -24 -8 -41.5t-20.5 -28.5t-27.5 -16t-30 -5q-17 0 -33.5 5t-26.5 5t-14.5 -5t-4.5 -11q0 -7 4 -10.5t10 -3.5
t12 2.5t9 7.5q2 -16 -8 -26.5t-31 -10.5q-20 0 -32.5 11t-12.5 30q0 20 15 32.5t39 12.5q16 0 34 -6q-8 17 -19 24t-24 7t-26.5 -6.5t-25 -18t-20.5 -27t-12 -32.5q10 0 15 -7.5t5 -17.5t-5.5 -18.5t-16.5 -8.5q0 -13 4.5 -28.5t13.5 -28.5t21.5 -22t28.5 -9q11 0 18.5 5
t7.5 15q0 8 -6 14.5t-16 2.5q0 9 9.5 14t17.5 5q11 0 23.5 -9t12.5 -34q0 -27 -16.5 -38.5t-38.5 -11.5q-16 0 -32 5t-29 15q3 -15 2.5 -31.5t-6.5 -31t-17.5 -24.5t-28.5 -13q-17 2 -28 12t-17 24t-7 31t2 33q-13 -9 -29.5 -14.5t-32.5 -5.5q-22 0 -37.5 11.5t-15.5 38.5
q0 25 12 34t23 9q9 0 18 -5t9 -14q-9 2 -15 -2.5t-6 -13.5q0 -21 25 -21q15 0 28 8.5t22 22t14 28.5t5 29q-11 0 -16.5 8.5t-5.5 18.5t5 17.5t15 7.5q-3 17 -12 32.5t-20.5 27t-25 18t-26.5 6.5t-24 -7t-19 -24q17 7 33 7q23 0 39 -13t16 -33t-13 -30.5t-31 -10.5
q-19 0 -32.5 10t-7.5 27q6 -11 20 -10.5t14 14.5q0 6 -4 11t-14 5q-11 0 -27.5 -5t-33.5 -5q-14 0 -29 5t-27.5 16t-20.5 28.5t-8 41.5q0 45 26 68.5t70 23.5q27 0 49 -10.5t41.5 -28.5t37 -42.5t35.5 -52.5q-5 38 -14.5 72.5t-19.5 67.5t-17 66.5t-7 68.5q0 34 7 61
t18.5 46t26.5 29.5t32 10.5zM330 285q9 54 20 92.5t20.5 70.5t16.5 61.5t7 65.5q0 56 -18.5 91.5t-45.5 35.5v-417zM141 413q-60 0 -75 -46q31 19 61 19q48 0 84.5 -24t66.5 -56q-31 48 -63 77.5t-74 29.5zM518 413q-60 0 -110 -65q26 18 47.5 28t43.5 10q38 0 59 -19.5
t21 -57.5q0 -13 -5 -23q23 18 23 52q0 38 -21.5 56.5t-57.5 18.5zM329 -10q21 5 29 20.5t8 34.5q0 17 -4.5 34.5t-9.5 31.5q5 -4 12 -8.5t12 -6.5q-22 23 -32 52.5t-10 58.5q9 0 19.5 -1t15.5 -4q0 11 -8.5 15t-31.5 4v-231zM181 104q0 -14 9 -22.5t23 -7.5q-28 9 -22 48
q-10 -7 -10 -18zM479 108q0 18 -17 20q9 -11 5.5 -27t-11.5 -24q23 9 23 31z" />
    <glyph glyph-name="uniE012" unicode="[fleur&#x31;&#x39;]" horiz-adv-x="650" 
d="M325 721q11 -11 20 -26t15 -32t9 -35t3 -34q0 -21 -5 -43t-11 -57t-12 -89.5t-9 -140.5h-20q-3 86 -9 140.5t-12 89.5t-11 57t-5 43q0 16 3 34t9 35t15 32t20 26zM247 264q-2 24 -10.5 53t-24.5 53.5t-39 41t-52 16.5q-19 0 -24.5 -6.5t-5.5 -15.5q0 -6 2 -10t5 -9
q-5 -2 -14 -2q-21 0 -37.5 17.5t-16.5 40.5q0 15 6.5 24t16.5 14t22 7t22 2q37 0 67.5 -18t52 -49t33 -72t11.5 -87h-14zM389 264q0 46 11.5 87t33 72t51.5 49t67 18q9 0 21 -1.5t22.5 -7t17.5 -14.5t7 -24q0 -23 -17 -40.5t-41 -17.5q-5 0 -6.5 0.5t-3.5 1.5q2 5 4 9t2 10
q0 9 -5.5 15.5t-23.5 6.5q-29 0 -52 -16.5t-39 -41t-25.5 -53t-10.5 -53.5h-13zM301 356q3 -12 3 -24h-38q0 13 -4 24h39zM388 356q-4 -11 -4 -24h-38q0 12 3 24h39zM414 252q11 0 16 -6.5t5 -14.5t-5 -14t-16 -6h-178q-11 0 -16 6.5t-5 14.5t5 14t16 6h178zM291 198
q0 -32 -16 -49q10 -13 8 -27t-11 -24t-23 -13t-28 5q-18 -10 -34 -10q-20 0 -34 17q37 10 63.5 35.5t31.5 65.5h43zM346 198q2 -45 4.5 -70.5t4.5 -40.5t3.5 -22.5t1.5 -16.5q0 -45 -35 -77q-17 15 -26 34.5t-9 42.5q0 9 1.5 16.5t3.5 22.5t4.5 40.5t4.5 70.5h42zM401 198
q5 -40 32 -65.5t64 -35.5q-13 -17 -34 -17q-14 0 -34 10q-14 -9 -27.5 -6t-22.5 12.5t-11.5 24t7.5 28.5q-16 17 -16 49h42zM324 451q4 27 8.5 47t8 37t5.5 32t2 31q0 19 -6.5 42t-17.5 43v-232zM69 413q2 15 11.5 27t37.5 12q24 0 49 -11q-15 11 -33.5 18t-39.5 7
q-5 0 -12 -1t-13.5 -3.5t-11 -7.5t-4.5 -12q0 -9 4.5 -16.5t11.5 -12.5zM482 441q27 11 50 11q27 0 36.5 -12t11.5 -27q17 11 17 29q0 7 -4.5 12t-11.5 7.5t-14 3.5t-12 1q-20 0 -38 -7t-35 -18zM414 234q0 4 -5 4h-168q-4 0 -4 -4h177zM231 112q7 -5 13 -5q5 0 10.5 5
t5.5 15q0 1 -1.5 3.5t-6.5 7.5zM325 8q11 17 11 40q0 3 -1 7.5t-2.5 13.5t-3.5 25.5t-4 44.5v-131zM396 138q-4 -5 -5 -7.5t-1 -3.5q0 -10 5 -15t10 -5q7 0 14 5q-12 11 -23 26z" />
    <glyph glyph-name="uniE013" unicode="[fleur&#x32;&#x30;]" horiz-adv-x="368" 
d="M179 709q31 -34 31 -90q0 -21 -3.5 -41.5t-8 -40t-8 -36.5t-3.5 -31h14q0 12 5 28.5t14 32.5t22 27t30 11q19 0 32.5 -15t13.5 -40t-12.5 -37.5t-26.5 -12.5q-8 0 -15 4t-9 12q6 -7 14 -7q12 0 17.5 11.5t5.5 22.5q0 31 -25 31q-13 0 -22.5 -8t-15.5 -19t-9.5 -22.5
t-3.5 -18.5h15q3 0 3 -3v-7q0 -2 -3 -2h-15q1 -11 5.5 -22.5t15.5 -11.5q8 0 12.5 6t0.5 18q5 -3 7 -8t2 -10q0 -10 -7 -16.5t-15 -6.5q-18 0 -25.5 17t-9.5 34h-15q0 -66 6.5 -94.5t18.5 -30.5q-12 -3 -18.5 -31t-6.5 -94h15q2 16 9.5 33t25.5 17q8 0 15 -6.5t7 -15.5
q0 -5 -2 -10t-7 -8q4 12 -0.5 18t-12.5 6q-11 0 -15.5 -11.5t-5.5 -22.5h15q3 0 3 -3v-6q0 -3 -3 -3h-15q0 -7 3.5 -18.5t9.5 -23t15.5 -19.5t22.5 -8q12 0 18.5 8.5t6.5 22.5q0 11 -5.5 22.5t-17.5 11.5q-9 0 -14 -6q2 8 9 12t15 4q14 0 26.5 -12.5t12.5 -37.5t-13.5 -40.5
t-32.5 -15.5q-17 0 -30 11t-22 27t-14 33t-5 29h-14q0 -14 3.5 -31t8 -36.5t8 -40t3.5 -41.5q0 -56 -31 -90q-31 32 -31 90q0 21 3.5 41.5t7.5 40t7.5 36.5t3.5 31h-15q0 -12 -5 -29t-14 -33t-22 -27t-30 -11t-31 15.5t-14 40.5t13 37.5t27 12.5q7 0 13.5 -4t8.5 -12
q-5 6 -14 6q-11 0 -16.5 -11.5t-5.5 -22.5q0 -14 6.5 -22.5t18.5 -8.5q13 0 22.5 8t15.5 19.5t9.5 23t3.5 18.5h-15q-3 0 -3 3v6q0 3 3 3h15q-1 11 -5.5 22.5t-15.5 11.5q-8 0 -13 -6t-1 -18q-5 3 -6.5 8t-1.5 10q0 9 6.5 15.5t15.5 6.5q18 0 26 -17t9 -33h15q0 66 -6.5 94
t-18.5 31q12 2 18.5 30.5t6.5 94.5h-15q-1 -17 -9 -34t-26 -17q-9 0 -15.5 6.5t-6.5 16.5q0 5 1.5 10t6.5 8q-4 -12 1 -18t13 -6q11 0 15.5 11.5t5.5 22.5h-15q-3 0 -3 2v7q0 3 3 3h15q0 7 -3.5 18.5t-9.5 22.5t-15.5 19t-22.5 8q-25 0 -25 -31q0 -11 5.5 -22.5t16.5 -11.5
q8 0 14 7q-2 -8 -8.5 -12t-13.5 -4q-14 0 -27 12.5t-13 37.5t14 40t31 15t30 -11t22 -27t14 -32.5t5 -28.5h15q0 14 -3.5 31t-7.5 36.5t-7.5 40t-3.5 41.5q0 58 31 90z" />
    <glyph glyph-name=".notdef" horiz-adv-x="624" 
d="M576 900v-1095h-530v1095h530zM212 545q18 60 40.5 90.5t54.5 30.5q35 0 54 -17t19 -46q0 -42 -12.5 -70.5t-32.5 -51t-45 -43t-49 -46t-44.5 -59.5t-32.5 -84q-3 -10 -5 -21t-4 -32l107 -31q0 11 1 21t3 19q11 43 35 72t53.5 53t61 47t57.5 53.5t42.5 72t16.5 102.5
q0 44 -21.5 79t-57 59.5t-80 37.5t-89.5 13q-39 0 -68 -15t-50 -41t-35.5 -62t-26.5 -78zM127 79q-18 -17 -18 -44q0 -12 4 -24t13 -23q21 -24 47 -24q20 0 34 14q18 18 18 47q0 25 -16 45q-20 23 -47 23q-9 0 -18 -3t-17 -11z" />
    <glyph glyph-name=".null" horiz-adv-x="62" 
 />
    <glyph glyph-name=".null" horiz-adv-x="62" 
 />
    <glyph glyph-name="nonmarkingreturn" unicode="&#xd;" horiz-adv-x="235" 
 />
    <glyph glyph-name="uni0017" horiz-adv-x="235" 
 />
    <glyph glyph-name="space" unicode=" " horiz-adv-x="235" 
 />
    <glyph glyph-name="exclam" unicode="!" horiz-adv-x="216" 
d="M76 192q-2 50 -5 118.5t-5.5 137.5t-4.5 129.5t-2 94.5q0 24 9 40t41 16q31 0 40 -15.5t9 -40.5q0 -23 -1 -58t-2.5 -77.5t-3 -89t-3.5 -92.5t-4 -88t-3 -75h-65zM108 95q19 0 33.5 -14.5t14.5 -35.5q0 -20 -14 -34.5t-34 -14.5t-34.5 14.5t-14.5 34.5q0 21 14.5 35.5
t34.5 14.5z" />
    <glyph glyph-name="quotedbl" unicode="&#x22;" horiz-adv-x="333" 
d="M54 514zM212 514q-5 63 -10 107t-5 79q0 23 9 34.5t33 11.5q23 0 31.5 -11.5t8.5 -34.5q0 -35 -5 -79t-10 -107h-52zM69 514q-5 63 -10 107t-5 79q0 23 9 34.5t33 11.5q23 0 31.5 -11.5t8.5 -34.5q0 -35 -5 -79t-10 -107h-52z" />
    <glyph glyph-name="numbersign" unicode="#" horiz-adv-x="515" 
d="M180 475l34 236l44 -8l-33 -228h101l34 236l45 -8l-33 -228h100v-47h-106l-24 -163h95v-47h-101l-32 -227l-46 7l31 220h-100l-32 -227l-45 7l31 220h-100v47h107l23 163h-95v47h102zM195 265h101l23 163h-100z" />
    <glyph glyph-name="dollar" unicode="$" horiz-adv-x="475" 
d="M263 760v-121q78 -8 114.5 -54.5t41.5 -131.5l-54 -8q-5 73 -36 106.5t-94 33.5q-31 0 -51.5 -7.5t-33 -20t-18 -28.5t-5.5 -33q0 -30 13.5 -48t36.5 -31q18 -9 39.5 -15.5t44.5 -14t46.5 -15.5t44.5 -20q38 -21 58 -51t20 -81q0 -74 -43 -114.5t-124 -45.5v-118h-47v119
q-78 5 -122.5 52.5t-52.5 157.5l56 9q7 -89 43.5 -126.5t101.5 -37.5q59 0 89 26t30 70q0 28 -14 48t-47 37q-19 9 -40 16.5t-43 14.5t-44 15.5t-41 20.5q-32 19 -52 49t-20 81q0 27 7 52.5t25 46t48 33.5t76 15v119h47z" />
    <glyph glyph-name="percent" unicode="%" horiz-adv-x="786" 
d="M64 0zM627 701l-409 -701h-56l407 701h58zM589 393q40 0 66 -10t41 -33.5t20.5 -62t5.5 -94.5q0 -57 -5.5 -95t-20.5 -61.5t-41 -33.5t-66 -10t-66 10t-41 33.5t-21 61.5t-6 95q0 56 6 94.5t21 62t41 33.5t66 10zM589 344q-21 0 -35 -7t-22.5 -24.5t-11.5 -46.5t-3 -73
t3 -73.5t11.5 -46.5t22.5 -24t35 -7q22 0 36 7t22 24t11 46.5t3 73.5t-3 73t-11 46.5t-22 24.5t-36 7zM198 708q40 0 66 -10t41 -33.5t20.5 -62t5.5 -94.5q0 -57 -5.5 -95t-20.5 -61.5t-41 -33.5t-66 -10t-66 10t-41 33.5t-21 61.5t-6 95q0 56 6 94.5t21 62t41 33.5t66 10z
M198 659q-21 0 -35 -7t-22.5 -24.5t-11.5 -46.5t-3 -73t3 -73.5t11.5 -46.5t22.5 -24t35 -7q22 0 36 7t22 24t11 46.5t3 73.5t-3 73t-11 46.5t-22 24.5t-36 7z" />
    <glyph glyph-name="ampersand" unicode="&#x26;" horiz-adv-x="679" 
d="M579 426q2 -90 -22.5 -178t-78.5 -153q41 -35 73 -35q28 0 41.5 25.5t11.5 70.5l50 -17q5 -72 -20.5 -114t-74.5 -42q-32 0 -64.5 17.5t-64.5 46.5q-36 -28 -81 -43.5t-99 -15.5q-52 0 -89 14.5t-61 39.5t-35 58.5t-11 71.5q0 41 12 72.5t32 56.5t46.5 45.5t55.5 39.5
q-29 60 -42 108t-13 88q0 31 8.5 60.5t26.5 52t45.5 36t65.5 13.5q60 0 100 -38t40 -120q0 -38 -9.5 -67t-28.5 -53.5t-46 -46.5t-62 -45q28 -57 66 -119t79 -111q44 55 66 132t18 156zM264 59q33 0 62 10t55 28q-47 55 -87 120t-69 119q-21 -15 -37 -29t-26.5 -30.5
t-16 -36.5t-5.5 -46q0 -60 29 -97.5t95 -37.5zM218 584q0 -26 8.5 -63.5t34.5 -96.5q54 36 78.5 70t24.5 88q0 50 -19.5 74t-54.5 24q-21 0 -34.5 -8.5t-22 -22t-12 -30.5t-3.5 -35z" />
    <glyph glyph-name="quotesingle" unicode="'" horiz-adv-x="190" 
d="M69 514q-5 63 -10 107t-5 79q0 23 9 34.5t33 11.5q23 0 31.5 -11.5t8.5 -34.5q0 -35 -5 -79t-10 -107h-52z" />
    <glyph glyph-name="parenleft" unicode="(" horiz-adv-x="364" 
d="M316 803q-91 -56 -135.5 -182t-44.5 -315t44.5 -315t135.5 -182l-21 -38q-55 31 -95 82.5t-66.5 120t-39.5 152.5t-13 180t13 180t39.5 152.5t66.5 120t95 82.5z" />
    <glyph glyph-name="parenright" unicode=")" horiz-adv-x="364" 
d="M48 -191q91 56 135.5 182t44.5 315t-44.5 315t-135.5 182l21 38q55 -31 95 -82.5t66.5 -120t39.5 -152.5t13 -180t-13 -180t-39.5 -152.5t-66.5 -120t-95 -82.5z" />
    <glyph glyph-name="asterisk" unicode="*" horiz-adv-x="450" 
d="M211 546l-9 194h47l-8 -193l164 103l23 -40l-172 -91l172 -90l-23 -40l-164 104l8 -194h-47l9 195l-165 -105l-23 40l172 90l-172 91l23 40z" />
    <glyph glyph-name="plus" unicode="+" horiz-adv-x="515" 
d="M281 553v-182h182v-47h-182v-182h-47v182h-182v47h182v182h47z" />
    <glyph glyph-name="comma" unicode="," horiz-adv-x="200" 
d="M49 -95q16 16 27 41.5t11 51.5q-12 2 -23.5 12.5t-11.5 33.5t13 37t35 14t35.5 -14.5t13.5 -42.5q0 -36 -18 -79.5t-58 -76.5z" />
    <glyph glyph-name="hyphen" unicode="-" horiz-adv-x="318" 
d="M273 349l-6 -65h-223l5 65h224z" />
    <glyph glyph-name="period" unicode="." horiz-adv-x="200" 
d="M100 95q20 0 34.5 -14.5t14.5 -35.5q0 -20 -14.5 -34.5t-34.5 -14.5t-34 14.5t-14 34.5q0 21 14 35.5t34 14.5z" />
    <glyph glyph-name="slash" unicode="/" horiz-adv-x="383" 
d="M366 828l-298 -940h-50l297 940h51z" />
    <glyph glyph-name="zero" unicode="0" horiz-adv-x="569" 
d="M284 714q67 0 109.5 -18.5t67.5 -61t34.5 -112.5t9.5 -172t-9.5 -171.5t-34.5 -112t-67.5 -61t-109.5 -18.5q-66 0 -108.5 18.5t-67.5 61t-35 112t-10 171.5t10 172t35 112.5t67.5 61t108.5 18.5zM284 649q-41 0 -67 -14t-41.5 -48.5t-21.5 -92t-6 -144.5t6 -144.5
t21.5 -91.5t41.5 -48t67 -14t67.5 14t41.5 48t21 91.5t6 144.5t-6 144.5t-21 92t-41.5 48.5t-67.5 14z" />
    <glyph glyph-name="one" unicode="1" horiz-adv-x="287" 
d="M211 708q-3 -44 -3 -96v-612h-85v574q-33 -24 -87 -28l-8 60q52 6 79 30t46 78z" />
    <glyph glyph-name="two" unicode="2" horiz-adv-x="534" 
d="M60 484q1 51 10 93.5t31 72.5t60 46.5t98 16.5q100 0 153.5 -50.5t53.5 -159.5q0 -49 -11 -84.5t-31 -63.5t-48 -50.5t-62 -44.5q-57 -37 -102.5 -75.5t-83.5 -96.5q18 6 38 9t39 3q26 0 51 -5t47.5 -10.5t41.5 -10.5t34 -5q22 0 36 16t14 57q0 9 -0.5 20t-2.5 21h52
q2 -14 3 -30t1 -28q0 -67 -28.5 -98t-73.5 -31q-21 0 -47.5 5.5t-55 11.5t-57 11.5t-51.5 5.5q-27 0 -54 -9.5t-58 -32.5l-15 64q18 42 40 75.5t48.5 62.5t57 54.5t63.5 51.5q33 25 58 47t41.5 45.5t25 51t8.5 63.5q0 77 -34.5 108.5t-96.5 31.5q-35 0 -58.5 -9.5
t-38.5 -29.5t-23 -51.5t-12 -74.5z" />
    <glyph glyph-name="three" unicode="3" horiz-adv-x="526" 
d="M63 517q1 44 10.5 80t31 62t58.5 40.5t93 14.5q53 0 90 -12.5t60.5 -36t34.5 -56.5t11 -73q0 -63 -24.5 -102t-69.5 -59q52 -16 85 -57t33 -120q0 -45 -12 -83.5t-39 -67t-69.5 -44.5t-102.5 -16q-57 0 -96 14t-63.5 38.5t-37.5 56.5t-17 68l68 24q9 -61 41.5 -97
t101.5 -36q76 0 107.5 42t31.5 110q0 40 -10 66t-29 41.5t-48 21.5t-66 6h-55l10 59h47q61 0 98.5 27t37.5 98q0 60 -30 92.5t-94 32.5q-34 0 -56.5 -9.5t-36 -27.5t-20 -44t-9.5 -59z" />
    <glyph glyph-name="four" unicode="4" horiz-adv-x="526" 
d="M410 701v-461h74l-4 -73h-70v-167h-83v167h-285v54l283 480h85zM327 240v337l-198 -337h198z" />
    <glyph glyph-name="five" unicode="5" horiz-adv-x="536" 
d="M98 709q48 -6 97.5 -8t84.5 -2q47 0 88.5 3.5t85.5 11.5l-4 -62q-34 -15 -75 -22t-85 -7q-31 0 -63 3t-61 10l-12 -202q29 20 67 34t84 14q41 0 74 -12.5t56 -40.5t35.5 -73t12.5 -109q0 -137 -58 -198.5t-169 -61.5q-56 0 -94.5 13.5t-63.5 37.5t-38 56t-19 69l69 25
q6 -30 16 -55t27 -42t42 -26.5t60 -9.5q33 0 59.5 9.5t45 31.5t28 58t9.5 88q0 51 -9 85t-24.5 55t-37.5 29.5t-49 8.5q-26 0 -48.5 -7t-42.5 -18t-37 -25t-30 -27l-42 24l21 342v0z" />
    <glyph glyph-name="six" unicode="6" horiz-adv-x="573" 
d="M297 649q-37 0 -65 -12t-47 -42.5t-29.5 -82.5t-12.5 -131q30 42 73.5 65.5t106.5 23.5q52 0 88 -17t58 -49t31.5 -77t9.5 -100q0 -44 -7.5 -87t-31 -77t-66.5 -55t-114 -21q-66 0 -110 21t-70 65t-37 112.5t-11 163.5q0 103 12 173t39 113t70.5 61t106.5 18q56 0 94 -13
t62 -36t34.5 -55t12.5 -71l-61 -17q-3 29 -11.5 52.5t-24.5 40t-40 25.5t-60 9zM302 405q-56 0 -92.5 -29t-65.5 -87q3 -66 12.5 -111.5t28 -73t45.5 -40t64 -12.5q42 0 69 14.5t42 38.5t20.5 56.5t5.5 68.5q0 84 -28.5 129.5t-100.5 45.5z" />
    <glyph glyph-name="seven" unicode="7" horiz-adv-x="473" 
d="M41 517q-2 15 -3 30.5t-1 27.5q0 67 28 98t79 31q23 0 45.5 -5t44 -11t43.5 -11t44 -5q25 0 54.5 9t59.5 32l15 -65q-51 -59 -92 -118t-69.5 -121.5t-44 -130.5t-15.5 -144q0 -63 13 -134h-96q-6 32 -8.5 62t-2.5 58q0 72 14 134.5t40.5 120.5t65 114t88.5 116
q-9 -2 -18.5 -3t-17.5 -1q-20 0 -42.5 4.5t-44.5 10.5t-42.5 10.5t-35.5 4.5q-24 0 -38 -17.5t-14 -55.5q0 -8 0.5 -19t2.5 -22h-52z" />
    <glyph glyph-name="eight" unicode="8" horiz-adv-x="545" 
d="M273 714q95 0 146 -40.5t51 -127.5q0 -38 -9.5 -65t-26.5 -46t-40 -32.5t-49 -24.5q36 -14 64 -29t47.5 -36.5t29.5 -52t10 -75.5q0 -56 -15.5 -93.5t-44 -61t-70 -33.5t-93.5 -10q-53 0 -94 10t-70 33.5t-44 62t-15 94.5q0 44 9.5 74t28 51t46.5 35t65 28
q-28 12 -50.5 27t-39 35.5t-25.5 47.5t-9 63q0 85 50.5 125.5t147.5 40.5zM411 189q0 35 -8.5 59t-26.5 41t-45.5 30.5t-64.5 28.5q-33 -13 -58 -25.5t-41 -30t-24 -41.5t-8 -60q0 -75 36 -106t102 -31q64 0 101 30.5t37 104.5zM274 651q-60 0 -90 -26t-30 -82
q0 -32 9 -54.5t25.5 -38t39.5 -27t50 -21.5q26 10 47 21t36 26.5t23.5 37.5t8.5 54q0 57 -28.5 83.5t-90.5 26.5z" />
    <glyph glyph-name="nine" unicode="9" horiz-adv-x="573" 
d="M139 198q4 -30 12 -57t24 -46.5t41 -31t63 -11.5q37 0 65 13.5t46.5 46.5t28 88.5t10.5 139.5q-31 -45 -72.5 -67t-104.5 -22q-101 0 -145.5 56.5t-44.5 168.5q0 43 8 85.5t31.5 76.5t66.5 55t114 21q66 0 110 -21t70 -65t36.5 -112t10.5 -162q0 -103 -12 -173
t-38.5 -113t-69 -62t-102.5 -19q-57 0 -95.5 15t-62.5 41t-35.5 61t-15.5 76zM268 315q57 0 92.5 28t66.5 88q-4 60 -14.5 101.5t-28.5 67.5t-44 37.5t-62 11.5q-42 0 -68.5 -14.5t-42 -38.5t-21 -55.5t-5.5 -65.5q0 -81 28 -120.5t99 -39.5z" />
    <glyph glyph-name="colon" unicode=":" horiz-adv-x="219" 
d="M61 24zM109 123q20 0 34.5 -14.5t14.5 -35.5q0 -20 -14.5 -34.5t-34.5 -14.5t-34 14.5t-14 34.5q0 21 14 35.5t34 14.5zM109 451q20 0 34.5 -14.5t14.5 -35.5q0 -20 -14.5 -34.5t-34.5 -14.5t-34 14.5t-14 34.5q0 21 14 35.5t34 14.5z" />
    <glyph glyph-name="semicolon" unicode=";" horiz-adv-x="219" 
d="M58 0zM58 -67q16 16 27 41.5t11 51.5q-12 2 -23.5 12.5t-11.5 33.5t13 37t35 14t35.5 -14.5t13.5 -42.5q0 -36 -18 -79.5t-58 -76.5zM109 451q20 0 34.5 -14.5t14.5 -35.5q0 -20 -14.5 -34.5t-34.5 -14.5t-34 14.5t-14 34.5q0 21 14 35.5t34 14.5z" />
    <glyph glyph-name="less" unicode="&#x3c;" horiz-adv-x="515" 
d="M463 570v-50l-361 -173l361 -173v-51l-411 202v44z" />
    <glyph glyph-name="equal" unicode="=" horiz-adv-x="515" 
d="M463 476v-47h-411v47h411zM463 267v-47h-411v47h411z" />
    <glyph glyph-name="greater" unicode="&#x3e;" horiz-adv-x="515" 
d="M51 124v50l360 173l-360 173v51l411 -202v-44z" />
    <glyph glyph-name="question" unicode="?" horiz-adv-x="463" 
d="M41 534q1 47 9 83.5t28.5 62t56.5 38.5t93 13q42 0 75 -8.5t55.5 -27.5t34 -50t11.5 -76q0 -28 -6.5 -59t-27.5 -63q-13 -19 -28.5 -36t-31.5 -33t-31 -31.5t-26 -32.5q-13 -19 -18 -37.5t-5 -40.5q0 -25 6 -44h-64q-3 9 -5 20t-2 29q0 26 5 49t17 44q10 18 24 34.5
t29 33t29.5 32.5t25.5 33q16 24 21.5 46t5.5 46q0 58 -25 81.5t-79 23.5q-34 0 -56 -8t-35.5 -25.5t-19 -44t-5.5 -62.5zM205 95q19 0 33.5 -14.5t14.5 -35.5q0 -20 -14.5 -34.5t-33.5 -14.5q-20 0 -34.5 14.5t-14.5 34.5q0 21 14.5 35.5t34.5 14.5z" />
    <glyph glyph-name="at" unicode="@" horiz-adv-x="717" 
d="M484 438v-252q0 -24 10.5 -38t33.5 -14q15 0 28.5 8t23.5 29.5t15.5 58.5t5.5 94q0 76 -11.5 129.5t-38.5 87.5t-71.5 49.5t-109.5 15.5q-71 0 -118 -18.5t-76 -59.5t-41 -106t-12 -159q0 -92 12 -159t40.5 -110.5t77 -64.5t120.5 -21q81 0 136 24.5t92 69.5l33 -44
q-40 -52 -106.5 -79.5t-160.5 -27.5q-88 0 -146.5 25.5t-94 77t-50.5 129.5t-15 183q0 102 14 176.5t49.5 123t95 72t150.5 23.5q78 0 132.5 -18t88.5 -57t49.5 -101.5t15.5 -150.5q0 -77 -10.5 -125.5t-28.5 -76t-42.5 -37.5t-51.5 -10q-75 0 -90 59q-16 -26 -39.5 -40
t-55.5 -14q-21 0 -39 7.5t-32 27t-22 53t-8 86.5q0 52 8 87t22 56.5t33 30.5t42 9q56 0 90 -50q1 23 8 41h44zM354 137q51 0 76 61v140q-14 33 -33 48t-41 15q-29 0 -46.5 -30t-17.5 -106q0 -39 4.5 -63.5t13 -39t19.5 -20t25 -5.5z" />
    <glyph glyph-name="A" unicode="A" 
d="M342 701l217 -701h-93l-54 182h-257l-53 -182h-77l217 701h100zM175 250h217l-109 366z" />
    <glyph glyph-name="B" unicode="B" horiz-adv-x="590" 
d="M306 701q100 0 150.5 -38t50.5 -128q0 -67 -25.5 -106t-65.5 -57q57 -15 89.5 -55.5t32.5 -119.5q0 -43 -11 -79t-35.5 -62.5t-64 -41t-95.5 -14.5h-256v701h230zM161 67h153q39 0 65 10.5t42 29t23 43t7 53.5q0 133 -134 133h-156v-269zM161 396h134q67 0 96.5 30.5
t29.5 91.5q0 63 -30 89t-94 26h-136v-237z" />
    <glyph glyph-name="C" unicode="C" horiz-adv-x="615" 
d="M489 438q-4 44 -13 82.5t-27 66.5t-46 44t-71 16q-89 0 -135.5 -72.5t-46.5 -226.5q0 -78 12 -133.5t35 -90.5t56.5 -51.5t76.5 -16.5q75 0 113.5 49.5t53.5 157.5l62 -12q-8 -56 -21.5 -104t-39.5 -83.5t-68 -55.5t-105 -20q-126 0 -195 87t-69 273q0 185 68.5 276
t200.5 91q48 0 86 -13t66.5 -44.5t46 -83t23.5 -128.5z" />
    <glyph glyph-name="D" unicode="D" horiz-adv-x="621" 
d="M289 701q78 0 130 -17.5t83.5 -58t44.5 -107t13 -163.5q0 -99 -13.5 -166.5t-45 -109.5t-83.5 -60.5t-129 -18.5h-213v701h213zM162 68h126q53 0 88.5 16.5t56.5 51.5t30 90.5t9 132.5q0 76 -8.5 128.5t-29.5 85t-57 47t-91 14.5h-124v-566z" />
    <glyph glyph-name="E" unicode="E" horiz-adv-x="520" 
d="M469 701l-9 -67h-291v-232h234l-9 -63h-225v-272h307l-9 -67h-391v701h393z" />
    <glyph glyph-name="F" unicode="F" horiz-adv-x="506" 
d="M474 701l-8 -72h-303v-245h227l-9 -66h-218v-318h-87v701h398z" />
    <glyph glyph-name="G" unicode="G" horiz-adv-x="621" 
d="M552 369v-369h-67q-4 14 -6.5 32t-4.5 42q-29 -38 -70.5 -62t-101.5 -24q-53 0 -97 21.5t-76 66t-50 113t-18 162.5q0 183 68 273.5t202 90.5q47 0 84.5 -12.5t65.5 -41t45.5 -75.5t24.5 -116l-62 -14q-7 57 -20.5 94t-33 58.5t-44 30t-54.5 8.5q-93 0 -140 -72t-47 -226
q0 -79 12 -134.5t34.5 -91t53.5 -51.5t70 -16q54 0 91.5 27t60.5 75v145h-138l8 66h210z" />
    <glyph glyph-name="H" unicode="H" horiz-adv-x="610" 
d="M163 701v-303h285v303h86v-701h-86v332h-285v-332h-87v701h87z" />
    <glyph glyph-name="I" unicode="I" horiz-adv-x="238" 
d="M163 701v-701h-87v701h87z" />
    <glyph glyph-name="J" unicode="J" horiz-adv-x="480" 
d="M410 701v-493q0 -50 -11 -91t-34.5 -69.5t-59.5 -44t-86 -15.5q-78 0 -128 39t-59 115l58 20q9 -49 37 -78.5t82 -29.5q62 0 88.5 39.5t26.5 109.5v498h86z" />
    <glyph glyph-name="K" unicode="K" horiz-adv-x="565" 
d="M527 701l-203 -253l213 -448h-97l-171 378l-106 -132v-246h-87v701h87v-352l272 352h92z" />
    <glyph glyph-name="L" unicode="L" horiz-adv-x="478" 
d="M163 701v-634h286l-7 -67h-366v701h87z" />
    <glyph glyph-name="M" unicode="M" horiz-adv-x="736" 
d="M182 701l187 -591l194 591h97v-701h-78v547l-172 -547h-87l-174 545v-545h-73v701h106z" />
    <glyph glyph-name="N" unicode="N" horiz-adv-x="628" 
d="M174 701l307 -571v571h71v-701h-95l-312 577v-577h-69v701h98z" />
    <glyph glyph-name="O" unicode="O" horiz-adv-x="632" 
d="M320 714q66 0 114 -21t79 -65t45.5 -113t14.5 -165q0 -87 -13 -155t-43 -114t-79 -70t-122 -24q-67 0 -115 20.5t-79 64.5t-46 113t-15 166q0 85 12.5 152t42.5 114t80 72t124 25zM320 646q-49 0 -82 -20t-52.5 -57.5t-28 -92t-8.5 -124.5q0 -77 8.5 -132.5t28.5 -92
t52 -54t79 -17.5q49 0 81.5 18.5t51.5 55t26.5 91.5t7.5 127q0 77 -8.5 133t-28 93t-50.5 54.5t-77 17.5z" />
    <glyph glyph-name="P" unicode="P" horiz-adv-x="557" 
d="M282 701q58 0 101 -11t71 -35t41.5 -63t13.5 -95q0 -115 -56 -167.5t-169 -52.5h-122v-277h-86v701h206zM162 346h125q71 0 103 36t32 111t-32 107t-104 32h-124v-286z" />
    <glyph glyph-name="Q" unicode="Q" horiz-adv-x="632" 
d="M320 714q66 0 114 -20.5t79 -64t45.5 -111t14.5 -161.5q0 -128 -30 -212t-104 -119q12 -22 25 -39t28.5 -29t35.5 -18t46 -6q35 0 79 10l-11 -62q-29 -10 -53 -14t-44 -4q-32 0 -56 9.5t-43.5 27.5t-36 44.5t-32.5 61.5q-14 -3 -29.5 -4t-29.5 -1q-68 0 -116.5 20
t-79.5 63t-46 110.5t-15 161.5q0 84 12.5 150t42.5 112t80 70.5t124 24.5zM320 646q-50 0 -82.5 -19.5t-52.5 -57.5t-28 -93t-8 -127v-34t2 -32q33 13 64 13q29 0 53.5 -13.5t47 -40t44.5 -65t47 -89.5q44 30 60.5 96t16.5 169q0 75 -8.5 130.5t-28 91.5t-50.5 53.5
t-77 17.5zM350 66q-21 48 -39 83t-35.5 58t-36.5 34.5t-41 11.5q-20 0 -44 -9q11 -92 49 -136t113 -44q10 0 18 0.5t16 1.5z" />
    <glyph glyph-name="R" unicode="R" horiz-adv-x="578" 
d="M295 701q58 0 101 -10t71.5 -35.5t42.5 -70t14 -113.5q0 -60 -10.5 -102.5t-31.5 -71.5t-53 -45t-74 -22q12 -88 58 -139.5t114 -51.5h10t10 1l-7 -42q-32 -13 -65 -13q-35 0 -66.5 15t-55.5 43t-38.5 68t-14.5 90v12.5t1 13.5h-139v-228h-86v701h219zM162 293h134
q37 0 64 9t44 29.5t25.5 54t8.5 82.5t-8 80.5t-25.5 50t-44 26t-62.5 7.5h-136v-339z" />
    <glyph glyph-name="S" unicode="S" horiz-adv-x="543" 
d="M110 263q4 -56 17 -95.5t34 -64.5t50 -36t67 -11q68 0 101.5 32.5t33.5 88.5q0 33 -14.5 59.5t-53.5 48.5q-21 12 -46 21.5t-50.5 18.5t-50.5 19.5t-46 24.5q-36 23 -59 61t-23 101q0 34 9 67t31 59t59 41.5t94 15.5q55 0 94.5 -16t65.5 -46.5t39.5 -74.5t16.5 -100
l-60 -9q-6 93 -41.5 135.5t-107.5 42.5q-36 0 -60 -9.5t-38.5 -25t-20.5 -36t-6 -42.5q0 -38 15 -61t44 -39q19 -11 43 -19t50 -16.5t53 -19.5t53 -27q43 -27 66 -64t23 -99q0 -98 -55.5 -149t-158.5 -51q-50 0 -90 13.5t-69.5 44.5t-47 82t-23.5 125z" />
    <glyph glyph-name="T" unicode="T" horiz-adv-x="539" 
d="M511 701l-8 -67h-191v-634h-86v634h-199l8 67h476z" />
    <glyph glyph-name="U" unicode="U" horiz-adv-x="588" 
d="M158 701v-449q0 -100 30.5 -148t107.5 -48q80 0 111.5 50t31.5 157v438h78v-452q0 -126 -52 -193.5t-172 -67.5q-60 0 -102.5 17.5t-69 50.5t-38.5 81.5t-12 111.5v452h87z" />
    <glyph glyph-name="V" unicode="V" 
d="M118 701l182 -619l182 619h77l-217 -701h-100l-217 701h93z" />
    <glyph glyph-name="W" unicode="W" horiz-adv-x="822" 
d="M114 701l121 -577l140 577h85l141 -579l119 579h75l-149 -701h-99l-138 570l-139 -570h-94l-150 701h88z" />
    <glyph glyph-name="X" unicode="X" horiz-adv-x="600" 
d="M552 701l-205 -324l226 -377h-101l-181 304l-186 -304h-78l230 362l-201 339h98l158 -265l162 265h78z" />
    <glyph glyph-name="Y" unicode="Y" horiz-adv-x="514" 
d="M111 701l155 -341l157 341h69l-191 -407v-294h-87v294l-191 407h88z" />
    <glyph glyph-name="Z" unicode="Z" horiz-adv-x="518" 
d="M461 701v-59l-312 -575h321l-11 -67h-413v59l317 575h-305l8 67h395z" />
    <glyph glyph-name="bracketleft" unicode="[" horiz-adv-x="364" 
d="M315 841v-47h-148v-977h148v-47h-197v1071h197z" />
    <glyph glyph-name="backslash" unicode="\" horiz-adv-x="383" 
d="M68 828l298 -940h-51l-297 940h50z" />
    <glyph glyph-name="bracketright" unicode="]" horiz-adv-x="364" 
d="M49 -229v47h148v977h-148v47h197v-1071h-197z" />
    <glyph glyph-name="asciicircum" unicode="^" horiz-adv-x="515" 
d="M280 701l194 -351h-50l-167 303l-165 -303h-51l195 351h44z" />
    <glyph glyph-name="underscore" unicode="_" horiz-adv-x="479" 
d="M483 -73v-47h-483v47h483z" />
    <glyph glyph-name="grave" unicode="`" horiz-adv-x="291" 
d="M141 779l85 -220l-50 -20l-106 209z" />
    <glyph glyph-name="a" unicode="a" horiz-adv-x="501" 
d="M63 339q5 37 15 67t30.5 50.5t53 31.5t82.5 11q47 0 79 -10.5t51.5 -32t28 -55.5t8.5 -81v-194q0 -36 8.5 -50.5t35.5 -14.5h18l-7 -61h-47q-37 0 -56 16.5t-26 44.5q-24 -33 -57 -52.5t-87 -19.5q-39 0 -67 10.5t-46 30t-26 46.5t-8 59q0 46 16 77t50.5 51.5t89 32
t130.5 17.5v12q0 30 -4 51.5t-14 34.5t-27.5 19t-44.5 6q-61 0 -86.5 -26t-35.5 -76zM211 54q43 0 71.5 19.5t49.5 52.5v139q-55 -5 -94.5 -13.5t-65 -22.5t-37.5 -35.5t-12 -52.5q0 -38 20 -62.5t68 -24.5z" />
    <glyph glyph-name="b" unicode="b" horiz-adv-x="553" 
d="M152 740v-326q29 38 70.5 61.5t102.5 23.5q37 0 69 -11t55.5 -39.5t36.5 -77.5t13 -124t-13 -125t-36.5 -80t-55.5 -42t-71 -12q-60 0 -102 23.5t-71 64.5q-2 -23 -6 -42t-9 -34h-66v732zM300 435q-51 0 -87.5 -29t-60.5 -83v-161q24 -54 61.5 -82t85.5 -28q27 0 49 10
t37.5 32.5t24 59.5t8.5 91t-8.5 90.5t-24 58.5t-37 31.5t-48.5 9.5z" />
    <glyph glyph-name="c" unicode="c" horiz-adv-x="491" 
d="M373 325q-7 55 -31.5 82.5t-81.5 27.5q-69 0 -98 -44t-29 -146q0 -101 28 -147t94 -46q33 0 54.5 11t35 30t20.5 45t11 56l62 -9q-4 -35 -13 -70t-29.5 -63t-55 -45.5t-89.5 -17.5q-54 0 -92 18t-61 51.5t-33.5 81t-10.5 106.5q0 62 11 109t35.5 79t63 48.5t93.5 16.5
q47 0 79.5 -11.5t53.5 -33t31 -51.5t12 -67z" />
    <glyph glyph-name="d" unicode="d" horiz-adv-x="553" 
d="M484 740v-740h-77q-4 30 -6 73q-29 -39 -71.5 -62t-102.5 -23q-37 0 -68.5 11t-55 39.5t-36.5 77.5t-13 124t13 125t36 79.5t55.5 42t70.5 12.5q58 0 100.5 -23t71.5 -63v319zM252 52q51 0 88 28.5t61 82.5v161q-25 54 -62 82.5t-85 28.5q-27 0 -49 -10t-37.5 -32.5
t-24 -59.5t-8.5 -91t8.5 -90.5t24 -58.5t37 -31.5t47.5 -9.5z" />
    <glyph glyph-name="e" unicode="e" horiz-adv-x="504" 
d="M133 231q2 -96 31 -137.5t91 -41.5q51 0 83.5 29.5t42.5 99.5l62 -10q-12 -91 -56.5 -136.5t-134.5 -45.5q-100 0 -149 60.5t-49 197.5q0 124 45 188t154 64q58 0 96.5 -18t60.5 -49.5t31 -75t9 -94.5v-16.5t-1 -14.5h-316zM250 439q-60 0 -86 -38.5t-30 -120.5h237
q-1 37 -7.5 66.5t-21 50t-37 31.5t-55.5 11z" />
    <glyph glyph-name="f" unicode="f" horiz-adv-x="349" 
d="M173 487h139l-5 -61q-9 0 -25 0.5t-34.5 1t-38 0.5h-36.5v-428h-83v428h-66l3 55q13 2 31 3t32 1v115q0 72 28.5 109t94.5 37q30 0 51.5 -7.5t35 -19t21 -26.5t10.5 -30l-28 -37q-9 24 -23.5 41t-45.5 17q-36 0 -48.5 -24t-12.5 -60v-115z" />
    <glyph glyph-name="g" unicode="g" horiz-adv-x="538" 
d="M55 327q0 34 8 63t29 50.5t57.5 34t92.5 12.5q33 0 57.5 -4t44.5 -11q14 52 41 74.5t65 22.5q32 0 52 -14t34 -40l-42 -42q-10 18 -25 28.5t-32 10.5q-20 0 -36 -14t-27 -41q32 -22 44.5 -55.5t12.5 -75.5q0 -38 -9.5 -69t-31.5 -53t-58 -33.5t-89 -11.5q-58 0 -97 14
q-15 -17 -15 -39q0 -25 22 -35t60 -17q10 -2 33 -6t49 -9t52 -10.5t43 -11.5q50 -17 70 -44.5t20 -73.5q0 -36 -11.5 -63.5t-39.5 -47t-74.5 -29.5t-115.5 -10q-64 0 -106.5 8.5t-68 24t-36 37t-10.5 48.5q0 48 29 81t80 55q-26 10 -42 28t-16 53q0 21 8 43t31 38
q-29 22 -41 56t-12 78zM348 -16q-14 4 -34 8t-42.5 8t-45.5 8t-42 8q-45 -18 -70.5 -44.5t-25.5 -64.5q0 -19 7.5 -33t25 -23.5t47 -14.5t73.5 -5q48 0 80 5.5t51 16.5t27 27t8 37q0 24 -12 40t-47 27zM242 436q-66 0 -89.5 -28.5t-23.5 -81.5q0 -59 25.5 -88t87.5 -29
q63 0 88.5 29t25.5 87q0 55 -24.5 83t-89.5 28z" />
    <glyph glyph-name="h" unicode="h" horiz-adv-x="540" 
d="M152 740v-351q42 54 86.5 80t102.5 26q74 0 103.5 -39.5t29.5 -116.5v-339h-82v332q0 48 -17 71t-63 23q-42 0 -79.5 -24t-80.5 -87v-315h-83v733z" />
    <glyph glyph-name="i" unicode="i" horiz-adv-x="221" 
d="M62 0zM151 487v-487h-82v487h82zM110 682q20 0 34.5 -14.5t14.5 -35.5q0 -20 -14.5 -34.5t-34.5 -14.5t-34 14.5t-14 34.5q0 21 14 35.5t34 14.5z" />
    <glyph glyph-name="j" unicode="j" horiz-adv-x="244" 
d="M0 0zM175 487v-558q0 -71 -30 -110t-101 -39q-30 0 -52 7t-37.5 17.5t-25.5 23.5t-15 26l29 45q8 -21 24.5 -37t52.5 -16q40 0 56 23t16 63v555h83zM133 682q20 0 34.5 -14.5t14.5 -35.5q0 -20 -14.5 -34.5t-34.5 -14.5t-34 14.5t-14 34.5q0 21 14 35.5t34 14.5z" />
    <glyph glyph-name="k" unicode="k" horiz-adv-x="508" 
d="M472 487l-168 -164l176 -323h-95l-139 266l-94 -91v-175h-83v732l83 8v-480l226 227h94z" />
    <glyph glyph-name="l" unicode="l" horiz-adv-x="221" 
d="M152 740v-740h-83v732z" />
    <glyph glyph-name="m" unicode="m" horiz-adv-x="840" 
d="M146 487q2 -20 3 -44t2 -52q41 53 84 78.5t99 25.5q59 0 88 -27t37 -81q42 55 85.5 81.5t100.5 26.5q71 0 100 -40t29 -116v-339h-82v332q0 48 -16 71t-60 23q-40 0 -76 -24t-77 -86v-316h-82v332q0 48 -16 71t-60 23q-40 0 -76 -24t-77 -86v-316h-83v487h77z" />
    <glyph glyph-name="n" unicode="n" horiz-adv-x="540" 
d="M146 487q5 -42 6 -98q42 54 86.5 80t102.5 26q74 0 103.5 -39.5t29.5 -116.5v-339h-82v332q0 48 -17 71t-63 23q-42 0 -79.5 -24t-80.5 -87v-315h-83v487h77z" />
    <glyph glyph-name="o" unicode="o" horiz-adv-x="500" 
d="M249 499q58 0 96.5 -19t60.5 -52t31 -79t9 -100q0 -60 -10 -108t-33.5 -82t-61 -52t-92.5 -18t-92 18t-60 52t-33 82t-10 108q0 54 8.5 100t30.5 79t60 52t96 19zM249 435q-35 0 -57 -13t-35.5 -37.5t-18.5 -59t-5 -77.5q0 -100 26 -148t90 -48q66 0 91.5 48t25.5 148
q0 43 -5 77.5t-18.5 59t-36 37.5t-57.5 13z" />
    <glyph glyph-name="p" unicode="p" horiz-adv-x="553" 
d="M146 487q2 -16 3 -34.5t2 -39.5q29 39 72 62.5t103 23.5q37 0 68.5 -11.5t55 -40t36.5 -77t13 -123.5t-13 -125t-36.5 -80t-55.5 -42t-70 -12q-59 0 -101 22.5t-71 62.5v-287h-83v701h77zM301 435q-51 0 -88 -29t-61 -83v-161q24 -54 61 -82t86 -28q27 0 49 10t37.5 32.5
t24 59.5t8.5 91t-8.5 90.5t-24 58.5t-37 31.5t-47.5 9.5z" />
    <glyph glyph-name="q" unicode="q" horiz-adv-x="553" 
d="M484 487v-701h-83v287q-29 -39 -71 -62t-100 -23q-38 0 -70.5 11t-56 39t-36.5 76.5t-13 124.5t13 126t36.5 80t56.5 42t72 12q57 0 99 -24t72 -65q5 46 15 77h66zM252 52q51 0 88 28.5t61 82.5v160q-25 54 -62 83t-87 29q-26 0 -47.5 -10t-37 -33t-24 -60t-8.5 -91
t8.5 -90.5t24 -58t37 -31t47.5 -9.5z" />
    <glyph glyph-name="r" unicode="r" horiz-adv-x="446" 
d="M146 487q4 -46 6 -112q36 66 72.5 91.5t83.5 25.5q39 0 66.5 -15.5t46.5 -47.5l-36 -53q-17 25 -35.5 35t-47.5 10q-18 0 -35.5 -5t-35.5 -20t-37.5 -43.5t-41.5 -74.5v-278h-83v487h77z" />
    <glyph glyph-name="s" unicode="s" horiz-adv-x="463" 
d="M105 178q5 -72 39 -101.5t94 -29.5q55 0 79.5 20t24.5 55q0 22 -11.5 40t-46.5 34q-15 6 -34.5 12.5l-40.5 13.5l-40.5 13.5t-33.5 13.5q-34 16 -51.5 42.5t-17.5 67.5q0 29 10.5 54t31.5 43t53.5 28.5t77.5 10.5q89 0 131 -40.5t48 -116.5l-61 -11q-6 59 -34.5 85
t-82.5 26q-55 0 -77.5 -22.5t-22.5 -52.5q0 -25 13 -39.5t42 -25.5q15 -6 34 -11.5t39 -11.5t39.5 -13t34.5 -14q41 -20 56.5 -49.5t15.5 -66.5q0 -70 -47 -105t-133 -35q-87 0 -136.5 40t-54.5 137z" />
    <glyph glyph-name="t" unicode="t" horiz-adv-x="352" 
d="M170 635v-148h142l-6 -61q-9 0 -24.5 0.5t-34.5 1t-39 0.5h-38v-300q0 -33 14 -51t43 -18t42 18.5t19 47.5l39 -33q-4 -18 -12 -35.5t-22 -31.5t-35.5 -22.5t-51.5 -8.5q-60 0 -88 33t-28 93v308h-66l3 56h26q26 0 34.5 11t8.5 38v91z" />
    <glyph glyph-name="u" unicode="u" horiz-adv-x="538" 
d="M147 487v-332q0 -48 17 -71t62 -23q42 0 78.5 23.5t80.5 85.5v317h83v-487h-77q-5 40 -6 96q-42 -54 -86 -79t-101 -25q-74 0 -103.5 39.5t-29.5 115.5v340h82z" />
    <glyph glyph-name="v" unicode="v" horiz-adv-x="475" 
d="M109 487l130 -417l139 417h72l-168 -487h-98l-159 487h84z" />
    <glyph glyph-name="w" unicode="w" horiz-adv-x="707" 
d="M103 487l96 -397l117 397h79l115 -400l96 400h75l-121 -487h-94l-113 399l-115 -399h-91l-121 487h77z" />
    <glyph glyph-name="x" unicode="x" horiz-adv-x="533" 
d="M488 487l-176 -226l193 -261h-97l-149 203l-155 -203h-77l197 251l-172 236h95l131 -179l133 179h77z" />
    <glyph glyph-name="y" unicode="y" horiz-adv-x="465" 
d="M107 487l132 -437l131 437h71l-165 -556q-24 -82 -59 -116.5t-86 -34.5q-24 0 -43.5 6.5t-35 16t-26.5 20.5t-17 21l29 49q12 -17 33 -31t50 -14q13 0 24 4t21.5 15t20.5 30t20 48l-182 542h82z" />
    <glyph glyph-name="z" unicode="z" horiz-adv-x="446" 
d="M389 487v-53l-242 -373h254l-9 -61h-348v44l251 381h-242l8 62h328z" />
    <glyph glyph-name="braceleft" unicode="{" horiz-adv-x="364" 
d="M315 794q-33 -3 -54 -10t-32.5 -20.5t-16 -33.5t-4.5 -49v-269q0 -42 -12.5 -68t-35.5 -39q23 -13 35.5 -38.5t12.5 -66.5v-269q0 -29 4.5 -49.5t16 -34t32.5 -20.5t54 -10v-47q-39 2 -68.5 9.5t-49 24t-29.5 43t-10 66.5v287q0 47 -15 66t-64 19h-15v42h15q49 0 64 19
t15 66v287q0 40 10 66.5t29.5 42.5t49 23.5t68.5 9.5v-47z" />
    <glyph glyph-name="bar" unicode="|" horiz-adv-x="287" 
d="M167 761v-911h-47v911h47z" />
    <glyph glyph-name="braceright" unicode="}" horiz-adv-x="364" 
d="M49 -182q33 3 54 10t32.5 20.5t16 33.5t4.5 49v269q0 42 12.5 68t35.5 39q-23 13 -35.5 38.5t-12.5 66.5v269q0 29 -4.5 49.5t-16 34t-32.5 20.5t-54 10v47q39 -2 68.5 -9.5t49 -24t29.5 -43t10 -66.5v-287q0 -47 15 -66t64 -19h15v-42h-15q-49 0 -64 -19t-15 -66v-287
q0 -40 -10 -66.5t-29.5 -42.5t-49 -23.5t-68.5 -9.5v47z" />
    <glyph glyph-name="asciitilde" unicode="~" horiz-adv-x="515" 
d="M52 339q18 31 49 47t66 16q30 0 53.5 -11t44 -24t41 -24t45.5 -11q21 0 44.5 12.5t52.5 44.5l15 -40q-20 -31 -50.5 -47.5t-65.5 -16.5q-29 0 -52.5 11t-45 24.5t-42 24.5t-44.5 11q-22 0 -46 -12.5t-51 -44.5z" />
    <glyph glyph-name="nonbreakingspace" unicode="&#xa0;" horiz-adv-x="235" 
 />
    <glyph glyph-name="exclamdown" unicode="&#xa1;" horiz-adv-x="216" 
d="M141 359q2 -50 5 -118.5t5.5 -137.5t4.5 -129.5t2 -94.5q0 -24 -9 -40t-41 -16q-31 0 -40 15.5t-9 40.5q0 23 1 58t2.5 77.5t3 89t3.5 92.5t4 88t3 75h65zM109 456q-19 0 -33.5 14.5t-14.5 35.5q0 20 14 34.5t34 14.5t34.5 -14.5t14.5 -34.5q0 -21 -14.5 -35.5
t-34.5 -14.5z" />
    <glyph glyph-name="cent" unicode="&#xa2;" horiz-adv-x="543" 
d="M320 760v-118q37 -2 67 -14t52 -37t36 -65t19 -98l-57 -7q-5 49 -16 80.5t-28.5 50.5t-40 26.5t-49.5 7.5q-79 0 -120 -57t-41 -180q0 -125 41.5 -179t116.5 -54q69 0 101 41.5t45 122.5l56 -10q-7 -42 -18 -79t-31.5 -64.5t-52.5 -45t-80 -21.5v-118h-47v117
q-101 7 -156 77.5t-55 212.5q0 140 54 212.5t157 80.5v118h47z" />
    <glyph glyph-name="sterling" unicode="&#xa3;" horiz-adv-x="543" 
d="M414 492q-1 78 -21.5 118.5t-77.5 40.5q-33 0 -54 -12.5t-33 -34.5t-16.5 -51.5t-4.5 -62.5q0 -24 3.5 -43t8.5 -35t10.5 -31t10.5 -30h157l-4 -51h-144v-9q0 -41 -9.5 -83.5t-36.5 -87.5q22 -8 42 -19t40.5 -21t41 -17.5t42.5 -7.5q33 0 66 18.5t58 68.5l12 -55
q-11 -29 -27.5 -48.5t-36.5 -31t-41 -16t-39 -4.5q-33 0 -60 11.5t-52 26t-50.5 26t-53.5 11.5q-35 0 -57.5 -20t-46.5 -55l-19 43q7 16 18 33t25.5 31.5t34 24.5t44.5 11q20 37 28 72.5t8 65.5q0 17 -3 32h-91l4 51h74q-5 15 -11 31t-11 34.5t-8 40t-3 47.5q0 39 7.5 76.5
t27 67.5t53.5 48t87 18q48 0 80.5 -15.5t51.5 -44t27 -68t8 -86.5z" />
    <glyph glyph-name="currency" unicode="&#xa4;" horiz-adv-x="515" 
d="M128 504q24 23 56 35.5t70 12.5t70 -12.5t56 -35.5l79 79l33 -33l-82 -82q17 -26 26 -57t9 -66q0 -70 -35 -122l85 -85l-33 -33l-82 82q-24 -23 -56 -35t-70 -12q-76 0 -126 47l-78 -79l-33 33l81 82q-17 26 -25 57t-8 65q0 69 34 123l-82 82l33 33zM254 510
q-34 0 -60.5 -13t-45 -35.5t-28 -52.5t-9.5 -64q0 -33 9.5 -62.5t28 -52t45 -35.5t60.5 -13t60.5 13t45 35.5t28.5 52t10 62.5q0 34 -9.5 64t-28 52.5t-45.5 35.5t-61 13z" />
    <glyph glyph-name="yen" unicode="&#xa5;" horiz-adv-x="516" 
d="M118 701l147 -290l150 290h67l-172 -327h163l-4 -51h-171v-108h175l-4 -51h-171v-164h-83v164h-172l3 51h169v108h-172l3 51h157l-171 327h86z" />
    <glyph glyph-name="brokenbar" unicode="&#xa6;" horiz-adv-x="287" 
d="M167 761v-377h-47v377h47zM167 228v-378h-47v378h47z" />
    <glyph glyph-name="section" unicode="&#xa7;" horiz-adv-x="464" 
d="M350 547q-4 71 -32 106t-91 35q-57 0 -79.5 -26t-22.5 -59q0 -52 49 -76q15 -8 35 -14.5t42.5 -13.5t45 -15t42.5 -20q38 -22 55.5 -53t17.5 -80q0 -52 -20 -86t-62 -57q47 -26 63 -58.5t16 -72.5q0 -77 -46.5 -117t-127.5 -40q-43 0 -77 11.5t-59 37t-40 65.5t-19 98
l53 9q8 -85 42.5 -124.5t99.5 -39.5q54 0 80.5 24.5t26.5 68.5q0 24 -10.5 43t-42.5 36q-17 9 -37.5 16.5t-42 15.5t-42.5 16t-37 18q-34 21 -53 54.5t-19 81.5q0 44 17.5 81t56.5 61q-1 0 -1 1q-29 17 -49.5 46.5t-20.5 80.5q0 27 7.5 53t26 46t49 32t77.5 12t80.5 -13
t55 -37.5t32 -59.5t13.5 -79zM296 409q-26 13 -60 22.5t-67 23.5q-28 -23 -40 -54t-12 -60q0 -66 54 -95q22 -11 52.5 -19t62.5 -20q64 40 64 112q0 30 -12 52t-42 38z" />
    <glyph glyph-name="dieresis" unicode="&#xa8;" horiz-adv-x="383" 
d="M95 682q20 0 34.5 -14.5t14.5 -35.5q0 -20 -14.5 -34.5t-34.5 -14.5t-34 14.5t-14 34.5q0 21 14 35.5t34 14.5zM286 682q20 0 34.5 -14.5t14.5 -35.5q0 -20 -14.5 -34.5t-34.5 -14.5t-34 14.5t-14 34.5q0 21 14 35.5t34 14.5z" />
    <glyph glyph-name="copyright" unicode="&#xa9;" horiz-adv-x="747" 
d="M378 707q72 0 130.5 -25t99.5 -71.5t63.5 -114t22.5 -151.5q0 -83 -22 -149.5t-63.5 -113t-100.5 -71.5t-132 -25q-75 0 -135 25t-101.5 71.5t-64 113t-22.5 148.5q0 84 23.5 151t66 114.5t102.5 72.5t133 25zM378 670q-60 0 -111.5 -22t-89.5 -63.5t-59.5 -102
t-21.5 -137.5q0 -78 22 -138t60 -101t89 -62t110 -21q62 0 112.5 23t86.5 65t55.5 101.5t19.5 133.5q0 78 -21.5 138.5t-58 102t-86.5 62.5t-107 21zM478 404q-3 26 -8.5 49t-16 39.5t-27.5 26t-42 9.5q-53 0 -80.5 -43t-27.5 -135q0 -93 28 -133.5t79 -40.5q45 0 68 29.5
t32 94.5l36 -8q-4 -33 -12 -61.5t-23.5 -49.5t-40.5 -33t-63 -12q-75 0 -116 51.5t-41 162.5q0 110 41 164.5t119 54.5q28 0 51 -8t40 -27t27.5 -49.5t13.5 -76.5z" />
    <glyph glyph-name="ordfeminine" unicode="&#xaa;" horiz-adv-x="379" 
d="M53 584q3 27 10.5 48t22 35.5t37.5 22.5t59 8q67 0 93 -30t26 -98v-138q0 -26 5.5 -36t25.5 -10h13l-5 -44h-34q-26 0 -39.5 12t-18.5 32q-17 -24 -40.5 -38t-62.5 -14q-56 0 -80 29t-24 75q0 33 11.5 55t36 36.5t63 22.5t92.5 13v9q0 44 -12.5 61.5t-51.5 17.5
q-43 0 -61 -19t-26 -54zM158 381q31 0 51 14t35 37v99q-39 -4 -67 -10t-46 -16t-26.5 -25t-8.5 -37q0 -28 14 -45t48 -17zM321 251l-4 -49h-266l3 49h267z" />
    <glyph glyph-name="guillemotleft" unicode="&#xab;" horiz-adv-x="488" 
d="M29 0zM457 479l-156 -235l156 -235l-37 -20l-201 255l201 254zM267 479l-156 -235l156 -235l-37 -20l-201 255l201 254z" />
    <glyph glyph-name="logicalnot" unicode="&#xac;" horiz-adv-x="515" 
d="M463 387v-387h-47v340h-364v47h411z" />
    <glyph glyph-name="uni00AD" unicode="&#xad;" horiz-adv-x="329" 
d="M51 284zM280 349l-6 -65h-223l5 65h224z" />
    <glyph glyph-name="registered" unicode="&#xae;" horiz-adv-x="747" 
d="M378 707q72 0 130.5 -25t99.5 -71.5t63.5 -114t22.5 -151.5q0 -83 -22 -149.5t-63.5 -113t-100.5 -71.5t-132 -25q-75 0 -135 25t-101.5 71.5t-64 113t-22.5 148.5q0 84 23.5 151t66 114.5t102.5 72.5t133 25zM378 670q-60 0 -111.5 -22t-89.5 -63.5t-59.5 -102
t-21.5 -137.5q0 -78 22 -138t60 -101t89 -62t110 -21q62 0 112.5 23t86.5 65t55.5 101.5t19.5 133.5q0 78 -21.5 138.5t-58 102t-86.5 62.5t-107 21zM374 560q34 0 60 -6t43 -21t25.5 -41.5t8.5 -67.5q0 -72 -25 -104t-76 -40q8 -52 35 -82.5t67 -30.5h12l-4 -25
q-18 -7 -38 -7q-21 0 -40 9t-33.5 25.5t-23 40t-8.5 53.5v7.5t1 8.5h-83v-136h-51v417h130zM295 317h80q45 0 65 23t20 82q0 58 -20 77.5t-64 19.5h-81v-202z" />
    <glyph glyph-name="macron" unicode="&#xaf;" horiz-adv-x="416" 
d="M368 684l-5 -59h-316l4 59h317z" />
    <glyph glyph-name="degree" unicode="&#xb0;" horiz-adv-x="339" 
d="M169 663q-41 0 -62.5 -29t-21.5 -70q0 -39 22 -68t62 -29t62.5 29t22.5 68q0 41 -22.5 70t-62.5 29zM169 703q29 0 53 -11t41 -29.5t26 -44t9 -54.5q0 -28 -9 -53t-26 -44t-40.5 -30t-53.5 -11t-53.5 11t-39.5 30t-24.5 44t-8.5 53q0 29 8.5 54.5t25 44t40 29.5t52.5 11z
" />
    <glyph glyph-name="plusminus" unicode="&#xb1;" horiz-adv-x="515" 
d="M52 17zM281 553v-182h182v-47h-182v-182h-47v182h-182v47h182v182h47zM463 64v-47h-411v47h411z" />
    <glyph glyph-name="twosuperior" unicode="&#xb2;" horiz-adv-x="366" 
d="M47 308zM58 581q1 27 6.5 50.5t18.5 40t36.5 26t60.5 9.5q61 0 92 -27.5t31 -87.5q0 -27 -6 -46t-17.5 -34.5t-28.5 -28.5t-39 -27q-17 -11 -31 -19.5t-27 -17.5t-24.5 -20t-22.5 -27q19 6 40 6q30 0 55 -8.5t44 -8.5q12 0 19 7t7 27q0 13 -3 24h41q2 -8 3 -18t1 -18
q0 -36 -17.5 -53t-45.5 -17q-12 0 -28.5 3t-33.5 6l-34 6t-31 3q-17 0 -33 -5t-35 -18l-9 39q23 48 54 78t73 59q19 14 32.5 25.5t22 23t12 24.5t3.5 31q0 41 -16 56.5t-51 15.5q-41 0 -55 -20t-18 -62z" />
    <glyph glyph-name="threesuperior" unicode="&#xb3;" horiz-adv-x="362" 
d="M45 308zM60 596q1 24 6.5 44.5t18.5 35.5t35 23.5t57 8.5q64 0 91 -27.5t27 -75.5q0 -60 -42 -82q26 -11 41 -33t15 -62q0 -53 -30.5 -86.5t-103.5 -33.5q-35 0 -58.5 7.5t-38.5 21t-22.5 31t-10.5 37.5l49 14q6 -31 22.5 -46.5t55.5 -15.5q46 0 62.5 19.5t16.5 54.5
q0 41 -19.5 54.5t-61.5 13.5h-39l6 41h35q33 0 50.5 13t17.5 48q0 31 -15.5 45t-50.5 14q-38 0 -50.5 -15.5t-15.5 -50.5z" />
    <glyph glyph-name="acute" unicode="&#xb4;" horiz-adv-x="291" 
d="M219 748l-105 -209l-51 20l85 220z" />
    <glyph glyph-name="paragraph" unicode="&#xb6;" horiz-adv-x="564" 
d="M421 701v-833q0 -32 12 -48.5t40 -16.5q29 0 41 17.5t18 43.5l34 -29q-3 -17 -10.5 -32.5t-20.5 -28.5t-32.5 -20.5t-47.5 -7.5q-54 0 -79.5 31t-25.5 86v779h-116q0 -182 -7 -308.5t-19 -212.5t-28 -138t-35 -83l-50 25q13 28 25.5 69.5t22 108.5t16 163.5t8.5 234.5
h-23q-45 0 -68.5 27t-23.5 70q0 45 23.5 74t68.5 29h277z" />
    <glyph glyph-name="periodcentered" unicode="&#xb7;" horiz-adv-x="200" 
d="M52 282zM100 381q20 0 34.5 -14.5t14.5 -35.5q0 -20 -14.5 -34.5t-34.5 -14.5t-34 14.5t-14 34.5q0 21 14 35.5t34 14.5z" />
    <glyph glyph-name="cedilla" unicode="&#xb8;" horiz-adv-x="243" 
d="M174 -53l-65 -201l-47 10l44 209z" />
    <glyph glyph-name="onesuperior" unicode="&#xb9;" horiz-adv-x="264" 
d="M39 315zM172 704q-2 -17 -2 -36.5v-40.5v-312h-60v301q-11 -7 -27 -10.5t-38 -5.5l-6 38q21 2 35.5 6t24.5 12.5t17 21t13 30.5z" />
    <glyph glyph-name="ordmasculine" unicode="&#xba;" horiz-adv-x="379" 
d="M185 698q42 0 69 -13.5t43 -37t22.5 -56t6.5 -71.5q0 -43 -7.5 -77.5t-24 -58.5t-43.5 -37t-66 -13t-65.5 13t-43 37t-23.5 58.5t-7 77.5q0 39 6 71.5t22 56t43 37t68 13.5zM185 653q-49 0 -65.5 -36t-16.5 -98q0 -71 18.5 -105.5t63.5 -34.5q47 0 65.5 34.5t18.5 105.5
q0 31 -3.5 55.5t-13 42t-26 27t-41.5 9.5zM321 251l-4 -49h-266l3 49h267z" />
    <glyph glyph-name="guillemotright" unicode="&#xbb;" horiz-adv-x="488" 
d="M29 0zM256 498l201 -254l-201 -255l-37 20l156 235l-156 235zM66 498l201 -254l-201 -255l-37 20l156 235l-156 235z" />
    <glyph glyph-name="onequarter" unicode="&#xbc;" horiz-adv-x="683" 
d="M63 0zM563 701l-409 -701h-56l407 701h58zM196 704q-2 -17 -2 -36.5v-40.5v-312h-60v301q-11 -7 -27 -10.5t-38 -5.5l-6 38q21 2 35.5 6t24.5 12.5t17 21t13 30.5zM574 386v-249h44l-3 -49h-41v-88h-59v88h-165v37l162 261h62zM515 137v164l-104 -164h104z" />
    <glyph glyph-name="onehalf" unicode="&#xbd;" horiz-adv-x="719" 
d="M63 0zM563 701l-409 -701h-56l407 701h58zM196 704q-2 -17 -2 -36.5v-40.5v-312h-60v301q-11 -7 -27 -10.5t-38 -5.5l-6 38q21 2 35.5 6t24.5 12.5t17 21t13 30.5zM399 266q1 27 6.5 50.5t18.5 40t36.5 26t60.5 9.5q61 0 92 -27.5t31 -87.5q0 -27 -6 -46t-17.5 -34.5
t-28.5 -28.5t-39 -27q-17 -11 -31 -19.5t-27 -17.5t-24.5 -20t-22.5 -27q19 6 40 6q30 0 55 -8.5t44 -8.5q12 0 19 7t7 27q0 13 -3 24h41q2 -8 3 -18t1 -18q0 -36 -17.5 -53t-45.5 -17q-12 0 -28.5 3t-33.5 6l-34 6t-31 3q-17 0 -33 -5t-35 -18l-9 39q23 48 54 78t73 59
q19 14 32.5 25.5t22 23t12 24.5t3.5 31q0 41 -16 56.5t-51 15.5q-41 0 -55 -20t-18 -62z" />
    <glyph glyph-name="threequarters" unicode="&#xbe;" horiz-adv-x="749" 
d="M63 0zM628 701l-409 -701h-56l407 701h58zM641 386v-249h44l-3 -49h-41v-88h-59v88h-165v37l162 261h62zM582 137v164l-104 -164h104zM78 596q1 24 6.5 44.5t18.5 35.5t35 23.5t57 8.5q64 0 91 -27.5t27 -75.5q0 -60 -42 -82q26 -11 41 -33t15 -62q0 -53 -30.5 -86.5
t-103.5 -33.5q-35 0 -58.5 7.5t-38.5 21t-22.5 31t-10.5 37.5l49 14q6 -31 22.5 -46.5t55.5 -15.5q46 0 62.5 19.5t16.5 54.5q0 41 -19.5 54.5t-61.5 13.5h-39l6 41h35q33 0 50.5 13t17.5 48q0 31 -15.5 45t-50.5 14q-38 0 -50.5 -15.5t-15.5 -50.5z" />
    <glyph glyph-name="questiondown" unicode="&#xbf;" horiz-adv-x="463" 
d="M410 17q-1 -47 -9 -83.5t-28.5 -62t-56.5 -38.5t-93 -13q-42 0 -75 8.5t-55.5 27.5t-34 50t-11.5 76q0 28 6.5 59t27.5 63q13 19 28.5 36t31.5 33t31 31.5t26 32.5q13 19 18 37.5t5 40.5q0 14 -1.5 24t-4.5 20h64q3 -9 5 -20t2 -29q0 -26 -5 -49t-17 -44
q-10 -18 -24 -34.5t-29 -33l-30 -33t-25 -32.5q-16 -24 -21.5 -46t-5.5 -46q0 -58 25 -81.5t79 -23.5q34 0 56 8t35.5 25.5t19 44t5.5 62.5zM246 456q-19 0 -33.5 14.5t-14.5 35.5q0 20 14.5 34.5t33.5 14.5q20 0 34.5 -14.5t14.5 -34.5q0 -21 -14.5 -35.5t-34.5 -14.5z" />
    <glyph glyph-name="Agrave" unicode="&#xc0;" 
d="M25 0zM342 701l217 -701h-93l-54 182h-257l-53 -182h-77l217 701h100zM175 250h217l-109 366zM254 945l87 -203l-50 -19l-108 193z" />
    <glyph glyph-name="Aacute" unicode="&#xc1;" 
d="M25 0zM342 701l217 -701h-93l-54 182h-257l-53 -182h-77l217 701h100zM175 250h217l-109 366zM401 916l-108 -193l-50 19l87 203z" />
    <glyph glyph-name="Acircumflex" unicode="&#xc2;" 
d="M25 0zM342 701l217 -701h-93l-54 182h-257l-53 -182h-77l217 701h100zM175 250h217l-109 366zM321 929l132 -176l-50 -20l-112 133l-112 -133l-49 20l132 176h59z" />
    <glyph glyph-name="Atilde" unicode="&#xc3;" 
d="M25 0zM342 701l217 -701h-93l-54 182h-257l-53 -182h-77l217 701h100zM175 250h217l-109 366zM115 814q0 94 84 94q26 0 51.5 -9.5t48.5 -25.5q18 -13 34.5 -20t36.5 -7q21 0 33.5 11.5t12.5 44.5l52 -19q0 -94 -85 -94q-26 0 -51 9.5t-48 25.5q-17 13 -34.5 20t-37.5 7
q-21 0 -33.5 -11.5t-12.5 -43.5z" />
    <glyph glyph-name="Adieresis" unicode="&#xc4;" 
d="M25 0zM342 701l217 -701h-93l-54 182h-257l-53 -182h-77l217 701h100zM175 250h217l-109 366zM196 893q20 0 34.5 -13.5t14.5 -32.5t-14.5 -32.5t-34.5 -13.5t-34.5 13.5t-14.5 32.5t14.5 32.5t34.5 13.5zM387 893q20 0 34.5 -13.5t14.5 -32.5t-14.5 -32.5t-34.5 -13.5
t-34.5 13.5t-14.5 32.5t14.5 32.5t34.5 13.5z" />
    <glyph glyph-name="Aring" unicode="&#xc5;" 
d="M25 0zM342 701l217 -701h-93l-54 182h-257l-53 -182h-77l217 701h100zM175 250h217l-109 366zM290 945q54 0 87 -31.5t33 -82.5q0 -50 -33 -81t-87 -31q-55 0 -87 31t-32 81q0 51 32 82.5t87 31.5zM290 907q-36 0 -55.5 -21t-19.5 -55t19.5 -54t55.5 -20q35 0 56 20
t21 54t-21 55t-56 21z" />
    <glyph glyph-name="AE" unicode="&#xc6;" horiz-adv-x="786" 
d="M733 701l-8 -67h-264v-232h207l-8 -63h-199v-272h280l-8 -67h-365v182h-213l-53 -182h-77l217 701h491zM288 634l-113 -384h193v384h-80z" />
    <glyph glyph-name="Ccedilla" unicode="&#xc7;" horiz-adv-x="615" 
d="M61 0zM489 438q-4 44 -13 82.5t-27 66.5t-46 44t-71 16q-89 0 -135.5 -72.5t-46.5 -226.5q0 -78 12 -133.5t35 -90.5t56.5 -51.5t76.5 -16.5q75 0 113.5 49.5t53.5 157.5l62 -12q-8 -56 -21.5 -104t-39.5 -83.5t-68 -55.5t-105 -20q-126 0 -195 87t-69 273
q0 185 68.5 276t200.5 91q48 0 86 -13t66.5 -44.5t46 -83t23.5 -128.5zM347 -53l-65 -201l-47 10l44 209z" />
    <glyph glyph-name="Egrave" unicode="&#xc8;" horiz-adv-x="520" 
d="M76 0zM469 701l-9 -67h-291v-232h234l-9 -63h-225v-272h307l-9 -67h-391v701h393zM239 945l87 -203l-50 -19l-108 193z" />
    <glyph glyph-name="Eacute" unicode="&#xc9;" horiz-adv-x="520" 
d="M76 0zM469 701l-9 -67h-291v-232h234l-9 -63h-225v-272h307l-9 -67h-391v701h393zM381 916l-108 -193l-50 19l87 203z" />
    <glyph glyph-name="Ecircumflex" unicode="&#xca;" horiz-adv-x="520" 
d="M76 0zM469 701l-9 -67h-291v-232h234l-9 -63h-225v-272h307l-9 -67h-391v701h393zM305 929l132 -176l-50 -20l-112 133l-112 -133l-49 20l132 176h59z" />
    <glyph glyph-name="Edieresis" unicode="&#xcb;" horiz-adv-x="520" 
d="M76 0zM469 701l-9 -67h-291v-232h234l-9 -63h-225v-272h307l-9 -67h-391v701h393zM177 893q20 0 34.5 -13.5t14.5 -32.5t-14.5 -32.5t-34.5 -13.5t-34.5 13.5t-14.5 32.5t14.5 32.5t34.5 13.5zM368 893q20 0 34.5 -13.5t14.5 -32.5t-14.5 -32.5t-34.5 -13.5t-34.5 13.5
t-14.5 32.5t14.5 32.5t34.5 13.5z" />
    <glyph glyph-name="Igrave" unicode="&#xcc;" horiz-adv-x="238" 
d="M11 0zM163 701v-701h-87v701h87zM82 945l87 -203l-50 -19l-108 193z" />
    <glyph glyph-name="Iacute" unicode="&#xcd;" horiz-adv-x="238" 
d="M71 0zM163 701v-701h-87v701h87zM229 916l-108 -193l-50 19l87 203z" />
    <glyph glyph-name="Icircumflex" unicode="&#xce;" horiz-adv-x="278" 
d="M0 0zM184 701v-701h-87v701h87zM169 929l132 -176l-50 -20l-112 133l-112 -133l-49 20l132 176h59z" />
    <glyph glyph-name="Idieresis" unicode="&#xcf;" horiz-adv-x="276" 
d="M0 0zM182 701v-701h-87v701h87zM42 893q20 0 34.5 -13.5t14.5 -32.5t-14.5 -32.5t-34.5 -13.5t-34.5 13.5t-14.5 32.5t14.5 32.5t34.5 13.5zM233 893q20 0 34.5 -13.5t14.5 -32.5t-14.5 -32.5t-34.5 -13.5t-34.5 13.5t-14.5 32.5t14.5 32.5t34.5 13.5z" />
    <glyph glyph-name="Eth" unicode="&#xd0;" horiz-adv-x="633" 
d="M300 701q78 0 130 -17.5t83.5 -58t44.5 -107t13 -163.5q0 -99 -13.5 -166.5t-45 -109.5t-83.5 -60.5t-129 -18.5h-213v339h-80l8 63h72v299h213zM173 402h195l-9 -63h-186v-271h126q53 0 88.5 16.5t56.5 51.5t30 90.5t9 132.5q0 76 -8.5 128.5t-29.5 85t-57 47t-91 14.5
h-124v-232z" />
    <glyph glyph-name="Ntilde" unicode="&#xd1;" horiz-adv-x="628" 
d="M76 0zM174 701l307 -571v571h71v-701h-95l-312 577v-577h-69v701h98zM140 814q0 94 84 94q26 0 51.5 -9.5t48.5 -25.5q18 -13 34.5 -20t36.5 -7q21 0 33.5 11.5t12.5 44.5l52 -19q0 -94 -85 -94q-26 0 -51 9.5t-48 25.5q-17 13 -34.5 20t-37.5 7q-21 0 -33.5 -11.5
t-12.5 -43.5z" />
    <glyph glyph-name="Ograve" unicode="&#xd2;" horiz-adv-x="632" 
d="M61 0zM320 714q66 0 114 -21t79 -65t45.5 -113t14.5 -165q0 -87 -13 -155t-43 -114t-79 -70t-122 -24q-67 0 -115 20.5t-79 64.5t-46 113t-15 166q0 85 12.5 152t42.5 114t80 72t124 25zM320 646q-49 0 -82 -20t-52.5 -57.5t-28 -92t-8.5 -124.5q0 -77 8.5 -132.5
t28.5 -92t52 -54t79 -17.5q49 0 81.5 18.5t51.5 55t26.5 91.5t7.5 127q0 77 -8.5 133t-28 93t-50.5 54.5t-77 17.5zM279 945l87 -203l-50 -19l-108 193z" />
    <glyph glyph-name="Oacute" unicode="&#xd3;" horiz-adv-x="632" 
d="M61 0zM320 714q66 0 114 -21t79 -65t45.5 -113t14.5 -165q0 -87 -13 -155t-43 -114t-79 -70t-122 -24q-67 0 -115 20.5t-79 64.5t-46 113t-15 166q0 85 12.5 152t42.5 114t80 72t124 25zM320 646q-49 0 -82 -20t-52.5 -57.5t-28 -92t-8.5 -124.5q0 -77 8.5 -132.5
t28.5 -92t52 -54t79 -17.5q49 0 81.5 18.5t51.5 55t26.5 91.5t7.5 127q0 77 -8.5 133t-28 93t-50.5 54.5t-77 17.5zM427 916l-108 -193l-50 19l87 203z" />
    <glyph glyph-name="Ocircumflex" unicode="&#xd4;" horiz-adv-x="632" 
d="M61 0zM320 714q66 0 114 -21t79 -65t45.5 -113t14.5 -165q0 -87 -13 -155t-43 -114t-79 -70t-122 -24q-67 0 -115 20.5t-79 64.5t-46 113t-15 166q0 85 12.5 152t42.5 114t80 72t124 25zM320 646q-49 0 -82 -20t-52.5 -57.5t-28 -92t-8.5 -124.5q0 -77 8.5 -132.5
t28.5 -92t52 -54t79 -17.5q49 0 81.5 18.5t51.5 55t26.5 91.5t7.5 127q0 77 -8.5 133t-28 93t-50.5 54.5t-77 17.5zM346 929l132 -176l-50 -20l-112 133l-112 -133l-49 20l132 176h59z" />
    <glyph glyph-name="Otilde" unicode="&#xd5;" horiz-adv-x="632" 
d="M61 0zM320 714q66 0 114 -21t79 -65t45.5 -113t14.5 -165q0 -87 -13 -155t-43 -114t-79 -70t-122 -24q-67 0 -115 20.5t-79 64.5t-46 113t-15 166q0 85 12.5 152t42.5 114t80 72t124 25zM320 646q-49 0 -82 -20t-52.5 -57.5t-28 -92t-8.5 -124.5q0 -77 8.5 -132.5
t28.5 -92t52 -54t79 -17.5q49 0 81.5 18.5t51.5 55t26.5 91.5t7.5 127q0 77 -8.5 133t-28 93t-50.5 54.5t-77 17.5zM139 814q0 94 84 94q26 0 51.5 -9.5t48.5 -25.5q18 -13 34.5 -20t36.5 -7q21 0 33.5 11.5t12.5 44.5l52 -19q0 -94 -85 -94q-26 0 -51 9.5t-48 25.5
q-17 13 -34.5 20t-37.5 7q-21 0 -33.5 -11.5t-12.5 -43.5z" />
    <glyph glyph-name="Odieresis" unicode="&#xd6;" horiz-adv-x="632" 
d="M61 0zM320 714q66 0 114 -21t79 -65t45.5 -113t14.5 -165q0 -87 -13 -155t-43 -114t-79 -70t-122 -24q-67 0 -115 20.5t-79 64.5t-46 113t-15 166q0 85 12.5 152t42.5 114t80 72t124 25zM320 646q-49 0 -82 -20t-52.5 -57.5t-28 -92t-8.5 -124.5q0 -77 8.5 -132.5
t28.5 -92t52 -54t79 -17.5q49 0 81.5 18.5t51.5 55t26.5 91.5t7.5 127q0 77 -8.5 133t-28 93t-50.5 54.5t-77 17.5zM220 893q20 0 34.5 -13.5t14.5 -32.5t-14.5 -32.5t-34.5 -13.5t-34.5 13.5t-14.5 32.5t14.5 32.5t34.5 13.5zM411 893q20 0 34.5 -13.5t14.5 -32.5
t-14.5 -32.5t-34.5 -13.5t-34.5 13.5t-14.5 32.5t14.5 32.5t34.5 13.5z" />
    <glyph glyph-name="multiply" unicode="&#xd7;" horiz-adv-x="515" 
d="M255 380l153 153l33 -34l-152 -152l156 -155l-34 -34l-156 156l-151 -153l-34 34l152 152l-152 152l34 34z" />
    <glyph glyph-name="Oslash" unicode="&#xd8;" horiz-adv-x="632" 
d="M320 714q80 0 133 -31l59 118h60l-76 -152q40 -44 58.5 -117t18.5 -182q0 -87 -13 -155t-43 -114t-79 -70t-122 -24q-82 0 -136 30l-58 -117h-60l76 152q-40 43 -58.5 116t-18.5 183q0 85 12.5 152t42.5 114t80 72t124 25zM484 348q0 72 -7 125t-24 90l-237 -474
q37 -33 101 -33q49 0 81.5 18.5t51.5 55t26.5 91.5t7.5 127zM320 646q-49 0 -82 -20t-52.5 -57.5t-28 -92t-8.5 -124.5q0 -72 7.5 -125t24.5 -89l237 475q-38 33 -98 33z" />
    <glyph glyph-name="Ugrave" unicode="&#xd9;" horiz-adv-x="588" 
d="M71 0zM158 701v-449q0 -100 30.5 -148t107.5 -48q80 0 111.5 50t31.5 157v438h78v-452q0 -126 -52 -193.5t-172 -67.5q-60 0 -102.5 17.5t-69 50.5t-38.5 81.5t-12 111.5v452h87zM256 945l87 -203l-50 -19l-108 193z" />
    <glyph glyph-name="Uacute" unicode="&#xda;" horiz-adv-x="588" 
d="M71 0zM158 701v-449q0 -100 30.5 -148t107.5 -48q80 0 111.5 50t31.5 157v438h78v-452q0 -126 -52 -193.5t-172 -67.5q-60 0 -102.5 17.5t-69 50.5t-38.5 81.5t-12 111.5v452h87zM403 916l-108 -193l-50 19l87 203z" />
    <glyph glyph-name="Ucircumflex" unicode="&#xdb;" horiz-adv-x="588" 
d="M71 0zM158 701v-449q0 -100 30.5 -148t107.5 -48q80 0 111.5 50t31.5 157v438h78v-452q0 -126 -52 -193.5t-172 -67.5q-60 0 -102.5 17.5t-69 50.5t-38.5 81.5t-12 111.5v452h87zM324 929l132 -176l-50 -20l-112 133l-112 -133l-49 20l132 176h59z" />
    <glyph glyph-name="Udieresis" unicode="&#xdc;" horiz-adv-x="588" 
d="M71 0zM158 701v-449q0 -100 30.5 -148t107.5 -48q80 0 111.5 50t31.5 157v438h78v-452q0 -126 -52 -193.5t-172 -67.5q-60 0 -102.5 17.5t-69 50.5t-38.5 81.5t-12 111.5v452h87zM198 893q20 0 34.5 -13.5t14.5 -32.5t-14.5 -32.5t-34.5 -13.5t-34.5 13.5t-14.5 32.5
t14.5 32.5t34.5 13.5zM389 893q20 0 34.5 -13.5t14.5 -32.5t-14.5 -32.5t-34.5 -13.5t-34.5 13.5t-14.5 32.5t14.5 32.5t34.5 13.5z" />
    <glyph glyph-name="Yacute" unicode="&#xdd;" horiz-adv-x="514" 
d="M23 0zM111 701l155 -341l157 341h69l-191 -407v-294h-87v294l-191 407h88zM376 916l-108 -193l-50 19l87 203z" />
    <glyph glyph-name="Thorn" unicode="&#xde;" horiz-adv-x="557" 
d="M162 701v-129h120q116 0 171.5 -48t55.5 -164q0 -118 -56 -172t-169 -54h-122v-134h-86v701h86zM162 203h125q71 0 103 38t32 116t-32 111.5t-104 33.5h-124v-299z" />
    <glyph glyph-name="germandbls" unicode="&#xdf;" horiz-adv-x="584" 
d="M152 0h-83v556q0 52 15.5 89t42 60t62 34t76.5 11q96 0 142 -51t46 -136q0 -55 -17 -90.5t-45 -55.5q28 -6 53.5 -19.5t44.5 -36.5t30 -57t11 -81q0 -60 -16.5 -103.5t-45 -72t-65.5 -42.5t-77 -14q-48 0 -82 17t-54 43l16 51q47 -49 106 -49q26 0 50.5 9t43 29t30 52
t11.5 78q0 49 -12.5 79.5t-34.5 47.5t-52.5 23t-65.5 6h-36v57h22q51 0 77.5 32t26.5 94q0 60 -26 94t-83 34q-51 0 -81 -30.5t-30 -97.5v-560z" />
    <glyph glyph-name="agrave" unicode="&#xe0;" horiz-adv-x="501" 
d="M46 0zM63 339q5 37 15 67t30.5 50.5t53 31.5t82.5 11q47 0 79 -10.5t51.5 -32t28 -55.5t8.5 -81v-194q0 -36 8.5 -50.5t35.5 -14.5h18l-7 -61h-47q-37 0 -56 16.5t-26 44.5q-24 -33 -57 -52.5t-87 -19.5q-39 0 -67 10.5t-46 30t-26 46.5t-8 59q0 46 16 77t50.5 51.5
t89 32t130.5 17.5v12q0 30 -4 51.5t-14 34.5t-27.5 19t-44.5 6q-61 0 -86.5 -26t-35.5 -76zM211 54q43 0 71.5 19.5t49.5 52.5v139q-55 -5 -94.5 -13.5t-65 -22.5t-37.5 -35.5t-12 -52.5q0 -38 20 -62.5t68 -24.5zM203 779l85 -220l-50 -20l-106 209z" />
    <glyph glyph-name="aacute" unicode="&#xe1;" horiz-adv-x="501" 
d="M46 0zM63 339q5 37 15 67t30.5 50.5t53 31.5t82.5 11q47 0 79 -10.5t51.5 -32t28 -55.5t8.5 -81v-194q0 -36 8.5 -50.5t35.5 -14.5h18l-7 -61h-47q-37 0 -56 16.5t-26 44.5q-24 -33 -57 -52.5t-87 -19.5q-39 0 -67 10.5t-46 30t-26 46.5t-8 59q0 46 16 77t50.5 51.5
t89 32t130.5 17.5v12q0 30 -4 51.5t-14 34.5t-27.5 19t-44.5 6q-61 0 -86.5 -26t-35.5 -76zM211 54q43 0 71.5 19.5t49.5 52.5v139q-55 -5 -94.5 -13.5t-65 -22.5t-37.5 -35.5t-12 -52.5q0 -38 20 -62.5t68 -24.5zM348 748l-105 -209l-51 20l85 220z" />
    <glyph glyph-name="acircumflex" unicode="&#xe2;" horiz-adv-x="501" 
d="M46 0zM63 339q5 37 15 67t30.5 50.5t53 31.5t82.5 11q47 0 79 -10.5t51.5 -32t28 -55.5t8.5 -81v-194q0 -36 8.5 -50.5t35.5 -14.5h18l-7 -61h-47q-37 0 -56 16.5t-26 44.5q-24 -33 -57 -52.5t-87 -19.5q-39 0 -67 10.5t-46 30t-26 46.5t-8 59q0 46 16 77t50.5 51.5
t89 32t130.5 17.5v12q0 30 -4 51.5t-14 34.5t-27.5 19t-44.5 6q-61 0 -86.5 -26t-35.5 -76zM211 54q43 0 71.5 19.5t49.5 52.5v139q-55 -5 -94.5 -13.5t-65 -22.5t-37.5 -35.5t-12 -52.5q0 -38 20 -62.5t68 -24.5zM273 752l132 -197l-50 -21l-112 149l-112 -149l-50 21
l132 197h60z" />
    <glyph glyph-name="atilde" unicode="&#xe3;" horiz-adv-x="501" 
d="M46 0zM63 339q5 37 15 67t30.5 50.5t53 31.5t82.5 11q47 0 79 -10.5t51.5 -32t28 -55.5t8.5 -81v-194q0 -36 8.5 -50.5t35.5 -14.5h18l-7 -61h-47q-37 0 -56 16.5t-26 44.5q-24 -33 -57 -52.5t-87 -19.5q-39 0 -67 10.5t-46 30t-26 46.5t-8 59q0 46 16 77t50.5 51.5
t89 32t130.5 17.5v12q0 30 -4 51.5t-14 34.5t-27.5 19t-44.5 6q-61 0 -86.5 -26t-35.5 -76zM211 54q43 0 71.5 19.5t49.5 52.5v139q-55 -5 -94.5 -13.5t-65 -22.5t-37.5 -35.5t-12 -52.5q0 -38 20 -62.5t68 -24.5zM67 595q0 101 85 101q26 0 51.5 -10.5t48.5 -26.5
q18 -14 34.5 -21t35.5 -7q21 0 34 12t13 46l52 -20q0 -50 -22 -75t-63 -25q-26 0 -50 9.5t-50 26.5q-17 14 -34.5 21.5t-36.5 7.5q-21 0 -33.5 -12.5t-12.5 -46.5z" />
    <glyph glyph-name="adieresis" unicode="&#xe4;" horiz-adv-x="501" 
d="M46 0zM63 339q5 37 15 67t30.5 50.5t53 31.5t82.5 11q47 0 79 -10.5t51.5 -32t28 -55.5t8.5 -81v-194q0 -36 8.5 -50.5t35.5 -14.5h18l-7 -61h-47q-37 0 -56 16.5t-26 44.5q-24 -33 -57 -52.5t-87 -19.5q-39 0 -67 10.5t-46 30t-26 46.5t-8 59q0 46 16 77t50.5 51.5
t89 32t130.5 17.5v12q0 30 -4 51.5t-14 34.5t-27.5 19t-44.5 6q-61 0 -86.5 -26t-35.5 -76zM211 54q43 0 71.5 19.5t49.5 52.5v139q-55 -5 -94.5 -13.5t-65 -22.5t-37.5 -35.5t-12 -52.5q0 -38 20 -62.5t68 -24.5zM145 682q20 0 34.5 -14.5t14.5 -35.5q0 -20 -14.5 -34.5
t-34.5 -14.5t-34 14.5t-14 34.5q0 21 14 35.5t34 14.5zM336 682q20 0 34.5 -14.5t14.5 -35.5q0 -20 -14.5 -34.5t-34.5 -14.5t-34 14.5t-14 34.5q0 21 14 35.5t34 14.5z" />
    <glyph glyph-name="aring" unicode="&#xe5;" horiz-adv-x="501" 
d="M46 0zM63 339q5 37 15 67t30.5 50.5t53 31.5t82.5 11q47 0 79 -10.5t51.5 -32t28 -55.5t8.5 -81v-194q0 -36 8.5 -50.5t35.5 -14.5h18l-7 -61h-47q-37 0 -56 16.5t-26 44.5q-24 -33 -57 -52.5t-87 -19.5q-39 0 -67 10.5t-46 30t-26 46.5t-8 59q0 46 16 77t50.5 51.5
t89 32t130.5 17.5v12q0 30 -4 51.5t-14 34.5t-27.5 19t-44.5 6q-61 0 -86.5 -26t-35.5 -76zM211 54q43 0 71.5 19.5t49.5 52.5v139q-55 -5 -94.5 -13.5t-65 -22.5t-37.5 -35.5t-12 -52.5q0 -38 20 -62.5t68 -24.5zM238 784q55 0 87.5 -34.5t32.5 -91.5q0 -56 -32.5 -90
t-87.5 -34q-54 0 -86.5 34t-32.5 90q0 57 32.5 91.5t86.5 34.5zM238 743q-35 0 -55 -23.5t-20 -61.5t20 -61t55 -23t55.5 23t20.5 61t-20.5 61.5t-55.5 23.5z" />
    <glyph glyph-name="ae" unicode="&#xe6;" horiz-adv-x="784" 
d="M413 231q2 -96 31 -137.5t91 -41.5q51 0 83.5 29.5t42.5 99.5l62 -10q-12 -91 -56.5 -136.5t-134.5 -45.5q-66 0 -109 25t-66 80q-19 -46 -62 -75.5t-106 -29.5q-75 0 -109 41t-34 107q0 44 15.5 74.5t50 51t88.5 32.5t132 18v12q0 30 -4 51.5t-14 34.5t-27.5 19t-44.5 6
q-61 0 -86.5 -26t-35.5 -76l-57 5q5 37 15 67t30.5 50.5t53 31.5t82.5 11q106 0 141 -57q24 28 60.5 42.5t88.5 14.5q58 0 96 -18t60 -49.5t31 -75t9 -94.5v-16.5t-1 -14.5h-316zM211 54q43 0 73 21t60 65q-5 23 -7.5 51.5t-2.5 73.5q-55 -5 -95 -13.5t-65.5 -22.5
t-38 -35.5t-12.5 -52.5q0 -38 20 -62.5t68 -24.5zM530 439q-60 0 -86 -38.5t-30 -120.5h237q-1 37 -7.5 66.5t-21 50t-37 31.5t-55.5 11z" />
    <glyph glyph-name="ccedilla" unicode="&#xe7;" horiz-adv-x="491" 
d="M54 0zM373 325q-7 55 -31.5 82.5t-81.5 27.5q-69 0 -98 -44t-29 -146q0 -101 28 -147t94 -46q33 0 54.5 11t35 30t20.5 45t11 56l62 -9q-4 -35 -13 -70t-29.5 -63t-55 -45.5t-89.5 -17.5q-54 0 -92 18t-61 51.5t-33.5 81t-10.5 106.5q0 62 11 109t35.5 79t63 48.5
t93.5 16.5q47 0 79.5 -11.5t53.5 -33t31 -51.5t12 -67zM272 -53l-65 -201l-47 10l44 209z" />
    <glyph glyph-name="egrave" unicode="&#xe8;" horiz-adv-x="504" 
d="M54 0zM133 231q2 -96 31 -137.5t91 -41.5q51 0 83.5 29.5t42.5 99.5l62 -10q-12 -91 -56.5 -136.5t-134.5 -45.5q-100 0 -149 60.5t-49 197.5q0 124 45 188t154 64q58 0 96.5 -18t60.5 -49.5t31 -75t9 -94.5v-16.5t-1 -14.5h-316zM250 439q-60 0 -86 -38.5t-30 -120.5
h237q-1 37 -7.5 66.5t-21 50t-37 31.5t-55.5 11zM216 779l85 -220l-50 -20l-106 209z" />
    <glyph glyph-name="eacute" unicode="&#xe9;" horiz-adv-x="504" 
d="M54 0zM133 231q2 -96 31 -137.5t91 -41.5q51 0 83.5 29.5t42.5 99.5l62 -10q-12 -91 -56.5 -136.5t-134.5 -45.5q-100 0 -149 60.5t-49 197.5q0 124 45 188t154 64q58 0 96.5 -18t60.5 -49.5t31 -75t9 -94.5v-16.5t-1 -14.5h-316zM250 439q-60 0 -86 -38.5t-30 -120.5
h237q-1 37 -7.5 66.5t-21 50t-37 31.5t-55.5 11zM359 748l-105 -209l-51 20l85 220z" />
    <glyph glyph-name="ecircumflex" unicode="&#xea;" horiz-adv-x="504" 
d="M54 0zM133 231q2 -96 31 -137.5t91 -41.5q51 0 83.5 29.5t42.5 99.5l62 -10q-12 -91 -56.5 -136.5t-134.5 -45.5q-100 0 -149 60.5t-49 197.5q0 124 45 188t154 64q58 0 96.5 -18t60.5 -49.5t31 -75t9 -94.5v-16.5t-1 -14.5h-316zM250 439q-60 0 -86 -38.5t-30 -120.5
h237q-1 37 -7.5 66.5t-21 50t-37 31.5t-55.5 11zM282 752l132 -197l-50 -21l-112 149l-112 -149l-50 21l132 197h60z" />
    <glyph glyph-name="edieresis" unicode="&#xeb;" horiz-adv-x="504" 
d="M54 0zM133 231q2 -96 31 -137.5t91 -41.5q51 0 83.5 29.5t42.5 99.5l62 -10q-12 -91 -56.5 -136.5t-134.5 -45.5q-100 0 -149 60.5t-49 197.5q0 124 45 188t154 64q58 0 96.5 -18t60.5 -49.5t31 -75t9 -94.5v-16.5t-1 -14.5h-316zM250 439q-60 0 -86 -38.5t-30 -120.5
h237q-1 37 -7.5 66.5t-21 50t-37 31.5t-55.5 11zM156 682q20 0 34.5 -14.5t14.5 -35.5q0 -20 -14.5 -34.5t-34.5 -14.5t-34 14.5t-14 34.5q0 21 14 35.5t34 14.5zM347 682q20 0 34.5 -14.5t14.5 -35.5q0 -20 -14.5 -34.5t-34.5 -14.5t-34 14.5t-14 34.5q0 21 14 35.5
t34 14.5z" />
    <glyph glyph-name="igrave" unicode="&#xec;" horiz-adv-x="221" 
d="M2 0zM73 779l85 -220l-50 -20l-106 209zM151 487v-487h-82v487h82z" />
    <glyph glyph-name="iacute" unicode="&#xed;" horiz-adv-x="221" 
d="M63 0zM219 748l-105 -209l-51 20l85 220zM151 487v-487h-82v487h82z" />
    <glyph glyph-name="icircumflex" unicode="&#xee;" horiz-adv-x="309" 
d="M0 0zM195 487v-487h-82v487h82zM185 752l132 -197l-50 -21l-112 149l-112 -149l-50 21l132 197h60z" />
    <glyph glyph-name="idieresis" unicode="&#xef;" horiz-adv-x="292" 
d="M2 0zM50 682q20 0 34.5 -14.5t14.5 -35.5q0 -20 -14.5 -34.5t-34.5 -14.5t-34 14.5t-14 34.5q0 21 14 35.5t34 14.5zM241 682q20 0 34.5 -14.5t14.5 -35.5q0 -20 -14.5 -34.5t-34.5 -14.5t-34 14.5t-14 34.5q0 21 14 35.5t34 14.5zM187 487v-487h-82v487h82z" />
    <glyph glyph-name="eth" unicode="&#xf0;" horiz-adv-x="548" 
d="M284 645q-42 35 -99 56l28 51q66 -18 118 -61l68 68l24 -27l-66 -65q64 -66 97.5 -165t33.5 -218q0 -146 -53.5 -220.5t-173.5 -74.5q-57 0 -96 16.5t-64 47t-36 74.5t-11 100q0 53 10 95.5t32 72t57.5 45.5t86.5 16q53 0 91 -16t66 -40q-9 69 -29.5 124t-58.5 97
l-87 -86l-24 25zM405 258q0 17 -0.5 33t-1.5 32q-27 35 -66 52.5t-83 17.5q-34 0 -56.5 -10.5t-36 -31.5t-19 -51.5t-5.5 -70.5q0 -92 28.5 -134.5t100.5 -42.5q74 0 106.5 48t32.5 158z" />
    <glyph glyph-name="ntilde" unicode="&#xf1;" horiz-adv-x="540" 
d="M69 0zM146 487q5 -42 6 -98q42 54 86.5 80t102.5 26q74 0 103.5 -39.5t29.5 -116.5v-339h-82v332q0 48 -17 71t-63 23q-42 0 -79.5 -24t-80.5 -87v-315h-83v487h77zM91 595q0 101 85 101q26 0 51.5 -10.5t48.5 -26.5q18 -14 34.5 -21t35.5 -7q21 0 34 12t13 46l52 -20
q0 -50 -22 -75t-63 -25q-26 0 -50 9.5t-50 26.5q-17 14 -34.5 21.5t-36.5 7.5q-21 0 -33.5 -12.5t-12.5 -46.5z" />
    <glyph glyph-name="ograve" unicode="&#xf2;" horiz-adv-x="500" 
d="M54 0zM249 499q58 0 96.5 -19t60.5 -52t31 -79t9 -100q0 -60 -10 -108t-33.5 -82t-61 -52t-92.5 -18t-92 18t-60 52t-33 82t-10 108q0 54 8.5 100t30.5 79t60 52t96 19zM249 435q-35 0 -57 -13t-35.5 -37.5t-18.5 -59t-5 -77.5q0 -100 26 -148t90 -48q66 0 91.5 48
t25.5 148q0 43 -5 77.5t-18.5 59t-36 37.5t-57.5 13zM213 779l85 -220l-50 -20l-106 209z" />
    <glyph glyph-name="oacute" unicode="&#xf3;" horiz-adv-x="500" 
d="M54 0zM249 499q58 0 96.5 -19t60.5 -52t31 -79t9 -100q0 -60 -10 -108t-33.5 -82t-61 -52t-92.5 -18t-92 18t-60 52t-33 82t-10 108q0 54 8.5 100t30.5 79t60 52t96 19zM249 435q-35 0 -57 -13t-35.5 -37.5t-18.5 -59t-5 -77.5q0 -100 26 -148t90 -48q66 0 91.5 48
t25.5 148q0 43 -5 77.5t-18.5 59t-36 37.5t-57.5 13zM358 748l-105 -209l-51 20l85 220z" />
    <glyph glyph-name="ocircumflex" unicode="&#xf4;" horiz-adv-x="500" 
d="M54 0zM249 499q58 0 96.5 -19t60.5 -52t31 -79t9 -100q0 -60 -10 -108t-33.5 -82t-61 -52t-92.5 -18t-92 18t-60 52t-33 82t-10 108q0 54 8.5 100t30.5 79t60 52t96 19zM249 435q-35 0 -57 -13t-35.5 -37.5t-18.5 -59t-5 -77.5q0 -100 26 -148t90 -48q66 0 91.5 48
t25.5 148q0 43 -5 77.5t-18.5 59t-36 37.5t-57.5 13zM280 752l132 -197l-50 -21l-112 149l-112 -149l-50 21l132 197h60z" />
    <glyph glyph-name="otilde" unicode="&#xf5;" horiz-adv-x="500" 
d="M54 0zM249 499q58 0 96.5 -19t60.5 -52t31 -79t9 -100q0 -60 -10 -108t-33.5 -82t-61 -52t-92.5 -18t-92 18t-60 52t-33 82t-10 108q0 54 8.5 100t30.5 79t60 52t96 19zM249 435q-35 0 -57 -13t-35.5 -37.5t-18.5 -59t-5 -77.5q0 -100 26 -148t90 -48q66 0 91.5 48
t25.5 148q0 43 -5 77.5t-18.5 59t-36 37.5t-57.5 13zM72 595q0 101 85 101q26 0 51.5 -10.5t48.5 -26.5q18 -14 34.5 -21t35.5 -7q21 0 34 12t13 46l52 -20q0 -50 -22 -75t-63 -25q-26 0 -50 9.5t-50 26.5q-17 14 -34.5 21.5t-36.5 7.5q-21 0 -33.5 -12.5t-12.5 -46.5z" />
    <glyph glyph-name="odieresis" unicode="&#xf6;" horiz-adv-x="500" 
d="M54 0zM249 499q58 0 96.5 -19t60.5 -52t31 -79t9 -100q0 -60 -10 -108t-33.5 -82t-61 -52t-92.5 -18t-92 18t-60 52t-33 82t-10 108q0 54 8.5 100t30.5 79t60 52t96 19zM249 435q-35 0 -57 -13t-35.5 -37.5t-18.5 -59t-5 -77.5q0 -100 26 -148t90 -48q66 0 91.5 48
t25.5 148q0 43 -5 77.5t-18.5 59t-36 37.5t-57.5 13zM153 682q20 0 34.5 -14.5t14.5 -35.5q0 -20 -14.5 -34.5t-34.5 -14.5t-34 14.5t-14 34.5q0 21 14 35.5t34 14.5zM344 682q20 0 34.5 -14.5t14.5 -35.5q0 -20 -14.5 -34.5t-34.5 -14.5t-34 14.5t-14 34.5q0 21 14 35.5
t34 14.5z" />
    <glyph glyph-name="divide" unicode="&#xf7;" horiz-adv-x="515" 
d="M52 83zM463 371v-47h-411v47h411zM259 182q20 0 34.5 -14.5t14.5 -35.5q0 -20 -14.5 -34.5t-34.5 -14.5t-34 14.5t-14 34.5q0 21 14 35.5t34 14.5zM259 603q20 0 34.5 -14.5t14.5 -35.5q0 -20 -14.5 -34.5t-34.5 -14.5t-34 14.5t-14 34.5q0 21 14 35.5t34 14.5z" />
    <glyph glyph-name="oslash" unicode="&#xf8;" horiz-adv-x="500" 
d="M249 499q47 0 83 -14l49 103h60l-62 -130q38 -32 52.5 -86.5t14.5 -122.5q0 -60 -10 -108t-33.5 -82t-61 -52t-92.5 -18q-50 0 -86 15l-47 -100h-60l62 130q-35 33 -49.5 87.5t-14.5 127.5q0 54 8.5 100t30.5 79t60 52t96 19zM366 248q0 42 -5 76t-18 58l-151 -317
q23 -13 57 -13q66 0 91.5 48t25.5 148zM249 435q-35 0 -57 -13t-35.5 -37.5t-18.5 -59t-5 -77.5q0 -45 5 -79.5t16 -58.5l149 314q-24 11 -54 11z" />
    <glyph glyph-name="ugrave" unicode="&#xf9;" horiz-adv-x="538" 
d="M65 0zM147 487v-332q0 -48 17 -71t62 -23q42 0 78.5 23.5t80.5 85.5v317h83v-487h-77q-5 40 -6 96q-42 -54 -86 -79t-101 -25q-74 0 -103.5 39.5t-29.5 115.5v340h82zM233 779l85 -220l-50 -20l-106 209z" />
    <glyph glyph-name="uacute" unicode="&#xfa;" horiz-adv-x="538" 
d="M65 0zM147 487v-332q0 -48 17 -71t62 -23q42 0 78.5 23.5t80.5 85.5v317h83v-487h-77q-5 40 -6 96q-42 -54 -86 -79t-101 -25q-74 0 -103.5 39.5t-29.5 115.5v340h82zM375 748l-105 -209l-51 20l85 220z" />
    <glyph glyph-name="ucircumflex" unicode="&#xfb;" horiz-adv-x="538" 
d="M65 0zM147 487v-332q0 -48 17 -71t62 -23q42 0 78.5 23.5t80.5 85.5v317h83v-487h-77q-5 40 -6 96q-42 -54 -86 -79t-101 -25q-74 0 -103.5 39.5t-29.5 115.5v340h82zM298 752l132 -197l-50 -21l-112 149l-112 -149l-50 21l132 197h60z" />
    <glyph glyph-name="udieresis" unicode="&#xfc;" horiz-adv-x="538" 
d="M65 0zM147 487v-332q0 -48 17 -71t62 -23q42 0 78.5 23.5t80.5 85.5v317h83v-487h-77q-5 40 -6 96q-42 -54 -86 -79t-101 -25q-74 0 -103.5 39.5t-29.5 115.5v340h82zM170 682q20 0 34.5 -14.5t14.5 -35.5q0 -20 -14.5 -34.5t-34.5 -14.5t-34 14.5t-14 34.5q0 21 14 35.5
t34 14.5zM361 682q20 0 34.5 -14.5t14.5 -35.5q0 -20 -14.5 -34.5t-34.5 -14.5t-34 14.5t-14 34.5q0 21 14 35.5t34 14.5z" />
    <glyph glyph-name="yacute" unicode="&#xfd;" horiz-adv-x="465" 
d="M9 0zM107 487l132 -437l131 437h71l-165 -556q-24 -82 -59 -116.5t-86 -34.5q-24 0 -43.5 6.5t-35 16t-26.5 20.5t-17 21l29 49q12 -17 33 -31t50 -14q13 0 24 4t21.5 15t20.5 30t20 48l-182 542h82zM349 748l-105 -209l-51 20l85 220z" />
    <glyph glyph-name="thorn" unicode="&#xfe;" horiz-adv-x="553" 
d="M152 740v-326q29 38 70.5 61.5t100.5 23.5q38 0 70.5 -11t56 -39.5t36.5 -77t13 -124.5t-13 -126t-36.5 -79.5t-56.5 -41.5t-72 -12q-57 0 -98.5 23t-70.5 62v-287h-83v946zM301 435q-51 0 -88 -29t-61 -83v-161q24 -54 61 -82t88 -28q26 0 47.5 10t37 33t24 59.5
t8.5 90.5t-8.5 90.5t-24 58.5t-37 31.5t-47.5 9.5z" />
    <glyph glyph-name="ydieresis" unicode="&#xff;" horiz-adv-x="465" 
d="M9 0zM107 487l132 -437l131 437h71l-165 -556q-24 -82 -59 -116.5t-86 -34.5q-24 0 -43.5 6.5t-35 16t-26.5 20.5t-17 21l29 49q12 -17 33 -31t50 -14q13 0 24 4t21.5 15t20.5 30t20 48l-182 542h82zM142 682q20 0 34.5 -14.5t14.5 -35.5q0 -20 -14.5 -34.5t-34.5 -14.5
t-34 14.5t-14 34.5q0 21 14 35.5t34 14.5zM333 682q20 0 34.5 -14.5t14.5 -35.5q0 -20 -14.5 -34.5t-34.5 -14.5t-34 14.5t-14 34.5q0 21 14 35.5t34 14.5z" />
    <glyph glyph-name="Amacron" unicode="&#x100;" 
d="M25 0zM342 701l217 -701h-93l-54 182h-257l-53 -182h-77l217 701h100zM175 250h217l-109 366zM451 887l-4 -54h-316l3 54h317z" />
    <glyph glyph-name="amacron" unicode="&#x101;" horiz-adv-x="501" 
d="M46 0zM63 339q5 37 15 67t30.5 50.5t53 31.5t82.5 11q47 0 79 -10.5t51.5 -32t28 -55.5t8.5 -81v-194q0 -36 8.5 -50.5t35.5 -14.5h18l-7 -61h-47q-37 0 -56 16.5t-26 44.5q-24 -33 -57 -52.5t-87 -19.5q-39 0 -67 10.5t-46 30t-26 46.5t-8 59q0 46 16 77t50.5 51.5
t89 32t130.5 17.5v12q0 30 -4 51.5t-14 34.5t-27.5 19t-44.5 6q-61 0 -86.5 -26t-35.5 -76zM211 54q43 0 71.5 19.5t49.5 52.5v139q-55 -5 -94.5 -13.5t-65 -22.5t-37.5 -35.5t-12 -52.5q0 -38 20 -62.5t68 -24.5zM403 684l-5 -59h-316l4 59h317z" />
    <glyph glyph-name="Abreve" unicode="&#x102;" 
d="M25 0zM342 701l217 -701h-93l-54 182h-257l-53 -182h-77l217 701h100zM175 250h217l-109 366zM145 912q29 -43 66.5 -61.5t79.5 -18.5t79.5 18.5t66.5 61.5l36 -29q-31 -61 -79.5 -86.5t-102.5 -25.5t-102.5 25.5t-79.5 86.5z" />
    <glyph glyph-name="abreve" unicode="&#x103;" horiz-adv-x="501" 
d="M46 0zM63 339q5 37 15 67t30.5 50.5t53 31.5t82.5 11q47 0 79 -10.5t51.5 -32t28 -55.5t8.5 -81v-194q0 -36 8.5 -50.5t35.5 -14.5h18l-7 -61h-47q-37 0 -56 16.5t-26 44.5q-24 -33 -57 -52.5t-87 -19.5q-39 0 -67 10.5t-46 30t-26 46.5t-8 59q0 46 16 77t50.5 51.5
t89 32t130.5 17.5v12q0 30 -4 51.5t-14 34.5t-27.5 19t-44.5 6q-61 0 -86.5 -26t-35.5 -76zM211 54q43 0 71.5 19.5t49.5 52.5v139q-55 -5 -94.5 -13.5t-65 -22.5t-37.5 -35.5t-12 -52.5q0 -38 20 -62.5t68 -24.5zM98 723q28 -45 66 -64t79 -19q42 0 80 19t67 64l36 -33
q-31 -64 -80 -90.5t-103 -26.5t-102.5 26.5t-79.5 90.5z" />
    <glyph glyph-name="Aogonek" unicode="&#x104;" 
d="M342 701l217 -701q-49 -12 -84.5 -28.5t-59 -34.5t-34.5 -37t-11 -36q0 -23 16.5 -39.5t54.5 -16.5q39 0 57.5 13t26.5 36l40 -26q-6 -16 -15 -31t-24.5 -27t-39.5 -19.5t-60 -7.5q-68 0 -97 28.5t-29 70.5q0 43 40.5 82t128.5 63l-57 192h-257l-53 -182h-77l217 701h100
zM175 250h217l-109 366z" />
    <glyph glyph-name="aogonek" unicode="&#x105;" horiz-adv-x="501" 
d="M421 0q-38 0 -57.5 16.5t-26.5 44.5q-24 -33 -57 -52.5t-87 -19.5q-39 0 -67 10.5t-46 30t-26 46.5t-8 59q0 46 16 77t50.5 51.5t89 32t130.5 17.5v12q0 30 -4 51.5t-14 34.5t-27.5 19t-44.5 6q-61 0 -86.5 -26t-35.5 -76l-57 5q5 37 15 67t30.5 50.5t53 31.5t82.5 11
q47 0 79 -10.5t51.5 -32t28 -55.5t8.5 -81v-194q0 -36 8.5 -50.5t35.5 -14.5h18l-7 -61q-49 -12 -84.5 -28.5t-59 -34.5t-34.5 -37t-11 -36q0 -23 16.5 -39.5t54.5 -16.5q39 0 57.5 13t26.5 36l40 -26q-6 -16 -15 -31t-24.5 -27t-39.5 -19.5t-60 -7.5q-68 0 -97 28.5
t-29 70.5q0 48 51 90.5t163 64.5zM211 54q43 0 71.5 19.5t49.5 52.5v139q-55 -5 -94.5 -13.5t-65 -22.5t-37.5 -35.5t-12 -52.5q0 -38 20 -62.5t68 -24.5z" />
    <glyph glyph-name="Cacute" unicode="&#x106;" horiz-adv-x="615" 
d="M61 0zM489 438q-4 44 -13 82.5t-27 66.5t-46 44t-71 16q-89 0 -135.5 -72.5t-46.5 -226.5q0 -78 12 -133.5t35 -90.5t56.5 -51.5t76.5 -16.5q75 0 113.5 49.5t53.5 157.5l62 -12q-8 -56 -21.5 -104t-39.5 -83.5t-68 -55.5t-105 -20q-126 0 -195 87t-69 273
q0 185 68.5 276t200.5 91q48 0 86 -13t66.5 -44.5t46 -83t23.5 -128.5zM431 916l-108 -193l-50 19l87 203z" />
    <glyph glyph-name="cacute" unicode="&#x107;" horiz-adv-x="491" 
d="M54 0zM373 325q-7 55 -31.5 82.5t-81.5 27.5q-69 0 -98 -44t-29 -146q0 -101 28 -147t94 -46q33 0 54.5 11t35 30t20.5 45t11 56l62 -9q-4 -35 -13 -70t-29.5 -63t-55 -45.5t-89.5 -17.5q-54 0 -92 18t-61 51.5t-33.5 81t-10.5 106.5q0 62 11 109t35.5 79t63 48.5
t93.5 16.5q47 0 79.5 -11.5t53.5 -33t31 -51.5t12 -67zM363 748l-105 -209l-51 20l85 220z" />
    <glyph glyph-name="Cdotaccent" unicode="&#x10a;" horiz-adv-x="615" 
d="M61 0zM489 438q-4 44 -13 82.5t-27 66.5t-46 44t-71 16q-89 0 -135.5 -72.5t-46.5 -226.5q0 -78 12 -133.5t35 -90.5t56.5 -51.5t76.5 -16.5q75 0 113.5 49.5t53.5 157.5l62 -12q-8 -56 -21.5 -104t-39.5 -83.5t-68 -55.5t-105 -20q-126 0 -195 87t-69 273
q0 185 68.5 276t200.5 91q48 0 86 -13t66.5 -44.5t46 -83t23.5 -128.5zM275 847q0 19 14.5 32.5t34.5 13.5t34.5 -13.5t14.5 -32.5t-14.5 -32.5t-34.5 -13.5t-34.5 13.5t-14.5 32.5z" />
    <glyph glyph-name="cdotaccent" unicode="&#x10b;" horiz-adv-x="491" 
d="M54 0zM373 325q-7 55 -31.5 82.5t-81.5 27.5q-69 0 -98 -44t-29 -146q0 -101 28 -147t94 -46q33 0 54.5 11t35 30t20.5 45t11 56l62 -9q-4 -35 -13 -70t-29.5 -63t-55 -45.5t-89.5 -17.5q-54 0 -92 18t-61 51.5t-33.5 81t-10.5 106.5q0 62 11 109t35.5 79t63 48.5
t93.5 16.5q47 0 79.5 -11.5t53.5 -33t31 -51.5t12 -67zM257 682q20 0 34.5 -14.5t14.5 -35.5q0 -20 -14.5 -34.5t-34.5 -14.5t-34 14.5t-14 34.5q0 21 14 35.5t34 14.5z" />
    <glyph glyph-name="Ccaron" unicode="&#x10c;" horiz-adv-x="615" 
d="M61 0zM489 438q-4 44 -13 82.5t-27 66.5t-46 44t-71 16q-89 0 -135.5 -72.5t-46.5 -226.5q0 -78 12 -133.5t35 -90.5t56.5 -51.5t76.5 -16.5q75 0 113.5 49.5t53.5 157.5l62 -12q-8 -56 -21.5 -104t-39.5 -83.5t-68 -55.5t-105 -20q-126 0 -195 87t-69 273
q0 185 68.5 276t200.5 91q48 0 86 -13t66.5 -44.5t46 -83t23.5 -128.5zM209 936l112 -133l112 133l50 -20l-132 -176h-59l-132 176z" />
    <glyph glyph-name="ccaron" unicode="&#x10d;" horiz-adv-x="491" 
d="M54 0zM373 325q-7 55 -31.5 82.5t-81.5 27.5q-69 0 -98 -44t-29 -146q0 -101 28 -147t94 -46q33 0 54.5 11t35 30t20.5 45t11 56l62 -9q-4 -35 -13 -70t-29.5 -63t-55 -45.5t-89.5 -17.5q-54 0 -92 18t-61 51.5t-33.5 81t-10.5 106.5q0 62 11 109t35.5 79t63 48.5
t93.5 16.5q47 0 79.5 -11.5t53.5 -33t31 -51.5t12 -67zM145 752l112 -149l112 149l50 -22l-132 -196h-60l-132 196z" />
    <glyph glyph-name="Dcaron" unicode="&#x10e;" horiz-adv-x="621" 
d="M76 0zM289 701q78 0 130 -17.5t83.5 -58t44.5 -107t13 -163.5q0 -99 -13.5 -166.5t-45 -109.5t-83.5 -60.5t-129 -18.5h-213v701h213zM162 68h126q53 0 88.5 16.5t56.5 51.5t30 90.5t9 132.5q0 76 -8.5 128.5t-29.5 85t-57 47t-91 14.5h-124v-566zM162 936l112 -133
l112 133l50 -20l-132 -176h-59l-132 176z" />
    <glyph glyph-name="dcaron" unicode="&#x10f;" horiz-adv-x="633" 
d="M54 0zM484 740v-740h-77q-4 30 -6 73q-29 -39 -71.5 -62t-102.5 -23q-37 0 -68.5 11t-55 39.5t-36.5 77.5t-13 124t13 125t36 79.5t55.5 42t70.5 12.5q58 0 100.5 -23t71.5 -63v319zM252 52q51 0 88 28.5t61 82.5v161q-25 54 -62 82.5t-85 28.5q-27 0 -49 -10
t-37.5 -32.5t-24 -59.5t-8.5 -91t8.5 -90.5t24 -58.5t37 -31.5t47.5 -9.5zM553 554q16 16 27 41.5t11 51.5q-12 2 -23.5 12.5t-11.5 33.5t13 37t35 14t35.5 -14.5t13.5 -42.5q0 -36 -18 -79.5t-58 -76.5z" />
    <glyph glyph-name="Dcroat" unicode="&#x110;" horiz-adv-x="633" 
d="M7 0zM300 701q78 0 130 -17.5t83.5 -58t44.5 -107t13 -163.5q0 -99 -13.5 -166.5t-45 -109.5t-83.5 -60.5t-129 -18.5h-213v339h-80l8 63h72v299h213zM173 402h195l-9 -63h-186v-271h126q53 0 88.5 16.5t56.5 51.5t30 90.5t9 132.5q0 76 -8.5 128.5t-29.5 85t-57 47
t-91 14.5h-124v-232z" />
    <glyph glyph-name="dmacron" unicode="&#x111;" horiz-adv-x="553" 
d="M401 661v71l83 8v-79h63l-5 -59h-58v-602h-77q-4 30 -6 73q-29 -39 -71.5 -62t-102.5 -23q-37 0 -68.5 11t-55 39.5t-36.5 77.5t-13 124t13 125t36 79.5t55.5 42t70.5 12.5q58 0 100.5 -23t71.5 -63v189h-175l4 59h171zM252 52q51 0 88 28.5t61 82.5v161q-25 54 -62 82.5
t-85 28.5q-27 0 -49 -10t-37.5 -32.5t-24 -59.5t-8.5 -91t8.5 -90.5t24 -58.5t37 -31.5t47.5 -9.5z" />
    <glyph glyph-name="Emacron" unicode="&#x112;" horiz-adv-x="520" 
d="M76 0zM469 701l-9 -67h-291v-232h234l-9 -63h-225v-272h307l-9 -67h-391v701h393zM438 887l-4 -54h-316l3 54h317z" />
    <glyph glyph-name="emacron" unicode="&#x113;" horiz-adv-x="504" 
d="M54 0zM133 231q2 -96 31 -137.5t91 -41.5q51 0 83.5 29.5t42.5 99.5l62 -10q-12 -91 -56.5 -136.5t-134.5 -45.5q-100 0 -149 60.5t-49 197.5q0 124 45 188t154 64q58 0 96.5 -18t60.5 -49.5t31 -75t9 -94.5v-16.5t-1 -14.5h-316zM250 439q-60 0 -86 -38.5t-30 -120.5
h237q-1 37 -7.5 66.5t-21 50t-37 31.5t-55.5 11zM413 684l-5 -59h-316l4 59h317z" />
    <glyph glyph-name="Ebreve" unicode="&#x114;" horiz-adv-x="520" 
d="M76 0zM469 701l-9 -67h-291v-232h234l-9 -63h-225v-272h307l-9 -67h-391v701h393zM131 912q29 -43 66.5 -61.5t79.5 -18.5t79.5 18.5t66.5 61.5l36 -29q-31 -61 -79.5 -86.5t-102.5 -25.5t-102.5 25.5t-79.5 86.5z" />
    <glyph glyph-name="ebreve" unicode="&#x115;" horiz-adv-x="504" 
d="M54 0zM133 231q2 -96 31 -137.5t91 -41.5q51 0 83.5 29.5t42.5 99.5l62 -10q-12 -91 -56.5 -136.5t-134.5 -45.5q-100 0 -149 60.5t-49 197.5q0 124 45 188t154 64q58 0 96.5 -18t60.5 -49.5t31 -75t9 -94.5v-16.5t-1 -14.5h-316zM250 439q-60 0 -86 -38.5t-30 -120.5
h237q-1 37 -7.5 66.5t-21 50t-37 31.5t-55.5 11zM106 723q28 -45 66 -64t79 -19q42 0 80 19t67 64l36 -33q-31 -64 -80 -90.5t-103 -26.5t-102.5 26.5t-79.5 90.5z" />
    <glyph glyph-name="Edotaccent" unicode="&#x116;" horiz-adv-x="520" 
d="M76 0zM469 701l-9 -67h-291v-232h234l-9 -63h-225v-272h307l-9 -67h-391v701h393zM230 847q0 19 14.5 32.5t34.5 13.5t34.5 -13.5t14.5 -32.5t-14.5 -32.5t-34.5 -13.5t-34.5 13.5t-14.5 32.5z" />
    <glyph glyph-name="edotaccent" unicode="&#x117;" horiz-adv-x="504" 
d="M54 0zM133 231q2 -96 31 -137.5t91 -41.5q51 0 83.5 29.5t42.5 99.5l62 -10q-12 -91 -56.5 -136.5t-134.5 -45.5q-100 0 -149 60.5t-49 197.5q0 124 45 188t154 64q58 0 96.5 -18t60.5 -49.5t31 -75t9 -94.5v-16.5t-1 -14.5h-316zM250 439q-60 0 -86 -38.5t-30 -120.5
h237q-1 37 -7.5 66.5t-21 50t-37 31.5t-55.5 11zM252 682q20 0 34.5 -14.5t14.5 -35.5q0 -20 -14.5 -34.5t-34.5 -14.5t-34 14.5t-14 34.5q0 21 14 35.5t34 14.5z" />
    <glyph glyph-name="Eogonek" unicode="&#x118;" horiz-adv-x="520" 
d="M76 0v701h393l-9 -67h-291v-232h234l-9 -63h-225v-272h307l-9 -67q-98 -25 -143 -63t-45 -73q0 -23 16.5 -39.5t54.5 -16.5q39 0 57.5 13t26.5 36l40 -26q-6 -16 -15 -31t-24.5 -27t-39.5 -19.5t-60 -7.5q-68 0 -97 28.5t-29 70.5q0 48 51 90.5t163 64.5h-347z" />
    <glyph glyph-name="eogonek" unicode="&#x119;" horiz-adv-x="504" 
d="M133 231q2 -96 31 -137.5t91 -41.5q51 0 83.5 29.5t42.5 99.5l62 -10q-7 -47 -18.5 -76t-27.5 -47.5t-35.5 -29.5t-41.5 -20q-25 -11 -51 -23t-47 -27.5t-34.5 -35.5t-13.5 -46q0 -25 16 -41.5t58 -16.5q36 0 54.5 13t26.5 36l40 -26q-6 -16 -15 -31t-24.5 -27t-39 -19.5
t-57.5 -7.5q-69 0 -99 28t-30 68q0 41 31 80t105 67q-94 4 -140 64.5t-46 192.5q0 125 45 189t154 64q58 0 96.5 -18t60.5 -49.5t31 -75t9 -94.5v-16.5t-1 -14.5h-316zM250 439q-60 0 -86 -38.5t-30 -120.5h237q-1 37 -7.5 66.5t-21 50t-37 31.5t-55.5 11z" />
    <glyph glyph-name="Ecaron" unicode="&#x11a;" horiz-adv-x="520" 
d="M76 0zM469 701l-9 -67h-291v-232h234l-9 -63h-225v-272h307l-9 -67h-391v701h393zM161 936l112 -133l112 133l50 -20l-132 -176h-59l-132 176z" />
    <glyph glyph-name="ecaron" unicode="&#x11b;" horiz-adv-x="504" 
d="M54 0zM133 231q2 -96 31 -137.5t91 -41.5q51 0 83.5 29.5t42.5 99.5l62 -10q-12 -91 -56.5 -136.5t-134.5 -45.5q-100 0 -149 60.5t-49 197.5q0 124 45 188t154 64q58 0 96.5 -18t60.5 -49.5t31 -75t9 -94.5v-16.5t-1 -14.5h-316zM250 439q-60 0 -86 -38.5t-30 -120.5
h237q-1 37 -7.5 66.5t-21 50t-37 31.5t-55.5 11zM140 752l112 -149l112 149l50 -22l-132 -196h-60l-132 196z" />
    <glyph glyph-name="Gbreve" unicode="&#x11e;" horiz-adv-x="621" 
d="M61 0zM552 369v-369h-67q-4 14 -6.5 32t-4.5 42q-29 -38 -70.5 -62t-101.5 -24q-53 0 -97 21.5t-76 66t-50 113t-18 162.5q0 183 68 273.5t202 90.5q47 0 84.5 -12.5t65.5 -41t45.5 -75.5t24.5 -116l-62 -14q-7 57 -20.5 94t-33 58.5t-44 30t-54.5 8.5q-93 0 -140 -72
t-47 -226q0 -79 12 -134.5t34.5 -91t53.5 -51.5t70 -16q54 0 91.5 27t60.5 75v145h-138l8 66h210zM184 912q29 -43 66.5 -61.5t79.5 -18.5t79.5 18.5t66.5 61.5l36 -29q-31 -61 -79.5 -86.5t-102.5 -25.5t-102.5 25.5t-79.5 86.5z" />
    <glyph glyph-name="gbreve" unicode="&#x11f;" horiz-adv-x="538" 
d="M18 0zM55 327q0 34 8 63t29 50.5t57.5 34t92.5 12.5q33 0 57.5 -4t44.5 -11q14 52 41 74.5t65 22.5q32 0 52 -14t34 -40l-42 -42q-10 18 -25 28.5t-32 10.5q-20 0 -36 -14t-27 -41q32 -22 44.5 -55.5t12.5 -75.5q0 -38 -9.5 -69t-31.5 -53t-58 -33.5t-89 -11.5
q-58 0 -97 14q-15 -17 -15 -39q0 -25 22 -35t60 -17q10 -2 33 -6t49 -9t52 -10.5t43 -11.5q50 -17 70 -44.5t20 -73.5q0 -36 -11.5 -63.5t-39.5 -47t-74.5 -29.5t-115.5 -10q-64 0 -106.5 8.5t-68 24t-36 37t-10.5 48.5q0 48 29 81t80 55q-26 10 -42 28t-16 53q0 21 8 43
t31 38q-29 22 -41 56t-12 78zM348 -16q-14 4 -34 8t-42.5 8t-45.5 8t-42 8q-45 -18 -70.5 -44.5t-25.5 -64.5q0 -19 7.5 -33t25 -23.5t47 -14.5t73.5 -5q48 0 80 5.5t51 16.5t27 27t8 37q0 24 -12 40t-47 27zM242 436q-66 0 -89.5 -28.5t-23.5 -81.5q0 -59 25.5 -88
t87.5 -29q63 0 88.5 29t25.5 87q0 55 -24.5 83t-89.5 28zM114 723q28 -45 66 -64t79 -19q42 0 80 19t67 64l36 -33q-31 -64 -80 -90.5t-103 -26.5t-102.5 26.5t-79.5 90.5z" />
    <glyph glyph-name="Gdotaccent" unicode="&#x120;" horiz-adv-x="621" 
d="M61 0zM552 369v-369h-67q-4 14 -6.5 32t-4.5 42q-29 -38 -70.5 -62t-101.5 -24q-53 0 -97 21.5t-76 66t-50 113t-18 162.5q0 183 68 273.5t202 90.5q47 0 84.5 -12.5t65.5 -41t45.5 -75.5t24.5 -116l-62 -14q-7 57 -20.5 94t-33 58.5t-44 30t-54.5 8.5q-93 0 -140 -72
t-47 -226q0 -79 12 -134.5t34.5 -91t53.5 -51.5t70 -16q54 0 91.5 27t60.5 75v145h-138l8 66h210zM281 847q0 19 14.5 32.5t34.5 13.5t34.5 -13.5t14.5 -32.5t-14.5 -32.5t-34.5 -13.5t-34.5 13.5t-14.5 32.5z" />
    <glyph glyph-name="gdotaccent" unicode="&#x121;" horiz-adv-x="538" 
d="M18 0zM55 327q0 34 8 63t29 50.5t57.5 34t92.5 12.5q33 0 57.5 -4t44.5 -11q14 52 41 74.5t65 22.5q32 0 52 -14t34 -40l-42 -42q-10 18 -25 28.5t-32 10.5q-20 0 -36 -14t-27 -41q32 -22 44.5 -55.5t12.5 -75.5q0 -38 -9.5 -69t-31.5 -53t-58 -33.5t-89 -11.5
q-58 0 -97 14q-15 -17 -15 -39q0 -25 22 -35t60 -17q10 -2 33 -6t49 -9t52 -10.5t43 -11.5q50 -17 70 -44.5t20 -73.5q0 -36 -11.5 -63.5t-39.5 -47t-74.5 -29.5t-115.5 -10q-64 0 -106.5 8.5t-68 24t-36 37t-10.5 48.5q0 48 29 81t80 55q-26 10 -42 28t-16 53q0 21 8 43
t31 38q-29 22 -41 56t-12 78zM348 -16q-14 4 -34 8t-42.5 8t-45.5 8t-42 8q-45 -18 -70.5 -44.5t-25.5 -64.5q0 -19 7.5 -33t25 -23.5t47 -14.5t73.5 -5q48 0 80 5.5t51 16.5t27 27t8 37q0 24 -12 40t-47 27zM242 436q-66 0 -89.5 -28.5t-23.5 -81.5q0 -59 25.5 -88
t87.5 -29q63 0 88.5 29t25.5 87q0 55 -24.5 83t-89.5 28zM257 682q20 0 34.5 -14.5t14.5 -35.5q0 -20 -14.5 -34.5t-34.5 -14.5t-34 14.5t-14 34.5q0 21 14 35.5t34 14.5z" />
    <glyph glyph-name="Gcommaaccent" unicode="&#x122;" horiz-adv-x="621" 
d="M61 0zM552 369v-369h-67q-4 14 -6.5 32t-4.5 42q-29 -38 -70.5 -62t-101.5 -24q-53 0 -97 21.5t-76 66t-50 113t-18 162.5q0 183 68 273.5t202 90.5q47 0 84.5 -12.5t65.5 -41t45.5 -75.5t24.5 -116l-62 -14q-7 57 -20.5 94t-33 58.5t-44 30t-54.5 8.5q-93 0 -140 -72
t-47 -226q0 -79 12 -134.5t34.5 -91t53.5 -51.5t70 -16q54 0 91.5 27t60.5 75v145h-138l8 66h210zM343 -53l-65 -201l-47 10l44 209z" />
    <glyph glyph-name="gcommaaccent" unicode="&#x123;" horiz-adv-x="538" 
d="M18 0zM55 327q0 34 8 63t29 50.5t57.5 34t92.5 12.5q33 0 57.5 -4t44.5 -11q14 52 41 74.5t65 22.5q32 0 52 -14t34 -40l-42 -42q-10 18 -25 28.5t-32 10.5q-20 0 -36 -14t-27 -41q32 -22 44.5 -55.5t12.5 -75.5q0 -38 -9.5 -69t-31.5 -53t-58 -33.5t-89 -11.5
q-58 0 -97 14q-15 -17 -15 -39q0 -25 22 -35t60 -17q10 -2 33 -6t49 -9t52 -10.5t43 -11.5q50 -17 70 -44.5t20 -73.5q0 -36 -11.5 -63.5t-39.5 -47t-74.5 -29.5t-115.5 -10q-64 0 -106.5 8.5t-68 24t-36 37t-10.5 48.5q0 48 29 81t80 55q-26 10 -42 28t-16 53q0 21 8 43
t31 38q-29 22 -41 56t-12 78zM348 -16q-14 4 -34 8t-42.5 8t-45.5 8t-42 8q-45 -18 -70.5 -44.5t-25.5 -64.5q0 -19 7.5 -33t25 -23.5t47 -14.5t73.5 -5q48 0 80 5.5t51 16.5t27 27t8 37q0 24 -12 40t-47 27zM242 436q-66 0 -89.5 -28.5t-23.5 -81.5q0 -59 25.5 -88
t87.5 -29q63 0 88.5 29t25.5 87q0 55 -24.5 83t-89.5 28zM309 745q-16 -15 -27 -40.5t-11 -51.5q13 -3 24.5 -13t11.5 -33t-13.5 -37t-35.5 -14q-21 0 -34.5 14.5t-13.5 42.5q0 36 17.5 79t58.5 76z" />
    <glyph glyph-name="Hbar" unicode="&#x126;" horiz-adv-x="610" 
d="M76 582v119h87v-119h285v119h86v-119h70l-5 -59h-65v-523h-86v332h-285v-332h-87v523h-70l4 59h66zM448 398v125h-285v-125h285z" />
    <glyph glyph-name="hbar" unicode="&#x127;" horiz-adv-x="540" 
d="M69 661v72l83 7v-79h175l-5 -59h-170v-213q42 54 86.5 80t102.5 26q74 0 103.5 -39.5t29.5 -116.5v-339h-82v332q0 48 -17 71t-63 23q-42 0 -79.5 -24t-80.5 -87v-315h-83v602h-63l4 59h59z" />
    <glyph glyph-name="Itilde" unicode="&#x128;" horiz-adv-x="341" 
d="M0 0zM215 701v-701h-87v701h87zM-5 814q0 94 84 94q26 0 51.5 -9.5t48.5 -25.5q18 -13 34.5 -20t36.5 -7q21 0 33.5 11.5t12.5 44.5l52 -19q0 -94 -85 -94q-26 0 -51 9.5t-48 25.5q-17 13 -34.5 20t-37.5 7q-21 0 -33.5 -11.5t-12.5 -43.5z" />
    <glyph glyph-name="itilde" unicode="&#x129;" horiz-adv-x="342" 
d="M0 0zM-6 595q0 101 85 101q26 0 51.5 -10.5t48.5 -26.5q18 -14 34.5 -21t35.5 -7q21 0 34 12t13 46l52 -20q0 -50 -22 -75t-63 -25q-26 0 -50 9.5t-50 26.5q-17 14 -34.5 21.5t-36.5 7.5q-21 0 -33.5 -12.5t-12.5 -46.5zM211 487v-487h-82v487h82z" />
    <glyph glyph-name="Imacron" unicode="&#x12a;" horiz-adv-x="304" 
d="M0 0zM197 701v-701h-87v701h87zM312 887l-4 -54h-316l3 54h317z" />
    <glyph glyph-name="imacron" unicode="&#x12b;" horiz-adv-x="314" 
d="M0 0zM318 684l-5 -59h-316l4 59h317zM198 487v-487h-82v487h82z" />
    <glyph glyph-name="Ibreve" unicode="&#x12c;" horiz-adv-x="347" 
d="M0 0zM222 701v-701h-87v701h87zM27 912q29 -43 66.5 -61.5t79.5 -18.5t79.5 18.5t66.5 61.5l36 -29q-31 -61 -79.5 -86.5t-102.5 -25.5t-102.5 25.5t-79.5 86.5z" />
    <glyph glyph-name="ibreve" unicode="&#x12d;" horiz-adv-x="342" 
d="M0 0zM26 723q28 -45 66 -64t79 -19q42 0 80 19t67 64l36 -33q-31 -64 -80 -90.5t-103 -26.5t-102.5 26.5t-79.5 90.5zM211 487v-487h-82v487h82z" />
    <glyph glyph-name="Iogonek" unicode="&#x12e;" horiz-adv-x="263" 
d="M188 701v-701q-49 -12 -84.5 -28.5t-59 -34.5t-34.5 -37t-11 -36q0 -23 16.5 -39.5t54.5 -16.5q39 0 57.5 13t26.5 36l40 -26q-6 -16 -15 -31t-24.5 -27t-39.5 -19.5t-60 -7.5q-68 0 -97 28.5t-29 70.5q0 44 41 83t131 63v710h87z" />
    <glyph glyph-name="iogonek" unicode="&#x12f;" horiz-adv-x="263" 
d="M193 487v-487q-49 -12 -84.5 -28.5t-59 -34.5t-34.5 -37t-11 -36q0 -23 16.5 -39.5t54.5 -16.5q39 0 57.5 13t26.5 36l40 -26q-6 -16 -15 -31t-24.5 -27t-39.5 -19.5t-60 -7.5q-68 0 -97 28.5t-29 70.5q0 45 42.5 84t134.5 63v495h82zM152 682q20 0 34.5 -14.5
t14.5 -35.5q0 -20 -14.5 -34.5t-34.5 -14.5t-34 14.5t-14 34.5q0 21 14 35.5t34 14.5z" />
    <glyph glyph-name="Idotaccent" unicode="&#x130;" horiz-adv-x="238" 
d="M70 0zM163 701v-701h-87v701h87zM70 847q0 19 14.5 32.5t34.5 13.5t34.5 -13.5t14.5 -32.5t-14.5 -32.5t-34.5 -13.5t-34.5 13.5t-14.5 32.5z" />
    <glyph glyph-name="dotlessi" unicode="&#x131;" horiz-adv-x="221" 
d="M151 487v-487h-82v487h82z" />
    <glyph glyph-name="IJ" unicode="&#x132;" horiz-adv-x="705" 
d="M76 0zM163 701v-701h-87v701h87zM634 701v-493q0 -50 -11 -91t-34.5 -69.5t-59.5 -44t-86 -15.5q-78 0 -128 39t-59 115l58 20q9 -49 37 -78.5t82 -29.5q62 0 88.5 39.5t26.5 109.5v498h86z" />
    <glyph glyph-name="ij" unicode="&#x133;" horiz-adv-x="453" 
d="M62 0zM151 487v-487h-82v487h82zM384 487v-558q0 -71 -30 -110t-101 -39q-30 0 -52 7t-37.5 17.5t-25.5 23.5t-15 26l29 45q8 -21 24.5 -37t52.5 -16q40 0 56 23t16 63v555h83zM342 682q20 0 34.5 -14.5t14.5 -35.5q0 -20 -14.5 -34.5t-34.5 -14.5t-34 14.5t-14 34.5
q0 21 14 35.5t34 14.5zM110 682q20 0 34.5 -14.5t14.5 -35.5q0 -20 -14.5 -34.5t-34.5 -14.5t-34 14.5t-14 34.5q0 21 14 35.5t34 14.5z" />
    <glyph glyph-name="Kcommaaccent" unicode="&#x136;" horiz-adv-x="565" 
d="M76 0zM527 701l-203 -253l213 -448h-97l-171 378l-106 -132v-246h-87v701h87v-352l272 352h92zM328 -53l-65 -201l-47 10l44 209z" />
    <glyph glyph-name="kcommaaccent" unicode="&#x137;" horiz-adv-x="508" 
d="M69 0zM472 487l-168 -164l176 -323h-95l-139 266l-94 -91v-175h-83v732l83 8v-480l226 227h94zM303 -53l-65 -201l-47 10l44 209z" />
    <glyph glyph-name="Lacute" unicode="&#x139;" horiz-adv-x="478" 
d="M76 0zM163 701v-634h286l-7 -67h-366v701h87zM259 916l-108 -193l-50 19l87 203z" />
    <glyph glyph-name="lacute" unicode="&#x13a;" horiz-adv-x="221" 
d="M208 916l-101 -181l45 5v-740h-83v732h6l-25 10l87 203z" />
    <glyph glyph-name="Lcommaaccent" unicode="&#x13b;" horiz-adv-x="478" 
d="M76 0zM163 701v-634h286l-7 -67h-366v701h87zM293 -53l-65 -201l-47 10l44 209z" />
    <glyph glyph-name="lcommaaccent" unicode="&#x13c;" horiz-adv-x="221" 
d="M30 0zM152 740v-740h-83v732zM142 -53l-65 -201l-47 10l44 209z" />
    <glyph glyph-name="Lcaron" unicode="&#x13d;" horiz-adv-x="478" 
d="M76 0zM163 701v-634h286l-7 -67h-366v701h87zM305 554q16 16 27 41.5t11 51.5q-12 2 -23.5 12.5t-11.5 33.5t13 37t35 14t35.5 -14.5t13.5 -42.5q0 -36 -18 -79.5t-58 -76.5z" />
    <glyph glyph-name="lcaron" unicode="&#x13e;" horiz-adv-x="301" 
d="M69 0zM152 740v-740h-83v732zM221 554q16 16 27 41.5t11 51.5q-12 2 -23.5 12.5t-11.5 33.5t13 37t35 14t35.5 -14.5t13.5 -42.5q0 -36 -18 -79.5t-58 -76.5z" />
    <glyph glyph-name="Lslash" unicode="&#x141;" horiz-adv-x="504" 
d="M188 701v-184l153 111l30 -47l-183 -133v-381h286l-7 -67h-366v384l-64 -46l-31 47l95 69v247h87z" />
    <glyph glyph-name="lslash" unicode="&#x142;" horiz-adv-x="365" 
d="M224 740v-188l111 81l30 -47l-141 -103v-483h-83v423l-110 -80l-31 47l141 102v240z" />
    <glyph glyph-name="Nacute" unicode="&#x143;" horiz-adv-x="628" 
d="M76 0zM174 701l307 -571v571h71v-701h-95l-312 577v-577h-69v701h98zM431 916l-108 -193l-50 19l87 203z" />
    <glyph glyph-name="nacute" unicode="&#x144;" horiz-adv-x="540" 
d="M69 0zM146 487q5 -42 6 -98q42 54 86.5 80t102.5 26q74 0 103.5 -39.5t29.5 -116.5v-339h-82v332q0 48 -17 71t-63 23q-42 0 -79.5 -24t-80.5 -87v-315h-83v487h77zM381 748l-105 -209l-51 20l85 220z" />
    <glyph glyph-name="Ncommaaccent" unicode="&#x145;" horiz-adv-x="628" 
d="M76 0zM174 701l307 -571v571h71v-701h-95l-312 577v-577h-69v701h98zM355 -53l-65 -201l-47 10l44 209z" />
    <glyph glyph-name="ncommaaccent" unicode="&#x146;" horiz-adv-x="540" 
d="M69 0zM146 487q5 -42 6 -98q42 54 86.5 80t102.5 26q74 0 103.5 -39.5t29.5 -116.5v-339h-82v332q0 48 -17 71t-63 23q-42 0 -79.5 -24t-80.5 -87v-315h-83v487h77zM306 -53l-65 -201l-47 10l44 209z" />
    <glyph glyph-name="Ncaron" unicode="&#x147;" horiz-adv-x="628" 
d="M76 0zM174 701l307 -571v571h71v-701h-95l-312 577v-577h-69v701h98zM210 936l112 -133l112 133l50 -20l-132 -176h-59l-132 176z" />
    <glyph glyph-name="ncaron" unicode="&#x148;" horiz-adv-x="540" 
d="M69 0zM146 487q5 -42 6 -98q42 54 86.5 80t102.5 26q74 0 103.5 -39.5t29.5 -116.5v-339h-82v332q0 48 -17 71t-63 23q-42 0 -79.5 -24t-80.5 -87v-315h-83v487h77zM160 752l112 -149l112 149l50 -22l-132 -196h-60l-132 196z" />
    <glyph glyph-name="Eng" unicode="&#x14a;" horiz-adv-x="588" 
d="M431 527q0 52 -19.5 77t-70.5 25q-24 0 -46.5 -6t-44.5 -20.5t-44.5 -38.5t-47.5 -60v-504h-87v701h81q4 -47 6 -111q46 62 96 92t116 30q81 0 114 -45t33 -131v-607q0 -71 -31 -110t-103 -39q-30 0 -52 7t-37.5 17.5t-25.5 23.5t-15 26l29 45q8 -21 24.5 -37t52.5 -16
q40 0 56 23t16 63v595v0z" />
    <glyph glyph-name="eng" unicode="&#x14b;" horiz-adv-x="540" 
d="M341 495q74 0 103.5 -39.5t29.5 -116.5v-410q0 -71 -30 -110t-101 -39q-30 0 -52 7t-37.5 17.5t-25.5 23.5t-15 26l29 45q8 -21 24.5 -37t52.5 -16q40 0 56.5 23t16.5 63v400q0 48 -17 71t-63 23q-42 0 -79.5 -24t-80.5 -87v-315h-83v487h77q5 -42 6 -98q42 54 86.5 80
t102.5 26z" />
    <glyph glyph-name="Omacron" unicode="&#x14c;" horiz-adv-x="632" 
d="M61 0zM320 714q66 0 114 -21t79 -65t45.5 -113t14.5 -165q0 -87 -13 -155t-43 -114t-79 -70t-122 -24q-67 0 -115 20.5t-79 64.5t-46 113t-15 166q0 85 12.5 152t42.5 114t80 72t124 25zM320 646q-49 0 -82 -20t-52.5 -57.5t-28 -92t-8.5 -124.5q0 -77 8.5 -132.5
t28.5 -92t52 -54t79 -17.5q49 0 81.5 18.5t51.5 55t26.5 91.5t7.5 127q0 77 -8.5 133t-28 93t-50.5 54.5t-77 17.5zM477 887l-4 -54h-316l3 54h317z" />
    <glyph glyph-name="omacron" unicode="&#x14d;" horiz-adv-x="500" 
d="M54 0zM249 499q58 0 96.5 -19t60.5 -52t31 -79t9 -100q0 -60 -10 -108t-33.5 -82t-61 -52t-92.5 -18t-92 18t-60 52t-33 82t-10 108q0 54 8.5 100t30.5 79t60 52t96 19zM249 435q-35 0 -57 -13t-35.5 -37.5t-18.5 -59t-5 -77.5q0 -100 26 -148t90 -48q66 0 91.5 48
t25.5 148q0 43 -5 77.5t-18.5 59t-36 37.5t-57.5 13zM411 684l-5 -59h-316l4 59h317z" />
    <glyph glyph-name="Obreve" unicode="&#x14e;" horiz-adv-x="632" 
d="M61 0zM320 714q66 0 114 -21t79 -65t45.5 -113t14.5 -165q0 -87 -13 -155t-43 -114t-79 -70t-122 -24q-67 0 -115 20.5t-79 64.5t-46 113t-15 166q0 85 12.5 152t42.5 114t80 72t124 25zM320 646q-49 0 -82 -20t-52.5 -57.5t-28 -92t-8.5 -124.5q0 -77 8.5 -132.5
t28.5 -92t52 -54t79 -17.5q49 0 81.5 18.5t51.5 55t26.5 91.5t7.5 127q0 77 -8.5 133t-28 93t-50.5 54.5t-77 17.5zM170 912q29 -43 66.5 -61.5t79.5 -18.5t79.5 18.5t66.5 61.5l36 -29q-31 -61 -79.5 -86.5t-102.5 -25.5t-102.5 25.5t-79.5 86.5z" />
    <glyph glyph-name="obreve" unicode="&#x14f;" horiz-adv-x="500" 
d="M54 0zM249 499q58 0 96.5 -19t60.5 -52t31 -79t9 -100q0 -60 -10 -108t-33.5 -82t-61 -52t-92.5 -18t-92 18t-60 52t-33 82t-10 108q0 54 8.5 100t30.5 79t60 52t96 19zM249 435q-35 0 -57 -13t-35.5 -37.5t-18.5 -59t-5 -77.5q0 -100 26 -148t90 -48q66 0 91.5 48
t25.5 148q0 43 -5 77.5t-18.5 59t-36 37.5t-57.5 13zM104 723q28 -45 66 -64t79 -19q42 0 80 19t67 64l36 -33q-31 -64 -80 -90.5t-103 -26.5t-102.5 26.5t-79.5 90.5z" />
    <glyph glyph-name="Ohungarumlaut" unicode="&#x150;" horiz-adv-x="632" 
d="M61 0zM320 714q66 0 114 -21t79 -65t45.5 -113t14.5 -165q0 -87 -13 -155t-43 -114t-79 -70t-122 -24q-67 0 -115 20.5t-79 64.5t-46 113t-15 166q0 85 12.5 152t42.5 114t80 72t124 25zM320 646q-49 0 -82 -20t-52.5 -57.5t-28 -92t-8.5 -124.5q0 -77 8.5 -132.5
t28.5 -92t52 -54t79 -17.5q49 0 81.5 18.5t51.5 55t26.5 91.5t7.5 127q0 77 -8.5 133t-28 93t-50.5 54.5t-77 17.5zM512 916l-108 -193l-50 19l87 203zM339 916l-108 -193l-50 19l87 203z" />
    <glyph glyph-name="ohungarumlaut" unicode="&#x151;" horiz-adv-x="500" 
d="M54 0zM249 499q58 0 96.5 -19t60.5 -52t31 -79t9 -100q0 -60 -10 -108t-33.5 -82t-61 -52t-92.5 -18t-92 18t-60 52t-33 82t-10 108q0 54 8.5 100t30.5 79t60 52t96 19zM249 435q-35 0 -57 -13t-35.5 -37.5t-18.5 -59t-5 -77.5q0 -100 26 -148t90 -48q66 0 91.5 48
t25.5 148q0 43 -5 77.5t-18.5 59t-36 37.5t-57.5 13zM442 748l-105 -209l-50 20l85 220zM272 748l-105 -209l-51 20l85 220z" />
    <glyph glyph-name="OE" unicode="&#x152;" horiz-adv-x="932" 
d="M320 714q108 0 168 -57v44h393l-9 -67h-291v-232h234l-9 -63h-225v-272h307l-9 -67h-391v45q-30 -29 -72.5 -43.5t-99.5 -14.5q-67 0 -115 20.5t-79 64.5t-46 113t-15 166q0 85 12.5 152t42.5 114t80 72t124 25zM320 646q-49 0 -82 -20t-52.5 -57.5t-28 -92t-8.5 -124.5
q0 -77 8.5 -132.5t28.5 -92t52 -54t79 -17.5q49 0 81.5 18.5t51.5 55t26.5 91.5t7.5 127q0 77 -8.5 133t-28 93t-50.5 54.5t-77 17.5z" />
    <glyph glyph-name="oe" unicode="&#x153;" horiz-adv-x="822" 
d="M249 499q60 0 98.5 -20.5t61.5 -55.5q23 38 62.5 57t99.5 19q58 0 96.5 -18t60.5 -49.5t31 -75t9 -94.5v-16.5t-1 -14.5h-316q2 -96 31 -137.5t91 -41.5q51 0 83.5 29.5t42.5 99.5l62 -10q-12 -91 -56.5 -136.5t-134.5 -45.5q-57 0 -97.5 18.5t-64.5 60.5
q-23 -38 -61.5 -58.5t-97.5 -20.5q-55 0 -92 18t-60 52t-33 82t-10 108q0 54 8.5 100t30.5 79t60 52t96 19zM249 435q-35 0 -57 -13t-35.5 -37.5t-18.5 -59t-5 -77.5q0 -100 26 -148t90 -48q66 0 91.5 48t25.5 148q0 43 -5 77.5t-18.5 59t-36 37.5t-57.5 13zM568 439
q-60 0 -86 -38.5t-30 -120.5h237q-1 37 -7.5 66.5t-21 50t-37 31.5t-55.5 11z" />
    <glyph glyph-name="Racute" unicode="&#x154;" horiz-adv-x="578" 
d="M76 0zM295 701q58 0 101 -10t71.5 -35.5t42.5 -70t14 -113.5q0 -60 -10.5 -102.5t-31.5 -71.5t-53 -45t-74 -22q12 -88 58 -139.5t114 -51.5h10t10 1l-7 -42q-32 -13 -65 -13q-35 0 -66.5 15t-55.5 43t-38.5 68t-14.5 90v12.5t1 13.5h-139v-228h-86v701h219zM162 293h134
q37 0 64 9t44 29.5t25.5 54t8.5 82.5t-8 80.5t-25.5 50t-44 26t-62.5 7.5h-136v-339zM376 916l-108 -193l-50 19l87 203z" />
    <glyph glyph-name="racute" unicode="&#x155;" horiz-adv-x="446" 
d="M69 0zM146 487q4 -46 6 -112q36 66 72.5 91.5t83.5 25.5q39 0 66.5 -15.5t46.5 -47.5l-36 -53q-17 25 -35.5 35t-47.5 10q-18 0 -35.5 -5t-35.5 -20t-37.5 -43.5t-41.5 -74.5v-278h-83v487h77zM332 748l-105 -209l-51 20l85 220z" />
    <glyph glyph-name="Rcommaaccent" unicode="&#x156;" horiz-adv-x="578" 
d="M76 0zM295 701q58 0 101 -10t71.5 -35.5t42.5 -70t14 -113.5q0 -60 -10.5 -102.5t-31.5 -71.5t-53 -45t-74 -22q12 -88 58 -139.5t114 -51.5h10t10 1l-7 -42q-32 -13 -65 -13q-35 0 -66.5 15t-55.5 43t-38.5 68t-14.5 90v12.5t1 13.5h-139v-228h-86v701h219zM162 293h134
q37 0 64 9t44 29.5t25.5 54t8.5 82.5t-8 80.5t-25.5 50t-44 26t-62.5 7.5h-136v-339zM321 -53l-65 -201l-47 10l44 209z" />
    <glyph glyph-name="rcommaaccent" unicode="&#x157;" horiz-adv-x="446" 
d="M30 0zM146 487q4 -46 6 -112q36 66 72.5 91.5t83.5 25.5q39 0 66.5 -15.5t46.5 -47.5l-36 -53q-17 25 -35.5 35t-47.5 10q-18 0 -35.5 -5t-35.5 -20t-37.5 -43.5t-41.5 -74.5v-278h-83v487h77zM142 -53l-65 -201l-47 10l44 209z" />
    <glyph glyph-name="Rcaron" unicode="&#x158;" horiz-adv-x="578" 
d="M76 0zM295 701q58 0 101 -10t71.5 -35.5t42.5 -70t14 -113.5q0 -60 -10.5 -102.5t-31.5 -71.5t-53 -45t-74 -22q12 -88 58 -139.5t114 -51.5h10t10 1l-7 -42q-32 -13 -65 -13q-35 0 -66.5 15t-55.5 43t-38.5 68t-14.5 90v12.5t1 13.5h-139v-228h-86v701h219zM162 293h134
q37 0 64 9t44 29.5t25.5 54t8.5 82.5t-8 80.5t-25.5 50t-44 26t-62.5 7.5h-136v-339zM165 936l112 -133l112 133l50 -20l-132 -176h-59l-132 176z" />
    <glyph glyph-name="rcaron" unicode="&#x159;" horiz-adv-x="446" 
d="M69 0zM146 487q4 -46 6 -112q36 66 72.5 91.5t83.5 25.5q39 0 66.5 -15.5t46.5 -47.5l-36 -53q-17 25 -35.5 35t-47.5 10q-18 0 -35.5 -5t-35.5 -20t-37.5 -43.5t-41.5 -74.5v-278h-83v487h77zM120 752l112 -149l112 149l50 -22l-132 -196h-60l-132 196z" />
    <glyph glyph-name="Sacute" unicode="&#x15a;" horiz-adv-x="543" 
d="M48 0zM110 263q4 -56 17 -95.5t34 -64.5t50 -36t67 -11q68 0 101.5 32.5t33.5 88.5q0 33 -14.5 59.5t-53.5 48.5q-21 12 -46 21.5t-50.5 18.5t-50.5 19.5t-46 24.5q-36 23 -59 61t-23 101q0 34 9 67t31 59t59 41.5t94 15.5q55 0 94.5 -16t65.5 -46.5t39.5 -74.5
t16.5 -100l-60 -9q-6 93 -41.5 135.5t-107.5 42.5q-36 0 -60 -9.5t-38.5 -25t-20.5 -36t-6 -42.5q0 -38 15 -61t44 -39q19 -11 43 -19t50 -16.5t53 -19.5t53 -27q43 -27 66 -64t23 -99q0 -98 -55.5 -149t-158.5 -51q-50 0 -90 13.5t-69.5 44.5t-47 82t-23.5 125zM378 916
l-108 -193l-50 19l87 203z" />
    <glyph glyph-name="sacute" unicode="&#x15b;" horiz-adv-x="463" 
d="M43 0zM105 178q5 -72 39 -101.5t94 -29.5q55 0 79.5 20t24.5 55q0 22 -11.5 40t-46.5 34q-15 6 -34.5 12.5l-40.5 13.5l-40.5 13.5t-33.5 13.5q-34 16 -51.5 42.5t-17.5 67.5q0 29 10.5 54t31.5 43t53.5 28.5t77.5 10.5q89 0 131 -40.5t48 -116.5l-61 -11q-6 59 -34.5 85
t-82.5 26q-55 0 -77.5 -22.5t-22.5 -52.5q0 -25 13 -39.5t42 -25.5q15 -6 34 -11.5t39 -11.5t39.5 -13t34.5 -14q41 -20 56.5 -49.5t15.5 -66.5q0 -70 -47 -105t-133 -35q-87 0 -136.5 40t-54.5 137zM349 748l-105 -209l-51 20l85 220z" />
    <glyph glyph-name="Scedilla" unicode="&#x15e;" horiz-adv-x="543" 
d="M48 0zM110 263q4 -56 17 -95.5t34 -64.5t50 -36t67 -11q68 0 101.5 32.5t33.5 88.5q0 33 -14.5 59.5t-53.5 48.5q-21 12 -46 21.5t-50.5 18.5t-50.5 19.5t-46 24.5q-36 23 -59 61t-23 101q0 34 9 67t31 59t59 41.5t94 15.5q55 0 94.5 -16t65.5 -46.5t39.5 -74.5
t16.5 -100l-60 -9q-6 93 -41.5 135.5t-107.5 42.5q-36 0 -60 -9.5t-38.5 -25t-20.5 -36t-6 -42.5q0 -38 15 -61t44 -39q19 -11 43 -19t50 -16.5t53 -19.5t53 -27q43 -27 66 -64t23 -99q0 -98 -55.5 -149t-158.5 -51q-50 0 -90 13.5t-69.5 44.5t-47 82t-23.5 125zM308 -53
l-65 -201l-47 10l44 209z" />
    <glyph glyph-name="scedilla" unicode="&#x15f;" horiz-adv-x="463" 
d="M43 0zM105 178q5 -72 39 -101.5t94 -29.5q55 0 79.5 20t24.5 55q0 22 -11.5 40t-46.5 34q-15 6 -34.5 12.5l-40.5 13.5l-40.5 13.5t-33.5 13.5q-34 16 -51.5 42.5t-17.5 67.5q0 29 10.5 54t31.5 43t53.5 28.5t77.5 10.5q89 0 131 -40.5t48 -116.5l-61 -11q-6 59 -34.5 85
t-82.5 26q-55 0 -77.5 -22.5t-22.5 -52.5q0 -25 13 -39.5t42 -25.5q15 -6 34 -11.5t39 -11.5t39.5 -13t34.5 -14q41 -20 56.5 -49.5t15.5 -66.5q0 -70 -47 -105t-133 -35q-87 0 -136.5 40t-54.5 137zM268 -53l-65 -201l-47 10l44 209z" />
    <glyph glyph-name="Scaron" unicode="&#x160;" horiz-adv-x="543" 
d="M48 0zM110 263q4 -56 17 -95.5t34 -64.5t50 -36t67 -11q68 0 101.5 32.5t33.5 88.5q0 33 -14.5 59.5t-53.5 48.5q-21 12 -46 21.5t-50.5 18.5t-50.5 19.5t-46 24.5q-36 23 -59 61t-23 101q0 34 9 67t31 59t59 41.5t94 15.5q55 0 94.5 -16t65.5 -46.5t39.5 -74.5
t16.5 -100l-60 -9q-6 93 -41.5 135.5t-107.5 42.5q-36 0 -60 -9.5t-38.5 -25t-20.5 -36t-6 -42.5q0 -38 15 -61t44 -39q19 -11 43 -19t50 -16.5t53 -19.5t53 -27q43 -27 66 -64t23 -99q0 -98 -55.5 -149t-158.5 -51q-50 0 -90 13.5t-69.5 44.5t-47 82t-23.5 125zM159 936
l112 -133l112 133l50 -20l-132 -176h-59l-132 176z" />
    <glyph glyph-name="scaron" unicode="&#x161;" horiz-adv-x="463" 
d="M43 0zM105 178q5 -72 39 -101.5t94 -29.5q55 0 79.5 20t24.5 55q0 22 -11.5 40t-46.5 34q-15 6 -34.5 12.5l-40.5 13.5l-40.5 13.5t-33.5 13.5q-34 16 -51.5 42.5t-17.5 67.5q0 29 10.5 54t31.5 43t53.5 28.5t77.5 10.5q89 0 131 -40.5t48 -116.5l-61 -11q-6 59 -34.5 85
t-82.5 26q-55 0 -77.5 -22.5t-22.5 -52.5q0 -25 13 -39.5t42 -25.5q15 -6 34 -11.5t39 -11.5t39.5 -13t34.5 -14q41 -20 56.5 -49.5t15.5 -66.5q0 -70 -47 -105t-133 -35q-87 0 -136.5 40t-54.5 137zM124 752l112 -149l112 149l50 -22l-132 -196h-60l-132 196z" />
    <glyph glyph-name="Tcedilla" unicode="&#x162;" horiz-adv-x="539" 
d="M27 0zM511 701l-8 -67h-191v-634h-86v634h-199l8 67h476zM296 -53l-65 -201l-47 10l44 209z" />
    <glyph glyph-name="tcedilla" unicode="&#x163;" horiz-adv-x="352" 
d="M24 0zM170 635v-148h142l-6 -61q-9 0 -24.5 0.5t-34.5 1t-39 0.5h-38v-300q0 -33 14 -51t43 -18t42 18.5t19 47.5l39 -33q-4 -18 -12 -35.5t-22 -31.5t-35.5 -22.5t-51.5 -8.5q-60 0 -88 33t-28 93v308h-66l3 56h26q26 0 34.5 11t8.5 38v91zM225 -53l-65 -201l-47 10
l44 209z" />
    <glyph glyph-name="Tcaron" unicode="&#x164;" horiz-adv-x="539" 
d="M27 0zM511 701l-8 -67h-191v-634h-86v634h-199l8 67h476zM156 936l112 -133l112 133l50 -20l-132 -176h-59l-132 176z" />
    <glyph glyph-name="tcaron" unicode="&#x165;" horiz-adv-x="406" 
d="M24 0zM170 635v-148h142l-6 -61q-9 0 -24.5 0.5t-34.5 1t-39 0.5h-38v-300q0 -33 14 -51t43 -18t42 18.5t19 47.5l39 -33q-4 -18 -12 -35.5t-22 -31.5t-35.5 -22.5t-51.5 -8.5q-60 0 -88 33t-28 93v308h-66l3 56h26q26 0 34.5 11t8.5 38v91zM326 554q16 16 27 41.5
t11 51.5q-12 2 -23.5 12.5t-11.5 33.5t13 37t35 14t35.5 -14.5t13.5 -42.5q0 -36 -18 -79.5t-58 -76.5z" />
    <glyph glyph-name="Tbar" unicode="&#x166;" horiz-adv-x="539" 
d="M226 398v236h-199l8 67h476l-8 -67h-191v-236h117l-5 -59h-112v-339h-86v339h-118l4 59h114z" />
    <glyph glyph-name="tbar" unicode="&#x167;" horiz-adv-x="352" 
d="M90 290v138h-66l3 56h26q26 0 34.5 11t8.5 38v91l74 11v-148h142l-6 -61q-9 0 -24.5 0.5t-34.5 1t-39 0.5h-38v-138h161l-5 -59h-156v-103q0 -33 14 -51t43 -18t42 18.5t19 47.5l39 -33q-4 -18 -12 -35.5t-22 -31.5t-35.5 -22.5t-51.5 -8.5q-60 0 -88 33t-28 93v111h-80
l4 59h76z" />
    <glyph glyph-name="Utilde" unicode="&#x168;" horiz-adv-x="588" 
d="M71 0zM158 701v-449q0 -100 30.5 -148t107.5 -48q80 0 111.5 50t31.5 157v438h78v-452q0 -126 -52 -193.5t-172 -67.5q-60 0 -102.5 17.5t-69 50.5t-38.5 81.5t-12 111.5v452h87zM118 814q0 94 84 94q26 0 51.5 -9.5t48.5 -25.5q18 -13 34.5 -20t36.5 -7q21 0 33.5 11.5
t12.5 44.5l52 -19q0 -94 -85 -94q-26 0 -51 9.5t-48 25.5q-17 13 -34.5 20t-37.5 7q-21 0 -33.5 -11.5t-12.5 -43.5z" />
    <glyph glyph-name="utilde" unicode="&#x169;" horiz-adv-x="538" 
d="M65 0zM147 487v-332q0 -48 17 -71t62 -23q42 0 78.5 23.5t80.5 85.5v317h83v-487h-77q-5 40 -6 96q-42 -54 -86 -79t-101 -25q-74 0 -103.5 39.5t-29.5 115.5v340h82zM89 595q0 101 85 101q26 0 51.5 -10.5t48.5 -26.5q18 -14 34.5 -21t35.5 -7q21 0 34 12t13 46l52 -20
q0 -50 -22 -75t-63 -25q-26 0 -50 9.5t-50 26.5q-17 14 -34.5 21.5t-36.5 7.5q-21 0 -33.5 -12.5t-12.5 -46.5z" />
    <glyph glyph-name="Umacron" unicode="&#x16a;" horiz-adv-x="588" 
d="M71 0zM158 701v-449q0 -100 30.5 -148t107.5 -48q80 0 111.5 50t31.5 157v438h78v-452q0 -126 -52 -193.5t-172 -67.5q-60 0 -102.5 17.5t-69 50.5t-38.5 81.5t-12 111.5v452h87zM453 887l-4 -54h-316l3 54h317z" />
    <glyph glyph-name="umacron" unicode="&#x16b;" horiz-adv-x="538" 
d="M65 0zM147 487v-332q0 -48 17 -71t62 -23q42 0 78.5 23.5t80.5 85.5v317h83v-487h-77q-5 40 -6 96q-42 -54 -86 -79t-101 -25q-74 0 -103.5 39.5t-29.5 115.5v340h82zM428 684l-5 -59h-316l4 59h317z" />
    <glyph glyph-name="Uring" unicode="&#x16e;" horiz-adv-x="588" 
d="M71 0zM158 701v-449q0 -100 30.5 -148t107.5 -48q80 0 111.5 50t31.5 157v438h78v-452q0 -126 -52 -193.5t-172 -67.5q-60 0 -102.5 17.5t-69 50.5t-38.5 81.5t-12 111.5v452h87zM293 945q54 0 87 -31.5t33 -82.5q0 -50 -33 -81t-87 -31q-55 0 -87 31t-32 81
q0 51 32 82.5t87 31.5zM293 907q-36 0 -55.5 -21t-19.5 -55t19.5 -54t55.5 -20q35 0 56 20t21 54t-21 55t-56 21z" />
    <glyph glyph-name="uring" unicode="&#x16f;" horiz-adv-x="538" 
d="M65 0zM147 487v-332q0 -48 17 -71t62 -23q42 0 78.5 23.5t80.5 85.5v317h83v-487h-77q-5 40 -6 96q-42 -54 -86 -79t-101 -25q-74 0 -103.5 39.5t-29.5 115.5v340h82zM268 784q55 0 87.5 -34.5t32.5 -91.5q0 -56 -32.5 -90t-87.5 -34q-54 0 -86.5 34t-32.5 90
q0 57 32.5 91.5t86.5 34.5zM268 743q-35 0 -55 -23.5t-20 -61.5t20 -61t55 -23t55.5 23t20.5 61t-20.5 61.5t-55.5 23.5z" />
    <glyph glyph-name="Uhungarumlaut" unicode="&#x170;" horiz-adv-x="588" 
d="M71 0zM158 701v-449q0 -100 30.5 -148t107.5 -48q80 0 111.5 50t31.5 157v438h78v-452q0 -126 -52 -193.5t-172 -67.5q-60 0 -102.5 17.5t-69 50.5t-38.5 81.5t-12 111.5v452h87zM492 916l-108 -193l-50 19l87 203zM319 916l-108 -193l-50 19l87 203z" />
    <glyph glyph-name="uhungarumlaut" unicode="&#x171;" horiz-adv-x="538" 
d="M65 0zM147 487v-332q0 -48 17 -71t62 -23q42 0 78.5 23.5t80.5 85.5v317h83v-487h-77q-5 40 -6 96q-42 -54 -86 -79t-101 -25q-74 0 -103.5 39.5t-29.5 115.5v340h82zM459 748l-105 -209l-50 20l85 220zM289 748l-105 -209l-51 20l85 220z" />
    <glyph glyph-name="Uogonek" unicode="&#x172;" horiz-adv-x="588" 
d="M517 249q0 -72 -13.5 -117t-34 -71.5t-44 -39.5t-44.5 -21q-26 -10 -55 -22.5t-53 -28.5t-40 -37t-16 -48q0 -23 15.5 -39.5t57.5 -16.5q41 0 58 15t24 34l40 -26q-6 -16 -15 -31t-24.5 -27t-39.5 -19.5t-58 -7.5q-35 0 -59.5 7.5t-39.5 21t-22 30.5t-7 37
q0 46 35.5 83.5t106.5 62.5q-59 1 -100.5 18.5t-67.5 50.5t-38 81.5t-12 110.5v452h87v-449q0 -101 30.5 -148.5t107.5 -47.5q80 0 111.5 50.5t31.5 156.5v438h78v-452v0z" />
    <glyph glyph-name="uogonek" unicode="&#x173;" horiz-adv-x="538" 
d="M147 487v-332q0 -48 17 -71t62 -23q42 0 78.5 23.5t80.5 85.5v317h83v-487q-49 -12 -84.5 -28.5t-59 -34.5t-34.5 -37t-11 -36q0 -23 16.5 -39.5t54.5 -16.5q39 0 57.5 13t26.5 36l40 -26q-6 -16 -15 -31t-24.5 -27t-39.5 -19.5t-60 -7.5q-68 0 -97 28.5t-29 70.5
q0 45 43.5 85t138.5 63q-2 20 -3.5 48t-2.5 55q-42 -54 -86 -79t-101 -25q-74 0 -103.5 39.5t-29.5 115.5v340h82z" />
    <glyph glyph-name="Wcircumflex" unicode="&#x174;" horiz-adv-x="822" 
d="M26 0zM114 701l121 -577l140 577h85l141 -579l119 579h75l-149 -701h-99l-138 570l-139 -570h-94l-150 701h88zM440 929l132 -176l-50 -20l-112 133l-112 -133l-49 20l132 176h59z" />
    <glyph glyph-name="wcircumflex" unicode="&#x175;" horiz-adv-x="707" 
d="M26 0zM103 487l96 -397l117 397h79l115 -400l96 400h75l-121 -487h-94l-113 399l-115 -399h-91l-121 487h77zM383 752l132 -197l-50 -21l-112 149l-112 -149l-50 21l132 197h60z" />
    <glyph glyph-name="Ycircumflex" unicode="&#x176;" horiz-adv-x="514" 
d="M23 0zM111 701l155 -341l157 341h69l-191 -407v-294h-87v294l-191 407h88zM294 929l132 -176l-50 -20l-112 133l-112 -133l-49 20l132 176h59z" />
    <glyph glyph-name="ycircumflex" unicode="&#x177;" horiz-adv-x="465" 
d="M9 0zM107 487l132 -437l131 437h71l-165 -556q-24 -82 -59 -116.5t-86 -34.5q-24 0 -43.5 6.5t-35 16t-26.5 20.5t-17 21l29 49q12 -17 33 -31t50 -14q13 0 24 4t21.5 15t20.5 30t20 48l-182 542h82zM269 752l132 -197l-50 -21l-112 149l-112 -149l-50 21l132 197h60z
" />
    <glyph glyph-name="Ydieresis" unicode="&#x178;" horiz-adv-x="514" 
d="M23 0zM111 701l155 -341l157 341h69l-191 -407v-294h-87v294l-191 407h88zM166 893q20 0 34.5 -13.5t14.5 -32.5t-14.5 -32.5t-34.5 -13.5t-34.5 13.5t-14.5 32.5t14.5 32.5t34.5 13.5zM357 893q20 0 34.5 -13.5t14.5 -32.5t-14.5 -32.5t-34.5 -13.5t-34.5 13.5
t-14.5 32.5t14.5 32.5t34.5 13.5z" />
    <glyph glyph-name="Zacute" unicode="&#x179;" horiz-adv-x="518" 
d="M46 0zM461 701v-59l-312 -575h321l-11 -67h-413v59l317 575h-305l8 67h395zM371 916l-108 -193l-50 19l87 203z" />
    <glyph glyph-name="zacute" unicode="&#x17a;" horiz-adv-x="446" 
d="M44 0zM389 487v-53l-242 -373h254l-9 -61h-348v44l251 381h-242l8 62h328zM331 748l-105 -209l-51 20l85 220z" />
    <glyph glyph-name="Zdotaccent" unicode="&#x17b;" horiz-adv-x="518" 
d="M46 0zM461 701v-59l-312 -575h321l-11 -67h-413v59l317 575h-305l8 67h395zM212 847q0 19 14.5 32.5t34.5 13.5t34.5 -13.5t14.5 -32.5t-14.5 -32.5t-34.5 -13.5t-34.5 13.5t-14.5 32.5z" />
    <glyph glyph-name="zdotaccent" unicode="&#x17c;" horiz-adv-x="446" 
d="M44 0zM389 487v-53l-242 -373h254l-9 -61h-348v44l251 381h-242l8 62h328zM224 682q20 0 34.5 -14.5t14.5 -35.5q0 -20 -14.5 -34.5t-34.5 -14.5t-34 14.5t-14 34.5q0 21 14 35.5t34 14.5z" />
    <glyph glyph-name="Zcaron" unicode="&#x17d;" horiz-adv-x="518" 
d="M46 0zM461 701v-59l-312 -575h321l-11 -67h-413v59l317 575h-305l8 67h395zM148 936l112 -133l112 133l50 -20l-132 -176h-59l-132 176z" />
    <glyph glyph-name="zcaron" unicode="&#x17e;" horiz-adv-x="446" 
d="M44 0zM389 487v-53l-242 -373h254l-9 -61h-348v44l251 381h-242l8 62h328zM114 752l112 -149l112 149l50 -22l-132 -196h-60l-132 196z" />
    <glyph glyph-name="uni0180" unicode="&#x180;" horiz-adv-x="553" 
d="M69 661v71l83 8v-79h175l-5 -59h-170v-188q29 38 70.5 61.5t102.5 23.5q37 0 69 -11t55.5 -39.5t36.5 -77.5t13 -124t-13 -125t-36.5 -80t-55.5 -42t-71 -12q-60 0 -102 23.5t-71 64.5q-2 -23 -6 -42t-9 -34h-66v602h-63l4 59h59zM300 435q-51 0 -87.5 -29t-60.5 -83
v-161q24 -54 61.5 -82t85.5 -28q27 0 49 10t37.5 32.5t24 59.5t8.5 91t-8.5 90.5t-24 58.5t-37 31.5t-48.5 9.5z" />
    <glyph glyph-name="uni0181" unicode="&#x181;" horiz-adv-x="735" 
d="M451 701q100 0 150.5 -38t50.5 -128q0 -67 -25.5 -106t-65.5 -57q57 -15 89.5 -55.5t32.5 -119.5q0 -43 -11 -79t-35.5 -62.5t-64 -41t-95.5 -14.5h-256v640h-51q-51 0 -71 -30t-20 -89v-101h-75v101q0 97 37 138.5t118 41.5h292zM306 67h153q39 0 65 10.5t42 29t23 43
t7 53.5q0 133 -134 133h-156v-269zM306 396h134q67 0 96.5 30.5t29.5 91.5q0 63 -30 89t-94 26h-136v-237z" />
    <glyph glyph-name="uni0187" unicode="&#x187;" horiz-adv-x="734" 
d="M489 438q-4 44 -13 82t-26.5 66.5t-46.5 44.5t-72 16q-88 0 -134.5 -72.5t-46.5 -226.5q0 -78 12 -133.5t35 -90.5t56.5 -51.5t76.5 -16.5q75 0 113.5 49.5t53.5 157.5l62 -12q-8 -56 -21.5 -104t-39.5 -83.5t-68 -55.5t-105 -20q-126 0 -195 87t-69 272t68.5 276.5
t194.5 91.5q52 0 93.5 -17.5t68.5 -61.5q12 57 44.5 83t83.5 26q55 0 84 -25.5t36 -60.5l-29 -39q-11 30 -28.5 47t-54.5 17q-44 0 -62 -26.5t-18 -84.5q0 -25 2.5 -56.5t7.5 -70.5z" />
    <glyph glyph-name="uni0188" unicode="&#x188;" horiz-adv-x="617" 
d="M373 325q-7 55 -31.5 82.5t-81.5 27.5q-69 0 -98 -44t-29 -146q0 -101 28 -147t94 -46q33 0 54.5 11t35 30t20.5 45t11 56l62 -9q-4 -35 -13 -70t-29.5 -63t-55 -45.5t-89.5 -17.5q-54 0 -91.5 18t-61 51t-34 80.5t-10.5 106.5q0 123 46 188.5t152 65.5q43 0 75 -11.5
t52 -35.5q8 55 37.5 87t85.5 32q53 0 80.5 -26t34.5 -60l-29 -39q-10 29 -28.5 46.5t-50.5 17.5q-38 0 -58 -29.5t-20 -107.5v-18t1 -19z" />
    <glyph glyph-name="uni018A" unicode="&#x18a;" horiz-adv-x="766" 
d="M434 701q78 0 130 -17.5t83.5 -58t44.5 -107t13 -163.5q0 -99 -13.5 -166.5t-45 -109.5t-83.5 -60.5t-129 -18.5h-213v640h-51q-51 0 -71 -30t-20 -89v-101h-75v101q0 97 37 138.5t118 41.5h275zM307 68h126q53 0 88.5 16.5t56.5 51.5t30 90.5t9 132.5q0 76 -8.5 128.5
t-29.5 85t-57 47t-91 14.5h-124v-566z" />
    <glyph glyph-name="uni018E" unicode="&#x18e;" horiz-adv-x="520" 
d="M444 701v-701h-399l8 67h298v272h-233l8 63h225v232h-299l8 67h384z" />
    <glyph glyph-name="uni018F" unicode="&#x18f;" horiz-adv-x="632" 
d="M475 392q-5 134 -52 194.5t-128 60.5q-34 0 -59 -10t-43.5 -28.5t-31 -46t-21.5 -62.5l-63 14q9 44 25 81t42 63.5t64 41.5t93 15q126 0 195 -87t69 -271q0 -93 -18 -162.5t-51.5 -115.5t-81 -68.5t-105.5 -22.5q-66 0 -112 26t-75 70t-42 101.5t-13 119.5q0 43 6 87h402
zM304 56q75 0 120.5 66.5t50.5 204.5h-328q-1 -8 -1 -16v-16q0 -50 9 -93.5t28.5 -76t49.5 -51t71 -18.5z" />
    <glyph glyph-name="florin" unicode="&#x192;" horiz-adv-x="539" 
d="M241 328l25 223q10 84 47 123.5t103 39.5q30 0 50.5 -7.5t34 -19.5t20 -28t8.5 -32l-32 -39q-6 30 -22.5 47t-45.5 17q-38 0 -56.5 -28t-23.5 -74l-25 -222h160l-3 -51h-163l-30 -273q-10 -83 -46.5 -124.5t-104.5 -41.5q-54 0 -82.5 24t-36.5 54l34 46q5 -27 22 -43
t47 -16q38 0 58.5 27t25.5 77l30 270h-156l4 51h158z" />
    <glyph glyph-name="uni0194" unicode="&#x194;" 
d="M118 701l177 -427l187 427h77l-226 -517q27 -63 43 -107.5t25 -77t12 -57t3 -46.5q0 -33 -5.5 -60.5t-20 -47t-39 -30t-61.5 -10.5q-36 0 -60.5 10t-39 29t-20.5 45.5t-6 59.5q0 23 3.5 48t13.5 57.5t27.5 76t44.5 103.5l-228 524h93zM291 -199q38 0 51 25t13 63
q0 13 -2 28t-8.5 37.5t-19 54.5t-33.5 80q-21 -48 -33.5 -80t-19 -54.5t-8.5 -37.5t-2 -29q0 -38 12.5 -62.5t49.5 -24.5z" />
    <glyph glyph-name="uni0198" unicode="&#x198;" horiz-adv-x="660" 
d="M324 448l213 -448h-97l-171 378l-106 -132v-246h-87v701h87v-352l232 300q22 29 41.5 48t37.5 29.5t35.5 14.5t35.5 4q28 0 48.5 -7.5t34 -19.5t21.5 -27.5t11 -31.5l-29 -39q-9 28 -27.5 46t-49.5 18q-9 0 -18 -2.5t-21 -11t-28 -25t-38 -44.5z" />
    <glyph glyph-name="uni0199" unicode="&#x199;" horiz-adv-x="508" 
d="M69 565q0 97 38 138.5t105 41.5q30 0 51.5 -7.5t36.5 -19.5t23.5 -27.5t11.5 -31.5l-29 -39q-10 29 -28.5 46.5t-50.5 17.5q-42 0 -58.5 -29.5t-16.5 -89.5v-305l226 227h94l-168 -164l176 -323h-95l-139 266l-94 -91v-175h-83v565z" />
    <glyph glyph-name="uni019D" unicode="&#x19d;" horiz-adv-x="588" 
d="M152 701q4 -47 6 -111q46 62 96 92t116 30q81 0 114 -45t33 -131v-536h-86v527q0 52 -19.5 77t-70.5 25q-24 0 -46.5 -6t-44.5 -20.5t-44.5 -38.5t-47.5 -60v-575q0 -71 -31.5 -110t-103.5 -39q-30 0 -52 7t-37.5 17.5t-25.5 23.5t-15 26l29 45q8 -21 24.5 -37t52.5 -16
q40 0 56 23t16 63v769h81z" />
    <glyph glyph-name="uni01A0" unicode="&#x1a0;" horiz-adv-x="655" 
d="M663 765v-42q0 -84 -27 -124.5t-90 -40.5q27 -81 27 -209q0 -87 -13 -154.5t-43 -113.5t-79.5 -70t-122.5 -24q-66 0 -114 20.5t-79 64.5t-46 113t-15 165q0 85 12.5 153t42.5 114.5t80 71.5t124 25t124 -25.5t81 -80.5q38 0 53 27.5t15 89.5v40h70zM320 646
q-50 0 -82.5 -20t-52.5 -58t-28 -93.5t-8 -126.5q0 -151 37.5 -221.5t130.5 -70.5q49 0 81.5 18.5t51.5 55.5t26.5 91t7.5 126q0 154 -36.5 226.5t-127.5 72.5z" />
    <glyph glyph-name="uni01A1" unicode="&#x1a1;" horiz-adv-x="550" 
d="M558 548v-42q0 -84 -27.5 -124.5t-92.5 -40.5q4 -21 6 -44t2 -52q0 -59 -10.5 -106t-33.5 -80.5t-60.5 -51.5t-92.5 -18t-92 18t-60 52t-33 82t-10 108q0 54 8.5 100t30.5 79t60 52t96 19q73 0 114.5 -29t61.5 -79q34 0 48 27.5t14 89.5v40h71zM249 435q-35 0 -57 -13
t-35.5 -37.5t-18.5 -59t-5 -77.5q0 -100 26 -148t91 -48t90.5 48.5t25.5 146.5q0 43 -5 78t-18.5 59.5t-36 37.5t-57.5 13z" />
    <glyph glyph-name="uni01AF" unicode="&#x1af;" horiz-adv-x="670" 
d="M158 701v-449q0 -101 30.5 -148.5t107.5 -47.5q80 0 111.5 50.5t31.5 156.5v438h78v-87q7 -3 15 -4.5t16 -1.5q32 0 45.5 27t13.5 90v40h71v-42q0 -84 -26.5 -124.5t-84.5 -40.5q-26 0 -50 8v-317q0 -126 -52 -193.5t-172 -67.5q-60 0 -102.5 17.5t-69 50.5t-38.5 81.5
t-12 111.5v452h87z" />
    <glyph glyph-name="uni01B0" unicode="&#x1b0;" horiz-adv-x="607" 
d="M147 487v-332q0 -48 17 -71t62 -23q42 0 78.5 23.5t80.5 85.5v317h83v-94q4 -2 8 -2h9q32 0 45.5 27.5t13.5 89.5v40h71v-42q0 -85 -26.5 -125t-84.5 -40q-8 0 -18 1t-18 3v-345h-77q-5 40 -6 96q-42 -54 -86 -79t-101 -25q-74 0 -103.5 39.5t-29.5 115.5v340h82z" />
    <glyph glyph-name="uni01B3" unicode="&#x1b3;" horiz-adv-x="651" 
d="M366 578q25 55 47.5 88t43 50.5t40 23t39.5 5.5q55 0 80.5 -25.5t33.5 -60.5l-29 -39q-10 29 -28 46.5t-50 17.5q-12 0 -25 -4.5t-28 -19.5t-33 -43t-40 -76l-116 -247v-294h-87v294l-191 407h88l155 -341z" />
    <glyph glyph-name="uni01B4" unicode="&#x1b4;" horiz-adv-x="612" 
d="M276 -69q-24 -82 -59 -116.5t-86 -34.5q-24 0 -43.5 6.5t-35 16t-26.5 20.5t-17 21l29 49q12 -17 33 -31t50 -14q13 0 24 4t21.5 15t20.5 30t20 48l-182 542h82l132 -437l94 309q20 67 39 107.5t38 62t39.5 28t44.5 6.5q30 0 51 -7t34.5 -19t21 -27.5t11.5 -32.5l-29 -39
q-10 29 -28.5 46.5t-50.5 17.5q-13 0 -25.5 -5t-25.5 -21t-26.5 -47.5t-28.5 -83.5z" />
    <glyph glyph-name="uni01C4" unicode="&#x1c4;" horiz-adv-x="1139" 
d="M76 0zM289 701q78 0 130 -17.5t83.5 -58t44.5 -107t13 -163.5q0 -99 -13.5 -166.5t-45 -109.5t-83.5 -60.5t-129 -18.5h-213v701h213zM162 68h126q53 0 88.5 16.5t56.5 51.5t30 90.5t9 132.5q0 76 -8.5 128.5t-29.5 85t-57 47t-91 14.5h-124v-566zM1082 701v-59
l-312 -575h321l-11 -67h-413v59l317 575h-305l8 67h395zM769 936l112 -133l112 133l50 -20l-132 -176h-59l-132 176z" />
    <glyph glyph-name="uni01C5" unicode="&#x1c5;" horiz-adv-x="1067" 
d="M76 0zM289 701q78 0 130 -17.5t83.5 -58t44.5 -107t13 -163.5q0 -99 -13.5 -166.5t-45 -109.5t-83.5 -60.5t-129 -18.5h-213v701h213zM162 68h126q53 0 88.5 16.5t56.5 51.5t30 90.5t9 132.5q0 76 -8.5 128.5t-29.5 85t-57 47t-91 14.5h-124v-566zM1010 487v-53
l-242 -373h254l-9 -61h-348v44l251 381h-242l8 62h328zM735 752l112 -149l112 149l50 -22l-132 -196h-60l-132 196z" />
    <glyph glyph-name="uni01C6" unicode="&#x1c6;" horiz-adv-x="999" 
d="M54 0zM484 740v-740h-77q-4 30 -6 73q-29 -39 -71.5 -62t-102.5 -23q-37 0 -68.5 11t-55 39.5t-36.5 77.5t-13 124t13 125t36 79.5t55.5 42t70.5 12.5q58 0 100.5 -23t71.5 -63v319zM252 52q51 0 88 28.5t61 82.5v161q-25 54 -62 82.5t-85 28.5q-27 0 -49 -10
t-37.5 -32.5t-24 -59.5t-8.5 -91t8.5 -90.5t24 -58.5t37 -31.5t47.5 -9.5zM942 487v-53l-242 -373h254l-9 -61h-348v44l251 381h-242l8 62h328zM667 752l112 -149l112 149l50 -22l-132 -196h-60l-132 196z" />
    <glyph glyph-name="uni01DD" unicode="&#x1dd;" horiz-adv-x="504" 
d="M371 257q-2 96 -31 137.5t-91 41.5q-51 0 -83.5 -29.5t-42.5 -99.5l-62 10q12 91 56.5 136.5t134.5 45.5q100 0 149 -60.5t49 -197.5q0 -124 -45 -188t-154 -64q-59 0 -97 18t-60 49.5t-31 75t-9 94.5v16.5t1 14.5h316zM254 49q60 0 86 38.5t30 120.5h-237
q1 -74 28.5 -116.5t92.5 -42.5z" />
    <glyph glyph-name="uni01E6" unicode="&#x1e6;" horiz-adv-x="621" 
d="M61 0zM552 369v-369h-67q-4 14 -6.5 32t-4.5 42q-29 -38 -70.5 -62t-101.5 -24q-53 0 -97 21.5t-76 66t-50 113t-18 162.5q0 183 68 273.5t202 90.5q47 0 84.5 -12.5t65.5 -41t45.5 -75.5t24.5 -116l-62 -14q-7 57 -20.5 94t-33 58.5t-44 30t-54.5 8.5q-93 0 -140 -72
t-47 -226q0 -79 12 -134.5t34.5 -91t53.5 -51.5t70 -16q54 0 91.5 27t60.5 75v145h-138l8 66h210zM220 936l112 -133l112 133l50 -20l-132 -176h-59l-132 176z" />
    <glyph glyph-name="uni01E7" unicode="&#x1e7;" horiz-adv-x="538" 
d="M18 0zM55 327q0 34 8 63t29 50.5t57.5 34t92.5 12.5q33 0 57.5 -4t44.5 -11q14 52 41 74.5t65 22.5q32 0 52 -14t34 -40l-42 -42q-10 18 -25 28.5t-32 10.5q-20 0 -36 -14t-27 -41q32 -22 44.5 -55.5t12.5 -75.5q0 -38 -9.5 -69t-31.5 -53t-58 -33.5t-89 -11.5
q-58 0 -97 14q-15 -17 -15 -39q0 -25 22 -35t60 -17q10 -2 33 -6t49 -9t52 -10.5t43 -11.5q50 -17 70 -44.5t20 -73.5q0 -36 -11.5 -63.5t-39.5 -47t-74.5 -29.5t-115.5 -10q-64 0 -106.5 8.5t-68 24t-36 37t-10.5 48.5q0 48 29 81t80 55q-26 10 -42 28t-16 53q0 21 8 43
t31 38q-29 22 -41 56t-12 78zM348 -16q-14 4 -34 8t-42.5 8t-45.5 8t-42 8q-45 -18 -70.5 -44.5t-25.5 -64.5q0 -19 7.5 -33t25 -23.5t47 -14.5t73.5 -5q48 0 80 5.5t51 16.5t27 27t8 37q0 24 -12 40t-47 27zM242 436q-66 0 -89.5 -28.5t-23.5 -81.5q0 -59 25.5 -88
t87.5 -29q63 0 88.5 29t25.5 87q0 55 -24.5 83t-89.5 28zM145 752l112 -149l112 149l50 -22l-132 -196h-60l-132 196z" />
    <glyph glyph-name="uni01F0" unicode="&#x1f0;" horiz-adv-x="294" 
d="M0 0zM35 752l112 -149l112 149l50 -22l-132 -196h-60l-132 196zM194 487v-558q0 -71 -30 -110t-101 -39q-30 0 -52 7t-37.5 17.5t-25.5 23.5t-15 26l29 45q8 -21 24.5 -37t52.5 -16q40 0 56 23t16 63v555h83z" />
    <glyph glyph-name="uni01F1" unicode="&#x1f1;" horiz-adv-x="1139" 
d="M76 0zM289 701q78 0 130 -17.5t83.5 -58t44.5 -107t13 -163.5q0 -99 -13.5 -166.5t-45 -109.5t-83.5 -60.5t-129 -18.5h-213v701h213zM162 68h126q53 0 88.5 16.5t56.5 51.5t30 90.5t9 132.5q0 76 -8.5 128.5t-29.5 85t-57 47t-91 14.5h-124v-566zM1082 701v-59
l-312 -575h321l-11 -67h-413v59l317 575h-305l8 67h395z" />
    <glyph glyph-name="uni01F2" unicode="&#x1f2;" horiz-adv-x="1067" 
d="M76 0zM289 701q78 0 130 -17.5t83.5 -58t44.5 -107t13 -163.5q0 -99 -13.5 -166.5t-45 -109.5t-83.5 -60.5t-129 -18.5h-213v701h213zM162 68h126q53 0 88.5 16.5t56.5 51.5t30 90.5t9 132.5q0 76 -8.5 128.5t-29.5 85t-57 47t-91 14.5h-124v-566zM1010 487v-53
l-242 -373h254l-9 -61h-348v44l251 381h-242l8 62h328z" />
    <glyph glyph-name="uni01F3" unicode="&#x1f3;" horiz-adv-x="999" 
d="M54 0zM484 740v-740h-77q-4 30 -6 73q-29 -39 -71.5 -62t-102.5 -23q-37 0 -68.5 11t-55 39.5t-36.5 77.5t-13 124t13 125t36 79.5t55.5 42t70.5 12.5q58 0 100.5 -23t71.5 -63v319zM252 52q51 0 88 28.5t61 82.5v161q-25 54 -62 82.5t-85 28.5q-27 0 -49 -10
t-37.5 -32.5t-24 -59.5t-8.5 -91t8.5 -90.5t24 -58.5t37 -31.5t47.5 -9.5zM942 487v-53l-242 -373h254l-9 -61h-348v44l251 381h-242l8 62h328z" />
    <glyph glyph-name="uni01F4" unicode="&#x1f4;" horiz-adv-x="621" 
d="M61 0zM552 369v-369h-67q-4 14 -6.5 32t-4.5 42q-29 -38 -70.5 -62t-101.5 -24q-53 0 -97 21.5t-76 66t-50 113t-18 162.5q0 183 68 273.5t202 90.5q47 0 84.5 -12.5t65.5 -41t45.5 -75.5t24.5 -116l-62 -14q-7 57 -20.5 94t-33 58.5t-44 30t-54.5 8.5q-93 0 -140 -72
t-47 -226q0 -79 12 -134.5t34.5 -91t53.5 -51.5t70 -16q54 0 91.5 27t60.5 75v145h-138l8 66h210zM438 916l-108 -193l-50 19l87 203z" />
    <glyph glyph-name="uni01F5" unicode="&#x1f5;" horiz-adv-x="538" 
d="M18 0zM55 327q0 34 8 63t29 50.5t57.5 34t92.5 12.5q33 0 57.5 -4t44.5 -11q14 52 41 74.5t65 22.5q32 0 52 -14t34 -40l-42 -42q-10 18 -25 28.5t-32 10.5q-20 0 -36 -14t-27 -41q32 -22 44.5 -55.5t12.5 -75.5q0 -38 -9.5 -69t-31.5 -53t-58 -33.5t-89 -11.5
q-58 0 -97 14q-15 -17 -15 -39q0 -25 22 -35t60 -17q10 -2 33 -6t49 -9t52 -10.5t43 -11.5q50 -17 70 -44.5t20 -73.5q0 -36 -11.5 -63.5t-39.5 -47t-74.5 -29.5t-115.5 -10q-64 0 -106.5 8.5t-68 24t-36 37t-10.5 48.5q0 48 29 81t80 55q-26 10 -42 28t-16 53q0 21 8 43
t31 38q-29 22 -41 56t-12 78zM348 -16q-14 4 -34 8t-42.5 8t-45.5 8t-42 8q-45 -18 -70.5 -44.5t-25.5 -64.5q0 -19 7.5 -33t25 -23.5t47 -14.5t73.5 -5q48 0 80 5.5t51 16.5t27 27t8 37q0 24 -12 40t-47 27zM242 436q-66 0 -89.5 -28.5t-23.5 -81.5q0 -59 25.5 -88
t87.5 -29q63 0 88.5 29t25.5 87q0 55 -24.5 83t-89.5 28zM348 748l-105 -209l-51 20l85 220z" />
    <glyph glyph-name="uni01F8" unicode="&#x1f8;" horiz-adv-x="628" 
d="M76 0zM174 701l307 -571v571h71v-701h-95l-312 577v-577h-69v701h98zM277 945l87 -203l-50 -19l-108 193z" />
    <glyph glyph-name="uni01F9" unicode="&#x1f9;" horiz-adv-x="540" 
d="M69 0zM146 487q5 -42 6 -98q42 54 86.5 80t102.5 26q74 0 103.5 -39.5t29.5 -116.5v-339h-82v332q0 48 -17 71t-63 23q-42 0 -79.5 -24t-80.5 -87v-315h-83v487h77zM234 779l85 -220l-50 -20l-106 209z" />
    <glyph glyph-name="Scommaaccent" unicode="&#x218;" horiz-adv-x="543" 
d="M48 0zM110 263q4 -56 17 -95.5t34 -64.5t50 -36t67 -11q68 0 101.5 32.5t33.5 88.5q0 33 -14.5 59.5t-53.5 48.5q-21 12 -46 21.5t-50.5 18.5t-50.5 19.5t-46 24.5q-36 23 -59 61t-23 101q0 34 9 67t31 59t59 41.5t94 15.5q55 0 94.5 -16t65.5 -46.5t39.5 -74.5
t16.5 -100l-60 -9q-6 93 -41.5 135.5t-107.5 42.5q-36 0 -60 -9.5t-38.5 -25t-20.5 -36t-6 -42.5q0 -38 15 -61t44 -39q19 -11 43 -19t50 -16.5t53 -19.5t53 -27q43 -27 66 -64t23 -99q0 -98 -55.5 -149t-158.5 -51q-50 0 -90 13.5t-69.5 44.5t-47 82t-23.5 125zM308 -53
l-65 -201l-47 10l44 209z" />
    <glyph glyph-name="scommaaccent" unicode="&#x219;" horiz-adv-x="463" 
d="M43 0zM105 178q5 -72 39 -101.5t94 -29.5q55 0 79.5 20t24.5 55q0 22 -11.5 40t-46.5 34q-15 6 -34.5 12.5l-40.5 13.5l-40.5 13.5t-33.5 13.5q-34 16 -51.5 42.5t-17.5 67.5q0 29 10.5 54t31.5 43t53.5 28.5t77.5 10.5q89 0 131 -40.5t48 -116.5l-61 -11q-6 59 -34.5 85
t-82.5 26q-55 0 -77.5 -22.5t-22.5 -52.5q0 -25 13 -39.5t42 -25.5q15 -6 34 -11.5t39 -11.5t39.5 -13t34.5 -14q41 -20 56.5 -49.5t15.5 -66.5q0 -70 -47 -105t-133 -35q-87 0 -136.5 40t-54.5 137zM265 -53l-65 -201l-47 10l44 209z" />
    <glyph glyph-name="uni021A" unicode="&#x21a;" horiz-adv-x="539" 
d="M27 0zM511 701l-8 -67h-191v-634h-86v634h-199l8 67h476zM296 -53l-65 -201l-47 10l44 209z" />
    <glyph glyph-name="uni021B" unicode="&#x21b;" horiz-adv-x="352" 
d="M24 0zM170 635v-148h142l-6 -61q-9 0 -24.5 0.5t-34.5 1t-39 0.5h-38v-300q0 -33 14 -51t43 -18t42 18.5t19 47.5l39 -33q-4 -18 -12 -35.5t-22 -31.5t-35.5 -22.5t-51.5 -8.5q-60 0 -88 33t-28 93v308h-66l3 56h26q26 0 34.5 11t8.5 38v91zM229 -53l-65 -201l-47 10
l44 209z" />
    <glyph glyph-name="dotlessj" unicode="&#x237;" horiz-adv-x="244" 
d="M175 487v-558q0 -71 -30 -110t-101 -39q-30 0 -52 7t-37.5 17.5t-25.5 23.5t-15 26l29 45q8 -21 24.5 -37t52.5 -16q40 0 56 23t16 63v555h83z" />
    <glyph glyph-name="uni0241" unicode="&#x241;" horiz-adv-x="463" 
d="M41 534q1 48 9 84.5t29 61.5t57 38t92 13q85 0 130.5 -35.5t45.5 -124.5q0 -25 -4 -45.5t-12 -39t-20.5 -37t-29.5 -39.5q-20 -24 -36.5 -44.5t-29.5 -42t-20 -46.5t-7 -57v-220h-83v217q0 33 5 57t17 47.5t32 49t50 61.5q31 35 43.5 62t12.5 63q0 60 -25 83.5t-79 23.5
q-34 0 -56 -8.5t-35.5 -25.5t-19 -43.5t-5.5 -62.5z" />
    <glyph glyph-name="uni0242" unicode="&#x242;" horiz-adv-x="463" 
d="M41 314q1 44 9 78t29 57.5t56.5 35.5t91.5 12q86 0 131.5 -32.5t45.5 -114.5q0 -24 -4 -43t-12.5 -36.5t-21 -34t-28.5 -34.5q-18 -21 -35 -39t-29.5 -38.5t-20.5 -44.5t-8 -55v-25h-83v22q0 30 5 52.5t17 44.5t32 46t50 58q15 16 26 29.5t17.5 26.5t9.5 27t3 31
q0 52 -25 72.5t-79 20.5q-34 0 -56 -7.5t-35.5 -22.5t-19 -38.5t-5.5 -56.5z" />
    <glyph glyph-name="uni024C" unicode="&#x24c;" horiz-adv-x="578" 
d="M76 293v408h219q58 0 101 -10t71.5 -35.5t42.5 -70t14 -113.5q0 -60 -10.5 -102.5t-31.5 -71.5t-53 -45t-74 -22q12 -88 58 -139.5t114 -51.5h10t10 1l-7 -42q-32 -13 -65 -13q-35 0 -66.5 15t-55.5 43t-38.5 68t-14.5 90v12.5t1 13.5h-139v-228h-86v229h-79l4 64h75z
M162 293h134q37 0 64 9t44 29.5t25.5 54t8.5 82.5t-8 80.5t-25.5 50t-44 26t-62.5 7.5h-136v-339z" />
    <glyph glyph-name="uni024D" unicode="&#x24d;" horiz-adv-x="446" 
d="M69 229v258h77q4 -46 6 -112q36 66 72.5 91.5t83.5 25.5q39 0 66.5 -15.5t46.5 -47.5l-36 -53q-17 25 -35.5 35t-47.5 10q-18 0 -35.5 -5t-35.5 -20t-37.5 -43.5t-41.5 -74.5v-49h175l-5 -59h-170v-170h-83v170h-63l4 59h59z" />
    <glyph glyph-name="uni0253" unicode="&#x253;" horiz-adv-x="553" 
d="M152 414q29 38 70.5 61.5t102.5 23.5q37 0 69 -11t55.5 -39.5t36.5 -77.5t13 -124t-13 -125t-36.5 -80t-55.5 -42t-71 -12q-60 0 -102 23.5t-71 64.5q-2 -23 -6 -42t-9 -34h-66v565q0 97 38 138.5t105 41.5q30 0 51.5 -7.5t36.5 -19.5t23.5 -27.5t11.5 -31.5l-29 -39
q-10 29 -28.5 46.5t-50.5 17.5q-42 0 -58.5 -29.5t-16.5 -89.5v-151zM300 435q-51 0 -87.5 -29t-60.5 -83v-161q24 -54 61.5 -82t85.5 -28q27 0 49 10t37.5 32.5t24 59.5t8.5 91t-8.5 90.5t-24 58.5t-37 31.5t-48.5 9.5z" />
    <glyph glyph-name="uni0257" unicode="&#x257;" horiz-adv-x="667" 
d="M401 565q0 97 38 138.5t105 41.5q30 0 51.5 -7.5t36.5 -19.5t23.5 -27.5t11.5 -31.5l-29 -39q-10 29 -28.5 46.5t-50.5 17.5q-42 0 -58.5 -29.5t-16.5 -89.5v-565h-77q-4 30 -6 73q-29 -39 -71.5 -62t-102.5 -23q-37 0 -68.5 11t-55 39.5t-36.5 77.5t-13 124t13 125
t36 79.5t55.5 42t70.5 12.5q58 0 100.5 -23t71.5 -63v152zM252 52q51 0 88 28.5t61 82.5v161q-25 54 -62 82.5t-85 28.5q-27 0 -49 -10t-37.5 -32.5t-24 -59.5t-8.5 -91t8.5 -90.5t24 -58.5t37 -31.5t47.5 -9.5z" />
    <glyph glyph-name="uni0263" unicode="&#x263;" horiz-adv-x="475" 
d="M109 487l131 -307l138 307h72l-176 -386q21 -50 34 -85t20 -60.5t9 -44t2 -34.5q0 -54 -21.5 -85.5t-81.5 -31.5q-58 0 -80 29.5t-22 81.5q0 16 2.5 35.5t10 45.5t21 61t35.5 84l-178 390h84zM237 -195q28 0 39.5 16t11.5 47q0 10 -1.5 21.5t-7 29t-15.5 41.5t-26 60
q-17 -35 -26.5 -59t-15 -41.5t-7 -29.5t-1.5 -22q0 -31 11 -47t38 -16z" />
    <glyph glyph-name="uni0272" unicode="&#x272;" horiz-adv-x="550" 
d="M156 487q5 -42 6 -98q42 54 86.5 80t102.5 26q74 0 103.5 -39.5t29.5 -116.5v-339h-82v332q0 48 -17 71t-63 23q-42 0 -79.5 -24t-80.5 -87v-386q0 -71 -30 -110t-101 -39q-30 0 -52 7t-37.5 17.5t-25.5 23.5t-15 26l29 45q8 -21 24.5 -37t52.5 -16q40 0 56 23t16 63v555
h77z" />
    <glyph glyph-name="circumflex" unicode="&#x2c6;" horiz-adv-x="419" 
d="M239 752l132 -197l-50 -21l-112 149l-112 -149l-50 21l132 197h60z" />
    <glyph glyph-name="caron" unicode="&#x2c7;" horiz-adv-x="419" 
d="M97 752l112 -149l112 149l50 -22l-132 -196h-60l-132 196z" />
    <glyph glyph-name="breve" unicode="&#x2d8;" horiz-adv-x="462" 
d="M84 723q28 -45 66 -64t79 -19q42 0 80 19t67 64l36 -33q-31 -64 -80 -90.5t-103 -26.5t-102.5 26.5t-79.5 90.5z" />
    <glyph glyph-name="dotaccent" unicode="&#x2d9;" horiz-adv-x="192" 
d="M95 682q20 0 34.5 -14.5t14.5 -35.5q0 -20 -14.5 -34.5t-34.5 -14.5t-34 14.5t-14 34.5q0 21 14 35.5t34 14.5z" />
    <glyph glyph-name="ring" unicode="&#x2da;" horiz-adv-x="336" 
d="M166 784q55 0 87.5 -34.5t32.5 -91.5q0 -56 -32.5 -90t-87.5 -34q-54 0 -86.5 34t-32.5 90q0 57 32.5 91.5t86.5 34.5zM166 743q-35 0 -55 -23.5t-20 -61.5t20 -61t55 -23t55.5 23t20.5 61t-20.5 61.5t-55.5 23.5z" />
    <glyph glyph-name="ogonek" unicode="&#x2db;" horiz-adv-x="361" 
d="M306 0q-49 -12 -84.5 -28.5t-59 -34.5t-34.5 -37t-11 -36q0 -23 16.5 -39.5t54.5 -16.5q39 0 57.5 13t26.5 36l40 -26q-6 -16 -15 -31t-24.5 -27t-39.5 -19.5t-60 -7.5q-68 0 -97 28.5t-29 70.5q0 48 51 90.5t163 64.5h45z" />
    <glyph glyph-name="tilde" unicode="&#x2dc;" horiz-adv-x="450" 
d="M47 595q0 101 85 101q26 0 51.5 -10.5t48.5 -26.5q18 -14 34.5 -21t35.5 -7q21 0 34 12t13 46l52 -20q0 -50 -22 -75t-63 -25q-26 0 -50 9.5t-50 26.5q-17 14 -34.5 21.5t-36.5 7.5q-21 0 -33.5 -12.5t-12.5 -46.5z" />
    <glyph glyph-name="hungarumlaut" unicode="&#x2dd;" horiz-adv-x="463" 
d="M389 748l-105 -209l-50 20l85 220zM219 748l-105 -209l-51 20l85 220z" />
    <glyph glyph-name="gravecomb" unicode="&#x300;" horiz-adv-x="35" 
d="M-216 539zM-301 779l85 -220l-50 -20l-106 209z" />
    <glyph glyph-name="acutecomb" unicode="&#x301;" horiz-adv-x="35" 
d="M-154 539zM-154 748l-105 -209l-51 20l85 220z" />
    <glyph glyph-name="uni0302" unicode="&#x302;" horiz-adv-x="35" 
d="M-103 534zM-235 752l132 -197l-50 -21l-112 149l-112 -149l-50 21l132 197h60z" />
    <glyph glyph-name="tildecomb" unicode="&#x303;" horiz-adv-x="35" 
d="M-94 569zM-448 595q0 101 85 101q26 0 51.5 -10.5t48.5 -26.5q18 -14 34.5 -21t35.5 -7q21 0 34 12t13 46l52 -20q0 -50 -22 -75t-63 -25q-26 0 -50 9.5t-50 26.5q-17 14 -34.5 21.5t-36.5 7.5q-21 0 -33.5 -12.5t-12.5 -46.5z" />
    <glyph glyph-name="uni0304" unicode="&#x304;" horiz-adv-x="35" 
d="M-97 625zM-97 684l-5 -59h-316l4 59h317z" />
    <glyph glyph-name="uni0306" unicode="&#x306;" horiz-adv-x="35" 
d="M-83 573zM-411 723q28 -45 66 -64t79 -19q42 0 80 19t67 64l36 -33q-31 -64 -80 -90.5t-103 -26.5t-102.5 26.5t-79.5 90.5z" />
    <glyph glyph-name="uni0307" unicode="&#x307;" horiz-adv-x="35" 
d="M-221 583zM-270 682q20 0 34.5 -14.5t14.5 -35.5q0 -20 -14.5 -34.5t-34.5 -14.5t-34 14.5t-14 34.5q0 21 14 35.5t34 14.5z" />
    <glyph glyph-name="uni0308" unicode="&#x308;" horiz-adv-x="35" 
d="M-121 583zM-361 682q20 0 34.5 -14.5t14.5 -35.5q0 -20 -14.5 -34.5t-34.5 -14.5t-34 14.5t-14 34.5q0 21 14 35.5t34 14.5zM-170 682q20 0 34.5 -14.5t14.5 -35.5q0 -20 -14.5 -34.5t-34.5 -14.5t-34 14.5t-14 34.5q0 21 14 35.5t34 14.5z" />
    <glyph glyph-name="hookabovecomb" unicode="&#x309;" horiz-adv-x="35" 
d="M-382 672q6 40 31 62t84 22q32 0 53.5 -6.5t34.5 -18.5t18.5 -29t5.5 -38q0 -20 -5 -36t-15.5 -31t-27 -31.5t-39.5 -35.5l-30 22q37 33 48.5 54.5t11.5 44.5q0 27 -12 41t-46 14q-31 0 -48 -13t-22 -43z" />
    <glyph glyph-name="uni030A" unicode="&#x30a;" horiz-adv-x="35" 
d="M-149 534zM-269 784q55 0 87.5 -34.5t32.5 -91.5q0 -56 -32.5 -90t-87.5 -34q-54 0 -86.5 34t-32.5 90q0 57 32.5 91.5t86.5 34.5zM-269 743q-35 0 -55 -23.5t-20 -61.5t20 -61t55 -23t55.5 23t20.5 61t-20.5 61.5t-55.5 23.5z" />
    <glyph glyph-name="uni030B" unicode="&#x30b;" horiz-adv-x="35" 
d="M-70 539zM-70 748l-105 -209l-50 20l85 220zM-240 748l-105 -209l-51 20l85 220z" />
    <glyph glyph-name="uni030C" unicode="&#x30c;" horiz-adv-x="35" 
d="M-104 534zM-378 752l112 -149l112 149l50 -22l-132 -196h-60l-132 196z" />
    <glyph glyph-name="uni0313" unicode="&#x313;" horiz-adv-x="35" 
d="M-217 556zM-217 745q-16 -15 -27 -40.5t-11 -51.5q13 -3 24.5 -13t11.5 -33t-13.5 -37t-35.5 -14q-21 0 -34.5 14.5t-13.5 42.5q0 36 17.5 79t58.5 76z" />
    <glyph glyph-name="uni031B" unicode="&#x31b;" horiz-adv-x="85" 
d="M85 548v-42q0 -84 -26.5 -124.5t-83.5 -40.5q-38 0 -67 14.5t-43 33.5l23 33q14 -14 30.5 -22.5t36.5 -8.5q32 0 45.5 27.5t13.5 89.5v40h71z" />
    <glyph glyph-name="dotbelowcomb" unicode="&#x323;" horiz-adv-x="35" 
d="M-217 -122zM-266 -122q20 0 34.5 -14.5t14.5 -35.5q0 -20 -14.5 -34.5t-34.5 -14.5t-34 14.5t-14 34.5q0 21 14 35.5t34 14.5z" />
    <glyph glyph-name="uni0326" unicode="&#x326;" horiz-adv-x="35" 
d="M-217 -35zM-217 -53l-65 -201l-47 10l44 209z" />
    <glyph glyph-name="uni0328" unicode="&#x328;" horiz-adv-x="35" 
d="M-162 0zM-168 0q-49 -12 -84.5 -28.5t-59 -34.5t-34.5 -37t-11 -36q0 -23 16.5 -39.5t54.5 -16.5q39 0 57.5 13t26.5 36l40 -26q-6 -16 -15 -31t-24.5 -27t-39.5 -19.5t-60 -7.5q-68 0 -97 28.5t-29 70.5q0 48 51 90.5t163 64.5h45z" />
    <glyph glyph-name="uni032D" unicode="&#x32d;" horiz-adv-x="35" 
d="M-104 -58zM-236 -58l132 -176l-50 -20l-112 133l-112 -133l-49 20l132 176h59z" />
    <glyph glyph-name="tonos" unicode="&#x384;" horiz-adv-x="196" 
d="M158 751l-65 -223l-53 9l41 230z" />
    <glyph glyph-name="dieresistonos" unicode="&#x385;" horiz-adv-x="464" 
d="M47 528zM300 751l-65 -223l-53 9l41 230zM368 682q20 0 34.5 -14.5t14.5 -35.5q0 -20 -14.5 -34.5t-34.5 -14.5t-34 14.5t-14 34.5q0 21 14 35.5t34 14.5zM95 682q20 0 34.5 -14.5t14.5 -35.5q0 -20 -14.5 -34.5t-34.5 -14.5t-34 14.5t-14 34.5q0 21 14 35.5t34 14.5z
" />
    <glyph glyph-name="Alphatonos" unicode="&#x386;" horiz-adv-x="648" 
d="M40 0zM407 701l217 -701h-93l-54 182h-257l-53 -182h-77l217 701h100zM240 250h217l-109 366zM158 751l-65 -223l-53 9l41 230z" />
    <glyph glyph-name="anoteleia" unicode="&#x387;" horiz-adv-x="219" 
d="M61 325zM109 424q20 0 34.5 -14.5t14.5 -35.5q0 -20 -14.5 -34.5t-34.5 -14.5t-34 14.5t-14 34.5q0 21 14 35.5t34 14.5z" />
    <glyph glyph-name="Epsilontonos" unicode="&#x388;" horiz-adv-x="643" 
d="M40 0zM592 701l-9 -67h-291v-232h234l-9 -63h-225v-272h307l-9 -67h-391v701h393zM158 751l-65 -223l-53 9l41 230z" />
    <glyph glyph-name="Etatonos" unicode="&#x389;" horiz-adv-x="732" 
d="M40 0zM285 701v-303h285v303h86v-701h-86v332h-285v-332h-87v701h87zM158 751l-65 -223l-53 9l41 230z" />
    <glyph glyph-name="Iotatonos" unicode="&#x38a;" horiz-adv-x="360" 
d="M40 0zM285 701v-701h-87v701h87zM158 751l-65 -223l-53 9l41 230z" />
    <glyph glyph-name="Omicrontonos" unicode="&#x38c;" horiz-adv-x="731" 
d="M40 0zM419 714q66 0 114 -21t79 -65t45.5 -113t14.5 -165q0 -87 -13 -155t-43 -114t-79 -70t-122 -24q-67 0 -115 20.5t-79 64.5t-46 113t-15 166q0 85 12.5 152t42.5 114t80 72t124 25zM419 646q-49 0 -82 -20t-52.5 -57.5t-28 -92t-8.5 -124.5q0 -77 8.5 -132.5
t28.5 -92t52 -54t79 -17.5q49 0 81.5 18.5t51.5 55t26.5 91.5t7.5 127q0 77 -8.5 133t-28 93t-50.5 54.5t-77 17.5zM158 751l-65 -223l-53 9l41 230z" />
    <glyph glyph-name="Upsilontonos" unicode="&#x38e;" horiz-adv-x="669" 
d="M40 0zM266 701l155 -341l157 341h69l-191 -407v-294h-87v294l-191 407h88zM158 751l-65 -223l-53 9l41 230z" />
    <glyph glyph-name="Omegatonos" unicode="&#x38f;" horiz-adv-x="757" 
d="M40 0zM320 67v79q-72 45 -112 113.5t-40 174.5q0 54 12.5 104.5t42.5 89.5t80.5 62.5t125.5 23.5t125.5 -23.5t80.5 -62.5t43 -90t13 -105q0 -105 -41 -174t-112 -113v-79h138l-8 -67h-185v180q57 37 88 103.5t31 146.5q0 41 -9 80t-29.5 69t-53.5 48.5t-81 18.5t-81 -18
t-53.5 -48t-29.5 -69t-9 -80q0 -81 31 -147.5t88 -103.5v-180h-192l7 67h130zM158 751l-65 -223l-53 9l41 230z" />
    <glyph glyph-name="iotadieresistonos" unicode="&#x390;" horiz-adv-x="398" 
d="M2 0zM199 487v-359q0 -33 12.5 -51t41.5 -18q30 0 42.5 18.5t18.5 47.5l39 -33q-4 -18 -11.5 -35.5t-22 -31.5t-35.5 -22.5t-52 -8.5q-60 0 -88 33t-28 93v367h83zM245 751l-65 -223l-53 9l41 230zM305 682q20 0 34.5 -14.5t14.5 -35.5q0 -20 -14.5 -34.5t-34.5 -14.5
t-34 14.5t-14 34.5q0 21 14 35.5t34 14.5zM50 682q20 0 34.5 -14.5t14.5 -35.5q0 -20 -14.5 -34.5t-34.5 -14.5t-34 14.5t-14 34.5q0 21 14 35.5t34 14.5z" />
    <glyph glyph-name="Alpha" unicode="&#x391;" 
d="M25 0zM342 701l217 -701h-93l-54 182h-257l-53 -182h-77l217 701h100zM175 250h217l-109 366z" />
    <glyph glyph-name="Beta" unicode="&#x392;" horiz-adv-x="590" 
d="M76 0zM306 701q100 0 150.5 -38t50.5 -128q0 -67 -25.5 -106t-65.5 -57q57 -15 89.5 -55.5t32.5 -119.5q0 -43 -11 -79t-35.5 -62.5t-64 -41t-95.5 -14.5h-256v701h230zM161 67h153q39 0 65 10.5t42 29t23 43t7 53.5q0 133 -134 133h-156v-269zM161 396h134
q67 0 96.5 30.5t29.5 91.5q0 63 -30 89t-94 26h-136v-237z" />
    <glyph glyph-name="Gamma" unicode="&#x393;" horiz-adv-x="478" 
d="M76 0zM449 701l-7 -67h-279v-634h-87v701h373z" />
    <glyph glyph-name="Delta" unicode="&#x394;" 
d="M342 701l217 -701h-534l217 701h100zM121 68h325l-163 549z" />
    <glyph glyph-name="Epsilon" unicode="&#x395;" horiz-adv-x="520" 
d="M76 0zM469 701l-9 -67h-291v-232h234l-9 -63h-225v-272h307l-9 -67h-391v701h393z" />
    <glyph glyph-name="Zeta" unicode="&#x396;" horiz-adv-x="518" 
d="M46 0zM461 701v-59l-312 -575h321l-11 -67h-413v59l317 575h-305l8 67h395z" />
    <glyph glyph-name="Eta" unicode="&#x397;" horiz-adv-x="610" 
d="M76 0zM163 701v-303h285v303h86v-701h-86v332h-285v-332h-87v701h87z" />
    <glyph glyph-name="Theta" unicode="&#x398;" horiz-adv-x="632" 
d="M320 714q66 0 114 -21t79 -65t45.5 -113t14.5 -165q0 -87 -13 -155t-43 -114t-79 -70t-122 -24q-67 0 -115 20.5t-79 64.5t-46 113t-15 166q0 85 12.5 152t42.5 114t80 72t124 25zM317 56q48 0 80 18t51.5 53.5t27.5 88.5t8 123h-335q1 -146 38.5 -214.5t129.5 -68.5z
M320 646q-89 0 -127 -64t-43 -180h333q-6 126 -43 185t-120 59z" />
    <glyph glyph-name="Iota" unicode="&#x399;" horiz-adv-x="238" 
d="M76 0zM163 701v-701h-87v701h87z" />
    <glyph glyph-name="Kappa" unicode="&#x39a;" horiz-adv-x="593" 
d="M76 0zM538 701l-285 -321l295 -380h-100l-285 360v-360h-87v701h87v-319l280 319h95z" />
    <glyph glyph-name="Lambda" unicode="&#x39b;" 
d="M465 0l-182 619l-182 -619h-77l217 701h100l217 -701h-93z" />
    <glyph glyph-name="Mu" unicode="&#x39c;" horiz-adv-x="736" 
d="M76 0zM182 701l187 -591l194 591h97v-701h-78v547l-172 -547h-87l-174 545v-545h-73v701h106z" />
    <glyph glyph-name="Nu" unicode="&#x39d;" horiz-adv-x="628" 
d="M76 0zM174 701l307 -571v571h71v-701h-95l-312 577v-577h-69v701h98z" />
    <glyph glyph-name="Xi" unicode="&#x39e;" horiz-adv-x="520" 
d="M476 67l-9 -67h-430l9 67h430zM469 701l-9 -67h-416l9 67h416zM403 402l-9 -63h-284l8 63h285z" />
    <glyph glyph-name="Omicron" unicode="&#x39f;" horiz-adv-x="632" 
d="M61 0zM320 714q66 0 114 -21t79 -65t45.5 -113t14.5 -165q0 -87 -13 -155t-43 -114t-79 -70t-122 -24q-67 0 -115 20.5t-79 64.5t-46 113t-15 166q0 85 12.5 152t42.5 114t80 72t124 25zM320 646q-49 0 -82 -20t-52.5 -57.5t-28 -92t-8.5 -124.5q0 -77 8.5 -132.5
t28.5 -92t52 -54t79 -17.5q49 0 81.5 18.5t51.5 55t26.5 91.5t7.5 127q0 77 -8.5 133t-28 93t-50.5 54.5t-77 17.5z" />
    <glyph glyph-name="Pi" unicode="&#x3a0;" horiz-adv-x="610" 
d="M76 0zM534 701v-701h-86v634h-285v-634h-87v701h458z" />
    <glyph glyph-name="Rho" unicode="&#x3a1;" horiz-adv-x="557" 
d="M76 0zM282 701q58 0 101 -11t71 -35t41.5 -63t13.5 -95q0 -115 -56 -167.5t-169 -52.5h-122v-277h-86v701h206zM162 346h125q71 0 103 36t32 111t-32 107t-104 32h-124v-286z" />
    <glyph glyph-name="Sigma" unicode="&#x3a3;" horiz-adv-x="508" 
d="M456 701l-9 -67h-292l197 -266v-36l-199 -265h310l-9 -67h-391v60l215 290l-215 293v58h393z" />
    <glyph glyph-name="Tau" unicode="&#x3a4;" horiz-adv-x="539" 
d="M27 0zM511 701l-8 -67h-191v-634h-86v634h-199l8 67h476z" />
    <glyph glyph-name="Upsilon" unicode="&#x3a5;" horiz-adv-x="514" 
d="M23 0zM111 701l155 -341l157 341h69l-191 -407v-294h-87v294l-191 407h88z" />
    <glyph glyph-name="Phi" unicode="&#x3a6;" horiz-adv-x="720" 
d="M57 0zM401 701v-88q75 -3 125.5 -19.5t80.5 -49t43 -80.5t13 -114q0 -60 -12.5 -106.5t-42.5 -80t-80.5 -52.5t-126.5 -23v-88h-82v88q-77 3 -127.5 19.5t-80.5 48.5t-42 80.5t-12 114.5q0 57 13.5 103t44.5 79.5t81 53.5t123 25v89h82zM575 349q0 51 -8 88t-27.5 61.5
t-53 38t-85.5 16.5v-405q52 4 86 18t53.5 39t27 61t7.5 83zM145 351q0 -50 7 -86.5t26.5 -61.5t53.5 -38.5t87 -16.5v404q-50 -5 -83.5 -20t-53.5 -40t-28.5 -60.5t-8.5 -80.5z" />
    <glyph glyph-name="Chi" unicode="&#x3a7;" horiz-adv-x="600" 
d="M27 0zM552 701l-205 -324l226 -377h-101l-181 304l-186 -304h-78l230 362l-201 339h98l158 -265l162 265h78z" />
    <glyph glyph-name="Psi" unicode="&#x3a8;" horiz-adv-x="756" 
d="M424 701v-424q54 4 90 18.5t58 40t31.5 62t9.5 85.5v218h78v-232q0 -59 -13 -105.5t-43.5 -79.5t-82 -52t-128.5 -23v-209h-87v209q-80 4 -132.5 22.5t-83.5 51.5t-44 80t-13 106v232h87v-229q0 -46 8.5 -81t30 -59t57.5 -38t90 -17v424h87z" />
    <glyph glyph-name="Omega" unicode="&#x3a9;" horiz-adv-x="650" 
d="M213 67v79q-72 45 -112 113.5t-40 174.5q0 54 12.5 104.5t42.5 89.5t80.5 62.5t125.5 23.5t125.5 -23.5t80.5 -62.5t43 -90t13 -105q0 -105 -41 -174t-112 -113v-79h138l-8 -67h-185v180q57 37 88 103.5t31 146.5q0 41 -9 80t-29.5 69t-53.5 48.5t-81 18.5t-81 -18
t-53.5 -48t-29.5 -69t-9 -80q0 -81 31 -147.5t88 -103.5v-180h-192l7 67h130z" />
    <glyph glyph-name="Iotadieresis" unicode="&#x3aa;" horiz-adv-x="276" 
d="M0 0zM182 701v-701h-87v701h87zM42 893q20 0 34.5 -13.5t14.5 -32.5t-14.5 -32.5t-34.5 -13.5t-34.5 13.5t-14.5 32.5t14.5 32.5t34.5 13.5zM233 893q20 0 34.5 -13.5t14.5 -32.5t-14.5 -32.5t-34.5 -13.5t-34.5 13.5t-14.5 32.5t14.5 32.5t34.5 13.5z" />
    <glyph glyph-name="Upsilondieresis" unicode="&#x3ab;" horiz-adv-x="514" 
d="M23 0zM111 701l155 -341l157 341h69l-191 -407v-294h-87v294l-191 407h88zM166 893q20 0 34.5 -13.5t14.5 -32.5t-14.5 -32.5t-34.5 -13.5t-34.5 13.5t-14.5 32.5t14.5 32.5t34.5 13.5zM357 893q20 0 34.5 -13.5t14.5 -32.5t-14.5 -32.5t-34.5 -13.5t-34.5 13.5
t-14.5 32.5t14.5 32.5t34.5 13.5z" />
    <glyph glyph-name="alphatonos" unicode="&#x3ac;" horiz-adv-x="615" 
d="M54 0zM516 487q-2 -72 -10.5 -131.5t-18.5 -107.5q-8 -35 -17 -66t-21 -57q14 -42 24.5 -53.5t27.5 -11.5q23 0 34 17.5t19 63.5l37 -31q-10 -60 -32.5 -87.5t-62.5 -27.5q-29 0 -47 15t-34 55q-29 -38 -69.5 -58t-98.5 -20q-59 0 -96.5 20t-59 54.5t-29.5 81.5t-8 100
q0 54 8 100.5t28 81t54 54.5t86 20q43 0 70.5 -14.5t47 -44.5t34.5 -76t32 -110l5 -21l2 10t3 11q9 41 16.5 102t9.5 131h66zM251 51q37 0 73 20t64 76q-5 20 -11.5 43.5t-13.5 51.5q-14 53 -26 90t-25.5 60t-30.5 33t-42 10q-31 0 -51.5 -14t-32.5 -39.5t-17 -61t-5 -77.5
t5 -77t18 -60.5t36 -40t59 -14.5zM340 751l-65 -223l-53 9l41 230z" />
    <glyph glyph-name="epsilontonos" unicode="&#x3ad;" horiz-adv-x="530" 
d="M69 0zM361 751l-65 -223l-53 9l41 230zM426 416q-20 11 -54 18t-79 7q-65 0 -93.5 -19t-28.5 -59q0 -43 30 -60.5t84 -17.5h123l-5 -57h-120q-60 0 -95.5 -17.5t-35.5 -66.5q0 -45 31 -70.5t95 -25.5t103.5 24t57.5 56l43 -44q-9 -16 -24 -32.5t-39.5 -30.5t-60 -23
t-84.5 -9q-54 0 -92.5 11t-63.5 31t-37 47.5t-12 59.5q0 53 27.5 81t74.5 40q-75 27 -75 110q0 30 10 54t32.5 41t58 26t85.5 9q48 0 89.5 -7t63.5 -16z" />
    <glyph glyph-name="etatonos" unicode="&#x3ae;" horiz-adv-x="536" 
d="M24 0zM75 487q48 0 69 -27t23 -71q42 54 86.5 80t102.5 26q73 0 103 -39.5t30 -116.5v-553h-82v546q0 48 -17.5 71t-62.5 23q-42 0 -79.5 -24t-80.5 -87v-315h-83v361q0 36 -9 50t-36 14h-15l7 62h44zM361 751l-65 -223l-53 9l41 230z" />
    <glyph glyph-name="iotatonos" unicode="&#x3af;" horiz-adv-x="332" 
d="M69 0zM152 487v-359q0 -33 12.5 -51t41.5 -18q30 0 42.5 18.5t18.5 47.5l39 -33q-4 -18 -11.5 -35.5t-22 -31.5t-35.5 -22.5t-52 -8.5q-60 0 -88 33t-28 93v367h83zM204 751l-65 -223l-53 9l41 230z" />
    <glyph glyph-name="upsilondieresistonos" unicode="&#x3b0;" horiz-adv-x="546" 
d="M40 0zM339 751l-65 -223l-53 9l41 230zM91 487q51 0 71.5 -31t20.5 -79v-129q0 -100 26.5 -148t90.5 -48t90.5 53t26.5 173q0 152 -36 209h76q16 -24 27 -72.5t11 -133.5q0 -72 -10 -126.5t-33 -91.5t-60.5 -55.5t-92.5 -18.5q-54 0 -92 18t-61.5 51.5t-34.5 81.5
t-11 108v113q0 36 -9 50t-36 14h-15l6 62h45zM410 682q20 0 34.5 -14.5t14.5 -35.5q0 -20 -14.5 -34.5t-34.5 -14.5t-34 14.5t-14 34.5q0 21 14 35.5t34 14.5zM132 682q20 0 34.5 -14.5t14.5 -35.5q0 -20 -14.5 -34.5t-34.5 -14.5t-34 14.5t-14 34.5q0 21 14 35.5t34 14.5z
" />
    <glyph glyph-name="alpha" unicode="&#x3b1;" horiz-adv-x="615" 
d="M516 487q-2 -72 -10.5 -131.5t-18.5 -107.5q-8 -35 -17 -66t-21 -57q14 -42 24.5 -53.5t27.5 -11.5q23 0 34 17.5t19 63.5l37 -31q-10 -60 -32.5 -87.5t-62.5 -27.5q-29 0 -47 15t-34 55q-29 -38 -69.5 -58t-98.5 -20q-59 0 -96.5 20t-59 54.5t-29.5 81.5t-8 100
q0 54 8 100.5t28 81t54 54.5t86 20q43 0 70.5 -14.5t47 -44.5t34.5 -76t32 -110l5 -21l2 10t3 11q9 41 16.5 102t9.5 131h66zM251 51q37 0 73 20t64 76q-5 20 -11.5 43.5t-13.5 51.5q-14 53 -26 90t-25.5 60t-30.5 33t-42 10q-31 0 -51.5 -14t-32.5 -39.5t-17 -61t-5 -77.5
t5 -77t18 -60.5t36 -40t59 -14.5z" />
    <glyph glyph-name="beta" unicode="&#x3b2;" horiz-adv-x="562" 
d="M314 -9q-54 0 -93.5 18t-68.5 47v-270h-83v770q0 52 14.5 89t40.5 60t62.5 34t80.5 11q97 0 150 -48t53 -146q0 -63 -21 -103t-54 -61q23 -7 43.5 -19.5t36 -34t24.5 -53t9 -75.5q0 -58 -15 -99.5t-41 -68t-61.5 -39t-76.5 -12.5zM152 142q27 -38 64 -63.5t88 -25.5
q25 0 47 7.5t38.5 26t26 48.5t9.5 75q0 48 -10.5 76.5t-30 43t-46 19t-57.5 4.5h-46v57h29q58 0 91.5 31t33.5 108q0 76 -32 107.5t-90 31.5q-59 0 -87 -31t-28 -97v-418z" />
    <glyph glyph-name="gamma" unicode="&#x3b3;" horiz-adv-x="482" 
d="M467 487q-6 -66 -23.5 -132t-43 -129t-56 -120.5t-60.5 -105.5q3 -53 4.5 -106.5t2.5 -107.5h-83q1 22 1 43v42q0 106 -6 199t-20 171q-9 57 -19.5 92.5t-26 56t-36.5 28t-50 7.5h-26l7 62h31q40 0 70.5 -9t53 -34t38.5 -70t29 -117t21 -155q44 82 77.5 180.5t43.5 204.5
h71z" />
    <glyph glyph-name="delta" unicode="&#x3b4;" horiz-adv-x="500" 
d="M54 248q0 91 24 143.5t76 84.5q-29 20 -49.5 49.5t-20.5 78.5q0 75 49 110.5t130 35.5q85 0 126.5 -39.5t47.5 -121.5l-62 -11q-6 66 -36 90.5t-76 24.5t-76.5 -21.5t-30.5 -69.5q0 -32 14.5 -50t45.5 -35q41 -22 81 -39t73 -41q18 -13 32 -28.5t23.5 -37t15 -51.5
t5.5 -72q0 -58 -10 -105.5t-33.5 -81.5t-61 -53t-91.5 -19t-91.5 18.5t-60.5 52.5t-33.5 82t-10.5 106zM299 401q-23 15 -47.5 26t-47.5 22q-33 -26 -52 -73.5t-19 -130.5q0 -94 27 -143.5t90 -49.5q32 0 54 13.5t36 39t20 61.5t6 80q0 34 -4 58t-12 41.5t-20.5 30.5
t-30.5 25z" />
    <glyph glyph-name="epsilon" unicode="&#x3b5;" horiz-adv-x="530" 
d="M426 416q-20 11 -54 18t-79 7q-65 0 -93.5 -19t-28.5 -59q0 -43 30 -60.5t84 -17.5h123l-5 -57h-120q-60 0 -95.5 -17.5t-35.5 -66.5q0 -45 31 -70.5t95 -25.5t103.5 24t57.5 56l43 -44q-9 -16 -24 -32.5t-39.5 -30.5t-60 -23t-84.5 -9q-54 0 -92.5 11t-63.5 31t-37 47.5
t-12 59.5q0 53 27.5 81t74.5 40q-75 27 -75 110q0 30 10 54t32.5 41t58 26t85.5 9q48 0 89.5 -7t63.5 -16z" />
    <glyph glyph-name="zeta" unicode="&#x3b6;" horiz-adv-x="465" 
d="M412 740v-53q-54 -47 -104 -103t-89 -117t-62.5 -125.5t-23.5 -130.5q0 -45 12 -74.5t38 -43.5q15 -8 37.5 -13t46.5 -9.5t47 -10t41 -14.5q31 -14 49.5 -44.5t18.5 -87.5q0 -32 -7.5 -61t-26 -50.5t-49.5 -34t-77 -12.5q-21 0 -42.5 3t-39.5 11l16 59q12 -6 27 -8.5
t30 -2.5q55 0 77 27.5t22 67.5q0 29 -10 46t-30 28q-17 9 -39.5 14.5t-46.5 10t-47 10t-41 14.5q-37 18 -61 61t-24 113q0 64 23.5 130t61 127.5t85 115.5t95.5 95h-243l8 62h328z" />
    <glyph glyph-name="eta" unicode="&#x3b7;" horiz-adv-x="554" 
d="M75 487q48 0 69 -27t23 -71q42 54 86.5 80t102.5 26q73 0 103 -39.5t30 -116.5v-553h-82v546q0 48 -17.5 71t-62.5 23q-42 0 -79.5 -24t-80.5 -87v-315h-83v361q0 36 -9 50t-36 14h-15l7 62h44z" />
    <glyph glyph-name="theta" unicode="&#x3b8;" horiz-adv-x="508" 
d="M255 745q59 0 97 -19.5t60 -63.5t30.5 -117t8.5 -179q0 -107 -8.5 -179.5t-30.5 -116.5t-60 -63t-97 -19t-97.5 19t-60.5 63t-30.5 116.5t-8.5 179.5q0 106 8.5 179t30.5 117t60.5 63.5t97.5 19.5zM254 54q35 0 58 13.5t36.5 46t19 87t6.5 137.5h-239q1 -83 6.5 -137.5
t19 -87t36 -46t57.5 -13.5zM254 678q-35 0 -57.5 -13.5t-36 -45.5t-19 -85.5t-6.5 -133.5h239q-1 80 -7 133.5t-19.5 85.5t-36.5 45.5t-57 13.5z" />
    <glyph glyph-name="iota" unicode="&#x3b9;" horiz-adv-x="332" 
d="M152 487v-359q0 -33 12.5 -51t41.5 -18q30 0 42.5 18.5t18.5 47.5l39 -33q-4 -18 -11.5 -35.5t-22 -31.5t-35.5 -22.5t-52 -8.5q-60 0 -88 33t-28 93v367h83z" />
    <glyph glyph-name="kappa" unicode="&#x3ba;" horiz-adv-x="531" 
d="M69 0zM152 487v-221l220 221h96l-225 -224l232 -263h-98l-225 251v-251h-83v487h83z" />
    <glyph glyph-name="lambda" unicode="&#x3bb;" horiz-adv-x="542" 
d="M152 740q36 0 56 -12t32 -47l191 -586q8 -20 18.5 -27t30.5 -7h33l-7 -61h-51q-41 0 -59 11t-29 43l-111 338l-158 -392h-71l200 480l-54 165q-8 21 -19 27.5t-29 6.5h-43l6 61h64z" />
    <glyph glyph-name="mu" unicode="&#x3bc;" horiz-adv-x="652" 
d="M472 487v-359q0 -33 12.5 -51t41.5 -18q30 0 42.5 18.5t18.5 47.5l39 -33q-4 -18 -11.5 -35.5t-22 -31.5t-35.5 -22.5t-52 -8.5q-54 0 -82 27t-33 76q-42 -54 -86.5 -79.5t-102.5 -25.5q-36 0 -60 9q5 -41 8 -82t3 -84v-49h-83v701h82v-332q0 -48 17 -71t62 -23
q42 0 78.5 23.5t80.5 85.5v317h83z" />
    <glyph glyph-name="nu" unicode="&#x3bd;" horiz-adv-x="515" 
d="M89 487q35 0 53.5 -17t27.5 -49l96 -359q53 94 94 199t52 226h71q-6 -70 -22.5 -135t-40.5 -126t-54.5 -117.5t-63.5 -108.5h-97l-111 396q-7 29 -38 29h-31l6 62h58z" />
    <glyph glyph-name="xi" unicode="&#x3be;" horiz-adv-x="467" 
d="M412 740v-55q-77 -33 -128.5 -65t-82.5 -62.5t-44 -60t-13 -57.5q0 -47 30 -65t80 -18h127l-6 -57h-122q-60 0 -95.5 -27t-35.5 -81q0 -41 18 -64.5t46 -35.5q19 -9 41 -14t45 -9.5t45 -9.5t40 -14q32 -14 49 -44t17 -84q0 -33 -7.5 -62.5t-25.5 -51.5t-49 -34.5
t-78 -12.5q-21 0 -42.5 3t-39.5 11l16 59q12 -6 27 -8.5t30 -2.5q55 0 77 27.5t22 67.5q0 29 -10 46t-30 28q-16 9 -39.5 15t-49 11.5t-51.5 12t-48 16.5q-38 17 -62 50.5t-24 89.5q0 61 29.5 96t79.5 50q-80 27 -80 108q0 70 57.5 132t175.5 110h-225l8 62h328z" />
    <glyph glyph-name="omicron" unicode="&#x3bf;" horiz-adv-x="500" 
d="M54 0zM249 499q58 0 96.5 -19t60.5 -52t31 -79t9 -100q0 -60 -10 -108t-33.5 -82t-61 -52t-92.5 -18t-92 18t-60 52t-33 82t-10 108q0 54 8.5 100t30.5 79t60 52t96 19zM249 435q-35 0 -57 -13t-35.5 -37.5t-18.5 -59t-5 -77.5q0 -100 26 -148t90 -48q66 0 91.5 48
t25.5 148q0 43 -5 77.5t-18.5 59t-36 37.5t-57.5 13z" />
    <glyph glyph-name="pi" unicode="&#x3c0;" horiz-adv-x="676" 
d="M627 487l-6 -61q-29 1 -57 1.5t-57 0.5h-10v-300q0 -33 12.5 -51t41.5 -18q30 0 42.5 18.5t18.5 47.5l39 -33q-4 -18 -11.5 -35.5t-22 -31.5t-35.5 -22.5t-52 -8.5q-60 0 -88 33t-28 93v308h-195v-428h-82v428h-112l3 59h599z" />
    <glyph glyph-name="rho" unicode="&#x3c1;" horiz-adv-x="537" 
d="M285 499q48 0 84.5 -11t62 -39.5t38.5 -77t13 -123.5t-12.5 -125t-35.5 -80t-55 -42.5t-71 -12.5q-58 0 -96.5 22.5t-64.5 62.5v-287h-83v453q0 76 16 126.5t45 80t69.5 41.5t89.5 12zM148 171q24 -60 57 -89.5t83 -29.5q27 0 48.5 10t36.5 33t23 60t8 92t-8 91.5t-24 58
t-38.5 30t-52.5 8.5t-55 -9t-42 -31t-26.5 -59t-9.5 -94v-71z" />
    <glyph glyph-name="sigma1" unicode="&#x3c2;" horiz-adv-x="486" 
d="M373 325q-7 59 -34.5 84.5t-77.5 25.5q-69 0 -98.5 -45.5t-29.5 -139.5q0 -71 14.5 -105t40.5 -49q16 -9 37.5 -14.5t45 -10.5t45.5 -10.5t39 -14.5q31 -14 49.5 -44.5t18.5 -87.5q0 -32 -7.5 -61t-26 -50.5t-49.5 -34t-77 -12.5q-21 0 -42.5 3t-39.5 11l16 59
q12 -6 27 -8.5t30 -2.5q55 0 77 27.5t22 67.5q0 29 -10 46t-30 28q-17 9 -38 14.5t-44 10.5t-45.5 11t-41.5 17q-18 10 -34.5 26t-28.5 41t-19.5 60.5t-7.5 84.5q0 57 11 102.5t35.5 78t63 49.5t93.5 17q90 0 131.5 -43.5t44.5 -119.5z" />
    <glyph glyph-name="sigma" unicode="&#x3c3;" horiz-adv-x="543" 
d="M518 487l-6 -62h-134q29 -28 46 -73t17 -120q0 -54 -10 -98.5t-32.5 -76.5t-60 -50t-91.5 -18t-91 18t-59.5 52t-32.5 82t-10 107q0 54 9 98.5t31 75.5t60 48t96 17h268zM364 236q0 69 -14 114t-43 75h-57q-35 0 -57.5 -11.5t-36 -34t-18.5 -55.5t-5 -76q0 -100 26 -148
t90 -48t89.5 47t25.5 137z" />
    <glyph glyph-name="tau" unicode="&#x3c4;" horiz-adv-x="468" 
d="M443 487l-6 -62h-171v-297q0 -33 12.5 -51t41.5 -18q30 0 42.5 18.5t18.5 47.5l39 -33q-3 -18 -11 -35.5t-22 -31.5t-35.5 -22.5t-52.5 -8.5q-59 0 -87.5 33t-28.5 93v305h-158l7 62h411z" />
    <glyph glyph-name="upsilon" unicode="&#x3c5;" horiz-adv-x="552" 
d="M76 487q51 0 71.5 -31t20.5 -79v-129q0 -100 26.5 -148t90.5 -48t90.5 53t26.5 173q0 152 -36 209h76q16 -24 27 -72.5t11 -133.5q0 -72 -10 -126.5t-33 -91.5t-60.5 -55.5t-92.5 -18.5q-54 0 -92 18t-61.5 51.5t-34.5 81.5t-11 108v113q0 36 -9 50t-36 14h-15l6 62h45z
" />
    <glyph glyph-name="phi" unicode="&#x3c6;" horiz-adv-x="708" 
d="M54 0zM394 740v-242q82 -3 133 -17.5t79.5 -43.5t38.5 -74t10 -108q0 -68 -10.5 -116.5t-39 -80.5t-79.5 -48.5t-132 -19.5v-205h-83v205q-81 3 -131.5 19.5t-78 48.5t-37.5 80.5t-10 116.5q0 63 10 107.5t37.5 74t78 44t131.5 17.5v234zM575 254q0 49 -6.5 82t-25.5 54
t-55 31.5t-94 12.5v-381q58 3 93.5 14.5t55 35.5t26 61t6.5 90zM134 254q0 -53 6.5 -90t25 -61t53.5 -35.5t92 -14.5v381q-57 -2 -92 -12.5t-53.5 -31.5t-25 -54.5t-6.5 -81.5z" />
    <glyph glyph-name="chi" unicode="&#x3c7;" horiz-adv-x="513" 
d="M487 487l-182 -336l118 -270q9 -20 20.5 -27t29.5 -7h37l-6 -61h-64q-37 0 -56.5 12.5t-33.5 46.5l-99 229l-153 -288h-73l197 355l-108 251q-8 20 -19.5 26.5t-31.5 6.5h-38l7 62h60q41 0 58.5 -11.5t31.5 -43.5l93 -213l139 268h73z" />
    <glyph glyph-name="psi" unicode="&#x3c8;" horiz-adv-x="736" 
d="M76 487q51 0 71.5 -31t20.5 -79v-129q0 -46 6.5 -80.5t24 -58t48 -37t79.5 -17.5v677l83 8v-685q50 4 84 19t54.5 42t29 67t8.5 93q0 154 -36 211h77q16 -24 27 -72.5t11 -133.5q0 -67 -13 -118.5t-42.5 -88t-78.5 -57.5t-121 -25v-206h-83v206q-71 4 -117.5 23.5t-74 52
t-38.5 78t-11 102.5v113q0 36 -9 50t-36 14h-15l6 62h45z" />
    <glyph glyph-name="omega" unicode="&#x3c9;" horiz-adv-x="739" 
d="M158 487q-17 -29 -26.5 -80t-9.5 -131q0 -117 23.5 -170.5t74.5 -53.5q22 0 41 11.5t32.5 38t21 69.5t7.5 106v93h71v-93q0 -63 7.5 -106t21 -69.5t32.5 -38t41 -11.5q51 0 74.5 53.5t23.5 170.5q0 80 -9.5 131t-26.5 80h75q16 -24 27 -73t11 -133q0 -140 -39 -216
t-130 -76q-59 0 -92.5 29t-50.5 80q-17 -51 -51 -80t-92 -29q-92 0 -132 76.5t-40 216.5q0 84 11 132.5t27 72.5h77z" />
    <glyph glyph-name="iotadieresis" unicode="&#x3ca;" horiz-adv-x="356" 
d="M0 0zM177 487v-359q0 -33 12.5 -51t41.5 -18q30 0 42.5 18.5t18.5 47.5l39 -33q-4 -18 -11.5 -35.5t-22 -31.5t-35.5 -22.5t-52 -8.5q-60 0 -88 33t-28 93v367h83zM48 682q20 0 34.5 -14.5t14.5 -35.5q0 -20 -14.5 -34.5t-34.5 -14.5t-34 14.5t-14 34.5q0 21 14 35.5
t34 14.5zM239 682q20 0 34.5 -14.5t14.5 -35.5q0 -20 -14.5 -34.5t-34.5 -14.5t-34 14.5t-14 34.5q0 21 14 35.5t34 14.5z" />
    <glyph glyph-name="upsilondieresis" unicode="&#x3cb;" horiz-adv-x="538" 
d="M25 0zM76 487q51 0 71.5 -31t20.5 -79v-129q0 -100 26.5 -148t90.5 -48t90.5 53t26.5 173q0 152 -36 209h76q16 -24 27 -72.5t11 -133.5q0 -72 -10 -126.5t-33 -91.5t-60.5 -55.5t-92.5 -18.5q-54 0 -92 18t-61.5 51.5t-34.5 81.5t-11 108v113q0 36 -9 50t-36 14h-15
l6 62h45zM165 682q20 0 34.5 -14.5t14.5 -35.5q0 -20 -14.5 -34.5t-34.5 -14.5t-34 14.5t-14 34.5q0 21 14 35.5t34 14.5zM356 682q20 0 34.5 -14.5t14.5 -35.5q0 -20 -14.5 -34.5t-34.5 -14.5t-34 14.5t-14 34.5q0 21 14 35.5t34 14.5z" />
    <glyph glyph-name="omicrontonos" unicode="&#x3cc;" horiz-adv-x="500" 
d="M54 0zM249 499q58 0 96.5 -19t60.5 -52t31 -79t9 -100q0 -60 -10 -108t-33.5 -82t-61 -52t-92.5 -18t-92 18t-60 52t-33 82t-10 108q0 54 8.5 100t30.5 79t60 52t96 19zM249 435q-35 0 -57 -13t-35.5 -37.5t-18.5 -59t-5 -77.5q0 -100 26 -148t90 -48q66 0 91.5 48
t25.5 148q0 43 -5 77.5t-18.5 59t-36 37.5t-57.5 13zM325 751l-65 -223l-53 9l41 230z" />
    <glyph glyph-name="upsilontonos" unicode="&#x3cd;" horiz-adv-x="538" 
d="M25 0zM355 751l-65 -223l-53 9l41 230zM76 487q51 0 71.5 -31t20.5 -79v-129q0 -100 26.5 -148t90.5 -48t90.5 53t26.5 173q0 152 -36 209h76q16 -24 27 -72.5t11 -133.5q0 -72 -10 -126.5t-33 -91.5t-60.5 -55.5t-92.5 -18.5q-54 0 -92 18t-61.5 51.5t-34.5 81.5
t-11 108v113q0 36 -9 50t-36 14h-15l6 62h45z" />
    <glyph glyph-name="omegatonos" unicode="&#x3ce;" horiz-adv-x="739" 
d="M43 0zM158 487q-17 -29 -26.5 -80t-9.5 -131q0 -117 23.5 -170.5t74.5 -53.5q22 0 41 11.5t32.5 38t21 69.5t7.5 106v93h71v-93q0 -63 7.5 -106t21 -69.5t32.5 -38t41 -11.5q51 0 74.5 53.5t23.5 170.5q0 80 -9.5 131t-26.5 80h75q16 -24 27 -73t11 -133q0 -140 -39 -216
t-130 -76q-59 0 -92.5 29t-50.5 80q-17 -51 -51 -80t-92 -29q-92 0 -132 76.5t-40 216.5q0 84 11 132.5t27 72.5h77zM436 751l-65 -223l-53 9l41 230z" />
    <glyph glyph-name="uni0400" unicode="&#x400;" horiz-adv-x="520" 
d="M76 0zM469 701l-9 -67h-291v-232h234l-9 -63h-225v-272h307l-9 -67h-391v701h393zM240 945l87 -203l-50 -19l-108 193z" />
    <glyph glyph-name="uni0401" unicode="&#x401;" horiz-adv-x="520" 
d="M76 0zM469 701l-9 -67h-291v-232h234l-9 -63h-225v-272h307l-9 -67h-391v701h393zM176 893q20 0 34.5 -13.5t14.5 -32.5t-14.5 -32.5t-34.5 -13.5t-34.5 13.5t-14.5 32.5t14.5 32.5t34.5 13.5zM367 893q20 0 34.5 -13.5t14.5 -32.5t-14.5 -32.5t-34.5 -13.5t-34.5 13.5
t-14.5 32.5t14.5 32.5t34.5 13.5z" />
    <glyph glyph-name="uni0402" unicode="&#x402;" horiz-adv-x="693" 
d="M628 137q0 -90 -10.5 -157.5t-35 -112.5t-64 -67.5t-97.5 -22.5q-49 0 -83 14.5t-56.5 37.5t-34.5 51.5t-17 55.5l62 10q9 -54 44 -80t84 -26q31 0 54 12.5t38 45t22 88.5t7 144q0 82 -6.5 133t-22 80t-41 39.5t-62.5 10.5q-47 0 -83.5 -12t-63.5 -32v-349h-87v634h-148
l8 67h513l-7 -67h-279v-216q27 19 67 31t98 12q51 0 89 -13t62.5 -49t37 -99t12.5 -163z" />
    <glyph glyph-name="uni0403" unicode="&#x403;" horiz-adv-x="478" 
d="M76 0zM449 701l-7 -67h-279v-634h-87v701h373zM376 916l-108 -193l-50 19l87 203z" />
    <glyph glyph-name="uni0404" unicode="&#x404;" horiz-adv-x="615" 
d="M484 475q-7 50 -20.5 83t-32.5 53t-43.5 28t-53.5 8q-86 0 -132.5 -64.5t-51.5 -199.5h256l-9 -64h-247q2 -71 15.5 -120.5t36 -81.5t54.5 -46.5t72 -14.5q131 0 160 160l63 -17q-9 -46 -24.5 -85t-42 -67t-65 -43.5t-94.5 -15.5q-126 0 -195 87t-69 273q0 185 68.5 276
t199.5 91q45 0 81.5 -11.5t64 -38t46 -70.5t27.5 -109z" />
    <glyph glyph-name="uni0405" unicode="&#x405;" horiz-adv-x="543" 
d="M48 0zM110 263q4 -56 17 -95.5t34 -64.5t50 -36t67 -11q68 0 101.5 32.5t33.5 88.5q0 33 -14.5 59.5t-53.5 48.5q-21 12 -46 21.5t-50.5 18.5t-50.5 19.5t-46 24.5q-36 23 -59 61t-23 101q0 34 9 67t31 59t59 41.5t94 15.5q55 0 94.5 -16t65.5 -46.5t39.5 -74.5
t16.5 -100l-60 -9q-6 93 -41.5 135.5t-107.5 42.5q-36 0 -60 -9.5t-38.5 -25t-20.5 -36t-6 -42.5q0 -38 15 -61t44 -39q19 -11 43 -19t50 -16.5t53 -19.5t53 -27q43 -27 66 -64t23 -99q0 -98 -55.5 -149t-158.5 -51q-50 0 -90 13.5t-69.5 44.5t-47 82t-23.5 125z" />
    <glyph glyph-name="uni0406" unicode="&#x406;" horiz-adv-x="238" 
d="M76 0zM163 701v-701h-87v701h87z" />
    <glyph glyph-name="uni0407" unicode="&#x407;" horiz-adv-x="276" 
d="M0 0zM182 701v-701h-87v701h87zM42 893q20 0 34.5 -13.5t14.5 -32.5t-14.5 -32.5t-34.5 -13.5t-34.5 13.5t-14.5 32.5t14.5 32.5t34.5 13.5zM233 893q20 0 34.5 -13.5t14.5 -32.5t-14.5 -32.5t-34.5 -13.5t-34.5 13.5t-14.5 32.5t14.5 32.5t34.5 13.5z" />
    <glyph glyph-name="uni0408" unicode="&#x408;" horiz-adv-x="480" 
d="M32 0zM410 701v-493q0 -50 -11 -91t-34.5 -69.5t-59.5 -44t-86 -15.5q-78 0 -128 39t-59 115l58 20q9 -49 37 -78.5t82 -29.5q62 0 88.5 39.5t26.5 109.5v498h86z" />
    <glyph glyph-name="uni0409" unicode="&#x409;" horiz-adv-x="927" 
d="M532 701v-277h122q113 0 169 -52.5t56 -167.5q0 -56 -13.5 -95t-41.5 -63t-71 -35t-101 -11h-206v634h-151q-8 -163 -21.5 -280t-37.5 -199q-16 -54 -33 -84.5t-37 -46.5t-43 -20t-51 -4h-37l-3 67h28q20 0 36 5t29 18t23.5 36t20.5 59q20 72 33 197t24 319h306zM532 69
h124q72 0 104 32t32 107t-32 111t-103 36h-125v-286z" />
    <glyph glyph-name="uni040A" unicode="&#x40a;" horiz-adv-x="929" 
d="M163 701v-277h285v277h86v-277h122q113 0 169 -52.5t56 -167.5q0 -56 -13.5 -95t-41.5 -63t-71 -35t-101 -11h-206v355h-285v-355h-87v701h87zM534 69h124q72 0 104 32t32 107t-32 111t-103 36h-125v-286z" />
    <glyph glyph-name="uni040B" unicode="&#x40b;" horiz-adv-x="693" 
d="M541 0v231q0 85 -30.5 123.5t-103.5 38.5q-46 0 -82 -12t-63 -32v-349h-87v634h-148l8 67h513l-7 -67h-279v-216q27 18 65.5 30.5t91.5 12.5q109 0 159 -56t50 -163v-242h-87z" />
    <glyph glyph-name="uni040C" unicode="&#x40c;" horiz-adv-x="576" 
d="M76 0zM538 701l-285 -321l295 -380h-100l-285 360v-360h-87v701h87v-319l280 319h95zM393 916l-108 -193l-50 19l87 203z" />
    <glyph glyph-name="uni040D" unicode="&#x40d;" horiz-adv-x="610" 
d="M76 0zM163 701v-565l294 565h95v-701h-95v567l-294 -567h-87v701h87zM269 945l87 -203l-50 -19l-108 193z" />
    <glyph glyph-name="uni040E" unicode="&#x40e;" horiz-adv-x="598" 
d="M25 0zM117 701l191 -425l190 425h77l-257 -565q-20 -43 -37 -69.5t-36 -41.5t-42 -20t-53 -5h-34l-4 67h31q23 0 39 4.5t29 17t25.5 35t28.5 58.5l-240 519h92zM154 912q29 -43 66.5 -61.5t79.5 -18.5t79.5 18.5t66.5 61.5l36 -29q-31 -61 -79.5 -86.5t-102.5 -25.5
t-102.5 25.5t-79.5 86.5z" />
    <glyph glyph-name="uni040F" unicode="&#x40f;" horiz-adv-x="610" 
d="M163 701v-634h285v634h86v-701h-193v-214h-72v214h-193v701h87z" />
    <glyph glyph-name="uni0410" unicode="&#x410;" 
d="M25 0zM342 701l217 -701h-93l-54 182h-257l-53 -182h-77l217 701h100zM175 250h217l-109 366z" />
    <glyph glyph-name="uni0411" unicode="&#x411;" horiz-adv-x="557" 
d="M449 701l-7 -67h-279v-210h121q113 0 169 -52.5t56 -167.5q0 -56 -13.5 -95t-41.5 -63t-71 -35t-101 -11h-206v701h373zM163 355v-286h123q72 0 104 32t32 107t-32 111t-103 36h-124z" />
    <glyph glyph-name="uni0412" unicode="&#x412;" horiz-adv-x="590" 
d="M76 0zM306 701q100 0 150.5 -38t50.5 -128q0 -67 -25.5 -106t-65.5 -57q57 -15 89.5 -55.5t32.5 -119.5q0 -43 -11 -79t-35.5 -62.5t-64 -41t-95.5 -14.5h-256v701h230zM161 67h153q39 0 65 10.5t42 29t23 43t7 53.5q0 133 -134 133h-156v-269zM161 396h134
q67 0 96.5 30.5t29.5 91.5q0 63 -30 89t-94 26h-136v-237z" />
    <glyph glyph-name="uni0413" unicode="&#x413;" horiz-adv-x="478" 
d="M449 701l-7 -67h-279v-634h-87v701h373z" />
    <glyph glyph-name="uni0414" unicode="&#x414;" horiz-adv-x="724" 
d="M576 701v-634h117v-281h-72v214h-517v-214h-72v281h72q20 0 36 5t29 18t23.5 36t20.5 59q20 72 33 197t24 319h306zM490 67v567h-151q-8 -163 -21.5 -280t-37.5 -199q-8 -29 -17 -50.5t-18 -37.5h245z" />
    <glyph glyph-name="uni0415" unicode="&#x415;" horiz-adv-x="520" 
d="M76 0zM469 701l-9 -67h-291v-232h234l-9 -63h-225v-272h307l-9 -67h-391v701h393z" />
    <glyph glyph-name="uni0416" unicode="&#x416;" horiz-adv-x="914" 
d="M876 701l-285 -321l295 -380h-100l-285 360v-360h-87v362l-286 -362h-100l295 379l-285 322h95l281 -320v320h87v-319l280 319h95z" />
    <glyph glyph-name="uni0417" unicode="&#x417;" horiz-adv-x="556" 
d="M81 506q3 45 14 83t34.5 66t61.5 43.5t94 15.5q51 0 87 -13t59 -37t33.5 -57.5t10.5 -73.5q0 -61 -22.5 -100.5t-65.5 -59.5q52 -16 84.5 -56t32.5 -117q0 -46 -12.5 -85t-39 -67.5t-67 -44.5t-96.5 -16q-62 0 -102 19t-64.5 49.5t-36.5 68t-17 74.5l64 20
q6 -34 15.5 -63.5t27 -51.5t43.5 -34.5t64 -12.5q68 0 101 41t33 112q0 39 -10 64t-29.5 40t-48 20.5t-65.5 5.5h-83l10 60h75q63 0 93.5 27.5t30.5 97.5q0 27 -5.5 49.5t-18.5 38.5t-34.5 25t-53.5 9q-33 0 -56.5 -10t-38.5 -29t-23.5 -45.5t-12.5 -60.5z" />
    <glyph glyph-name="uni0418" unicode="&#x418;" horiz-adv-x="610" 
d="M163 701v-565l294 565h95v-701h-95v567l-294 -567h-87v701h87z" />
    <glyph glyph-name="uni0419" unicode="&#x419;" horiz-adv-x="610" 
d="M76 0zM163 701v-565l294 565h95v-701h-95v567l-294 -567h-87v701h87zM161 912q29 -43 66.5 -61.5t79.5 -18.5t79.5 18.5t66.5 61.5l36 -29q-31 -61 -79.5 -86.5t-102.5 -25.5t-102.5 25.5t-79.5 86.5z" />
    <glyph glyph-name="uni041A" unicode="&#x41a;" horiz-adv-x="576" 
d="M538 701l-285 -321l295 -380h-100l-285 360v-360h-87v701h87v-319l280 319h95z" />
    <glyph glyph-name="uni041B" unicode="&#x41b;" horiz-adv-x="609" 
d="M532 701v-701h-86v634h-151q-8 -163 -21.5 -280t-37.5 -199q-16 -54 -33 -84.5t-37 -46.5t-43 -20t-51 -4h-37l-3 67h28q20 0 36 5t29 18t23.5 36t20.5 59q20 72 33 197t24 319h306z" />
    <glyph glyph-name="uni041C" unicode="&#x41c;" horiz-adv-x="736" 
d="M76 0zM182 701l187 -591l194 591h97v-701h-78v547l-172 -547h-87l-174 545v-545h-73v701h106z" />
    <glyph glyph-name="uni041D" unicode="&#x41d;" horiz-adv-x="610" 
d="M76 0zM163 701v-303h285v303h86v-701h-86v332h-285v-332h-87v701h87z" />
    <glyph glyph-name="uni041E" unicode="&#x41e;" horiz-adv-x="632" 
d="M61 0zM320 714q66 0 114 -21t79 -65t45.5 -113t14.5 -165q0 -87 -13 -155t-43 -114t-79 -70t-122 -24q-67 0 -115 20.5t-79 64.5t-46 113t-15 166q0 85 12.5 152t42.5 114t80 72t124 25zM320 646q-49 0 -82 -20t-52.5 -57.5t-28 -92t-8.5 -124.5q0 -77 8.5 -132.5
t28.5 -92t52 -54t79 -17.5q49 0 81.5 18.5t51.5 55t26.5 91.5t7.5 127q0 77 -8.5 133t-28 93t-50.5 54.5t-77 17.5z" />
    <glyph glyph-name="uni041F" unicode="&#x41f;" horiz-adv-x="610" 
d="M534 701v-701h-86v634h-285v-634h-87v701h458z" />
    <glyph glyph-name="uni0420" unicode="&#x420;" horiz-adv-x="557" 
d="M76 0zM282 701q58 0 101 -11t71 -35t41.5 -63t13.5 -95q0 -115 -56 -167.5t-169 -52.5h-122v-277h-86v701h206zM162 346h125q71 0 103 36t32 111t-32 107t-104 32h-124v-286z" />
    <glyph glyph-name="uni0421" unicode="&#x421;" horiz-adv-x="615" 
d="M61 0zM489 438q-4 44 -13 82.5t-27 66.5t-46 44t-71 16q-89 0 -135.5 -72.5t-46.5 -226.5q0 -78 12 -133.5t35 -90.5t56.5 -51.5t76.5 -16.5q75 0 113.5 49.5t53.5 157.5l62 -12q-8 -56 -21.5 -104t-39.5 -83.5t-68 -55.5t-105 -20q-126 0 -195 87t-69 273
q0 185 68.5 276t200.5 91q48 0 86 -13t66.5 -44.5t46 -83t23.5 -128.5z" />
    <glyph glyph-name="uni0422" unicode="&#x422;" horiz-adv-x="539" 
d="M27 0zM511 701l-8 -67h-191v-634h-86v634h-199l8 67h476z" />
    <glyph glyph-name="uni0423" unicode="&#x423;" horiz-adv-x="598" 
d="M117 701l191 -425l190 425h77l-257 -565q-20 -43 -37 -69.5t-36 -41.5t-42 -20t-53 -5h-34l-4 67h31q23 0 39 4.5t29 17t25.5 35t28.5 58.5l-240 519h92z" />
    <glyph glyph-name="uni0424" unicode="&#x424;" horiz-adv-x="720" 
d="M401 701v-88q75 -3 125.5 -19.5t80.5 -49t43 -80.5t13 -114q0 -60 -12.5 -106.5t-42.5 -80t-80.5 -52.5t-126.5 -23v-88h-82v88q-77 3 -127.5 19.5t-80.5 48.5t-42 80.5t-12 114.5q0 57 13.5 103t44.5 79.5t81 53.5t123 25v89h82zM575 349q0 51 -8 88t-27.5 61.5t-53 38
t-85.5 16.5v-405q52 4 86 18t53.5 39t27 61t7.5 83zM145 351q0 -50 7 -86.5t26.5 -61.5t53.5 -38.5t87 -16.5v404q-50 -5 -83.5 -20t-53.5 -40t-28.5 -60.5t-8.5 -80.5z" />
    <glyph glyph-name="uni0425" unicode="&#x425;" horiz-adv-x="600" 
d="M27 0zM552 701l-205 -324l226 -377h-101l-181 304l-186 -304h-78l230 362l-201 339h98l158 -265l162 265h78z" />
    <glyph glyph-name="uni0426" unicode="&#x426;" horiz-adv-x="682" 
d="M163 701v-634h285v634h86v-634h117v-281h-72v214h-503v701h87z" />
    <glyph glyph-name="uni0427" unicode="&#x427;" horiz-adv-x="594" 
d="M517 701v-701h-86v283q-28 -19 -66.5 -31t-91.5 -12q-109 0 -159 56t-50 163v242h87v-231q0 -85 30.5 -123.5t103.5 -38.5q46 0 82 12t64 32v349h86z" />
    <glyph glyph-name="uni0428" unicode="&#x428;" horiz-adv-x="841" 
d="M163 701v-634h215v634h87v-634h214v634h86v-701h-689v701h87z" />
    <glyph glyph-name="uni0429" unicode="&#x429;" horiz-adv-x="907" 
d="M163 701v-634h215v634h87v-634h214v634h86v-634h111v-281h-72v214h-728v701h87z" />
    <glyph glyph-name="uni042A" unicode="&#x42a;" horiz-adv-x="697" 
d="M303 701v-277h122q113 0 169 -52.5t56 -167.5q0 -56 -13.5 -95t-41.5 -63t-71 -35t-101 -11h-206v634h-190l8 67h268zM303 69h124q72 0 104 32t32 107t-32 111t-103 36h-125v-286z" />
    <glyph glyph-name="uni042B" unicode="&#x42b;" horiz-adv-x="766" 
d="M76 0zM691 701v-701h-87v701h87zM162 701v-277h122q113 0 169 -52.5t56 -167.5q0 -56 -13.5 -95t-41.5 -63t-71 -35t-101 -11h-206v701h86zM162 69h124q72 0 104 32t32 107t-32 111t-103 36h-125v-286z" />
    <glyph glyph-name="uni042C" unicode="&#x42c;" horiz-adv-x="557" 
d="M162 701v-277h122q113 0 169 -52.5t56 -167.5q0 -56 -13.5 -95t-41.5 -63t-71 -35t-101 -11h-206v701h86zM162 69h124q72 0 104 32t32 107t-32 111t-103 36h-125v-286z" />
    <glyph glyph-name="uni042D" unicode="&#x42d;" horiz-adv-x="615" 
d="M464 383q-5 135 -51 199.5t-132 64.5q-29 0 -53.5 -8t-43.5 -28t-32.5 -53t-20.5 -83l-64 11q9 65 27.5 109t46 70.5t64 38t80.5 11.5q132 0 200.5 -91t68.5 -276q0 -186 -69 -273t-195 -87q-56 0 -94.5 15.5t-65 43.5t-42 67t-24.5 85l63 17q29 -160 160 -160
q39 0 71 14.5t54.5 46.5t36 82t15.5 121h-257l8 63h249z" />
    <glyph glyph-name="uni042E" unicode="&#x42e;" horiz-adv-x="848" 
d="M536 714q66 0 114 -21t79 -65t45.5 -113t14.5 -165q0 -87 -13 -155t-43 -114t-79 -70t-122 -24q-65 0 -112 19t-78 60t-47 105.5t-18 154.5h-114v-326h-87v701h87v-314h114q3 76 17 137t44.5 103t78.5 64.5t119 22.5zM536 646q-49 0 -82 -20t-52.5 -57.5t-28 -92
t-8.5 -124.5q0 -77 8.5 -132.5t28.5 -92t52 -54t79 -17.5q49 0 81.5 18.5t51.5 55t26.5 91.5t7.5 127q0 77 -8.5 133t-28 93t-50.5 54.5t-77 17.5z" />
    <glyph glyph-name="uni042F" unicode="&#x42f;" horiz-adv-x="578" 
d="M502 701v-701h-86v228h-139q0 -60 -14.5 -105.5t-38.5 -76t-55.5 -45.5t-66.5 -15q-32 0 -64 13l-7 42q5 -1 10 -1h10q35 0 64.5 14.5t52 40.5t36.5 60.5t18 75.5q-43 6 -74.5 22t-52.5 44.5t-31 71.5t-10 102q0 70 14 114.5t42.5 70t71.5 35.5t100 10h220zM280 632
q-37 0 -63.5 -7.5t-44 -26t-25.5 -50t-8 -80.5t8.5 -82.5t26 -54t44.5 -29.5t64 -9h134v339h-136z" />
    <glyph glyph-name="uni0430" unicode="&#x430;" horiz-adv-x="501" 
d="M46 0zM63 339q5 37 15 67t30.5 50.5t53 31.5t82.5 11q47 0 79 -10.5t51.5 -32t28 -55.5t8.5 -81v-194q0 -36 8.5 -50.5t35.5 -14.5h18l-7 -61h-47q-37 0 -56 16.5t-26 44.5q-24 -33 -57 -52.5t-87 -19.5q-39 0 -67 10.5t-46 30t-26 46.5t-8 59q0 46 16 77t50.5 51.5
t89 32t130.5 17.5v12q0 30 -4 51.5t-14 34.5t-27.5 19t-44.5 6q-61 0 -86.5 -26t-35.5 -76zM211 54q43 0 71.5 19.5t49.5 52.5v139q-55 -5 -94.5 -13.5t-65 -22.5t-37.5 -35.5t-12 -52.5q0 -38 20 -62.5t68 -24.5z" />
    <glyph glyph-name="uni0431" unicode="&#x431;" horiz-adv-x="500" 
d="M345 720q20 0 32.5 13t10.5 39l47 -7q6 -50 -15 -83.5t-63 -33.5h-110q-32 0 -53.5 -5.5t-35 -20.5t-19 -40t-5.5 -64v-74q23 23 55.5 36.5t78.5 13.5q51 0 85.5 -17.5t55 -50t29 -77.5t8.5 -99q0 -60 -10 -108.5t-33.5 -82.5t-61 -52t-92.5 -18t-92 18t-59.5 52t-32 82
t-9.5 108v269q0 58 9 97t29.5 62t55 33t85.5 10h110zM258 430q-41 0 -72 -18t-52 -44v-120q0 -100 25.5 -148t89.5 -48q66 0 91.5 48.5t25.5 148.5q0 43 -5 76.5t-17 57t-33 35.5t-53 12z" />
    <glyph glyph-name="uni0432" unicode="&#x432;" horiz-adv-x="535" 
d="M297 487q78 0 118 -26.5t40 -89.5q0 -43 -18 -70.5t-50 -41.5q51 -12 72 -42t21 -78q0 -63 -37 -101t-125 -38h-249v487h228zM151 60h144q59 0 80 23.5t21 61.5q0 42 -22 62.5t-77 20.5h-146v-168zM151 281h130q51 0 71.5 20t20.5 58q0 40 -21.5 56t-69.5 16h-131v-150z
" />
    <glyph glyph-name="uni0433" unicode="&#x433;" horiz-adv-x="405" 
d="M381 487l-7 -62h-223v-425h-82v487h312z" />
    <glyph glyph-name="uni0434" unicode="&#x434;" horiz-adv-x="632" 
d="M507 487v-426h93v-275h-69v214h-430v-214h-69v275h65q15 0 27.5 3.5t23.5 12.5t20.5 24t17.5 38q16 47 27 130.5t21 217.5h273zM242 108q-4 -11 -10 -23.5t-12 -23.5h205v364h-133q-6 -93 -17.5 -176.5t-32.5 -140.5z" />
    <glyph glyph-name="uni0435" unicode="&#x435;" horiz-adv-x="504" 
d="M54 0zM133 231q2 -96 31 -137.5t91 -41.5q51 0 83.5 29.5t42.5 99.5l62 -10q-12 -91 -56.5 -136.5t-134.5 -45.5q-100 0 -149 60.5t-49 197.5q0 124 45 188t154 64q58 0 96.5 -18t60.5 -49.5t31 -75t9 -94.5v-16.5t-1 -14.5h-316zM250 439q-60 0 -86 -38.5t-30 -120.5
h237q-1 37 -7.5 66.5t-21 50t-37 31.5t-55.5 11z" />
    <glyph glyph-name="uni0436" unicode="&#x436;" horiz-adv-x="785" 
d="M750 487l-225 -224l232 -263h-98l-225 251v-251h-83v251l-225 -251h-98l231 263l-224 224h96l220 -221v221h83v-221l220 221h96z" />
    <glyph glyph-name="uni0437" unicode="&#x437;" horiz-adv-x="533" 
d="M65 359q3 31 13 57t31.5 44.5t56 28.5t86.5 10q100 0 142.5 -36t42.5 -95q0 -82 -76 -109q47 -12 75 -40.5t28 -81.5q0 -32 -11.5 -59t-37 -47t-66 -31t-97.5 -11t-93 11t-58 29t-32.5 41.5t-15.5 49.5l62 15q10 -46 39 -67.5t92 -21.5q73 0 104 26.5t31 70.5
q0 50 -35 67.5t-96 17.5h-72l5 57h64q54 0 84 17.5t30 59.5q0 39 -28 60t-87 21q-63 0 -89 -24.5t-32 -71.5z" />
    <glyph glyph-name="uni0438" unicode="&#x438;" horiz-adv-x="551" 
d="M150 487v-388l250 388h82v-487h-81v397l-250 -397h-82v487h81z" />
    <glyph glyph-name="uni0439" unicode="&#x439;" horiz-adv-x="551" 
d="M69 0zM129 723q28 -45 66 -64t79 -19q42 0 80 19t67 64l36 -33q-31 -64 -80 -90.5t-103 -26.5t-102.5 26.5t-79.5 90.5zM150 487v-388l250 388h82v-487h-81v397l-250 -397h-82v487h81z" />
    <glyph glyph-name="uni043A" unicode="&#x43a;" horiz-adv-x="503" 
d="M152 487v-221l220 221h96l-225 -224l232 -263h-98l-225 251v-251h-83v487h83z" />
    <glyph glyph-name="uni043B" unicode="&#x43b;" horiz-adv-x="544" 
d="M475 487v-487h-82v425h-133q-7 -103 -18.5 -181.5t-31.5 -135.5q-14 -36 -29 -57.5t-32.5 -32.5t-38 -14.5t-44.5 -3.5h-31l-3 61h24q16 0 30.5 3t26.5 11t22 23.5t19 40.5q16 48 27 130.5t21 217.5h273z" />
    <glyph glyph-name="uni043C" unicode="&#x43c;" horiz-adv-x="676" 
d="M175 487l160 -406l164 406h109v-487h-80v396l-154 -396h-75l-153 393v-393h-77v487h106z" />
    <glyph glyph-name="uni043D" unicode="&#x43d;" horiz-adv-x="528" 
d="M151 487v-198h225v198h82v-487h-82v227h-225v-227h-82v487h82z" />
    <glyph glyph-name="uni043E" unicode="&#x43e;" horiz-adv-x="500" 
d="M54 0zM249 499q58 0 96.5 -19t60.5 -52t31 -79t9 -100q0 -60 -10 -108t-33.5 -82t-61 -52t-92.5 -18t-92 18t-60 52t-33 82t-10 108q0 54 8.5 100t30.5 79t60 52t96 19zM249 435q-35 0 -57 -13t-35.5 -37.5t-18.5 -59t-5 -77.5q0 -100 26 -148t90 -48q66 0 91.5 48
t25.5 148q0 43 -5 77.5t-18.5 59t-36 37.5t-57.5 13z" />
    <glyph glyph-name="uni043F" unicode="&#x43f;" horiz-adv-x="539" 
d="M470 487v-487h-82v425h-237v-425h-82v487h401z" />
    <glyph glyph-name="uni0440" unicode="&#x440;" horiz-adv-x="553" 
d="M69 0zM146 487q2 -16 3 -34.5t2 -39.5q29 39 72 62.5t103 23.5q37 0 68.5 -11.5t55 -40t36.5 -77t13 -123.5t-13 -125t-36.5 -80t-55.5 -42t-70 -12q-59 0 -101 22.5t-71 62.5v-287h-83v701h77zM301 435q-51 0 -88 -29t-61 -83v-161q24 -54 61 -82t86 -28q27 0 49 10
t37.5 32.5t24 59.5t8.5 91t-8.5 90.5t-24 58.5t-37 31.5t-47.5 9.5z" />
    <glyph glyph-name="uni0441" unicode="&#x441;" horiz-adv-x="491" 
d="M54 0zM373 325q-7 55 -31.5 82.5t-81.5 27.5q-69 0 -98 -44t-29 -146q0 -101 28 -147t94 -46q33 0 54.5 11t35 30t20.5 45t11 56l62 -9q-4 -35 -13 -70t-29.5 -63t-55 -45.5t-89.5 -17.5q-54 0 -92 18t-61 51.5t-33.5 81t-10.5 106.5q0 62 11 109t35.5 79t63 48.5
t93.5 16.5q47 0 79.5 -11.5t53.5 -33t31 -51.5t12 -67z" />
    <glyph glyph-name="uni0442" unicode="&#x442;" horiz-adv-x="468" 
d="M443 487l-6 -62h-161v-425h-82v425h-169l7 62h411z" />
    <glyph glyph-name="uni0443" unicode="&#x443;" horiz-adv-x="465" 
d="M9 0zM107 487l132 -437l131 437h71l-165 -556q-24 -82 -59 -116.5t-86 -34.5q-24 0 -43.5 6.5t-35 16t-26.5 20.5t-17 21l29 49q12 -17 33 -31t50 -14q13 0 24 4t21.5 15t20.5 30t20 48l-182 542h82z" />
    <glyph glyph-name="uni0444" unicode="&#x444;" horiz-adv-x="708" 
d="M394 740v-242q82 -3 133 -17.5t79.5 -43.5t38.5 -74t10 -108q0 -68 -10.5 -116.5t-39 -80.5t-79.5 -48.5t-132 -19.5v-205h-83v205q-81 3 -131.5 19.5t-78 48.5t-37.5 80.5t-10 116.5q0 63 10 107.5t37.5 74t78 44t131.5 17.5v234zM575 254q0 49 -6.5 82t-25.5 54
t-55 31.5t-94 12.5v-381q58 3 93.5 14.5t55 35.5t26 61t6.5 90zM134 254q0 -53 6.5 -90t25 -61t53.5 -35.5t92 -14.5v381q-57 -2 -92 -12.5t-53.5 -31.5t-25 -54.5t-6.5 -81.5z" />
    </font>
</defs>
</svg>
